<mxfile host="app.diagrams.net" modified="2022-04-28T03:17:09.537Z" agent="5.0 (Windows NT 10.0; Win64; x64) AppleWebKit/537.36 (KHTML, like Gecko) Chrome/95.0.4638.69 Safari/537.36" etag="XWFzuqKoXumRamE_sLDg" version="17.4.0" type="github">
  <diagram id="XCs8NLoMCLIRhW_bA4HC" name="Page-1">
    <mxGraphModel dx="595" dy="772" grid="1" gridSize="10" guides="1" tooltips="1" connect="1" arrows="1" fold="1" page="1" pageScale="1" pageWidth="827" pageHeight="1169" math="0" shadow="0">
      <root>
        <mxCell id="0" />
        <mxCell id="1" parent="0" />
        <mxCell id="5L7maJ-LGeqKzFt3YW2Y-1" value="" style="shape=image;verticalLabelPosition=bottom;labelBackgroundColor=default;verticalAlign=top;aspect=fixed;imageAspect=0;image=data:image/png,iVBORw0KGgoAAAANSUhEUgAAAh4AAAOxCAYAAAC6/q7FAAAgAElEQVR4Aey9669lV3nu6T+jP/Q5qJH42vmAhITUrdNpqQ/ocFHojhRaAnyBJpEA44N0+sTtdpNDhE21Q6DKRgpgm/QJjp3kRMbQaiUukoDvBJchEF+AuKoCuMouyrVN2VXbxtuerWdWnl3vHjXmXHOsvdZc8/Ib0qox5xjvuP3G7VljzrXrsq2tcxUOAhCAAAQgAAEIrIuAtMYtt9xSfeELX6guQ3isCzP5QgACEIAABCAgAhYeEh8ID8YEBCAAAQhAAAJrJSDhcejQofrUA+GxVtRkDgEIQAACEIAAwoMxAAEIQAACEIBAbwQkPA4ePFjdfPPNPGrpjToFQQACEIAABGZKAOEx046n2RCAAAQgAIFNEEB4bII6ZUIAAhCAAARmSsDCQy+Y8nLpTAcBzYYABCAAAQj0RQDh0RdpyoEABCAAAQhAoP47Hnq5lBMPBgMEIAABCEAAAmsnwInH2hFTAAQgAAEIQAACJoDwMAl8CEAAAhCAAATWTgDhsXbEFAABCEAAAhCAgAkgPEwCHwIQgAAEIACBtRNAeKwdMQVAAAIQgAAEIGACCA+TwIcABCAAAQhAYO0EEB5rR0wBEIAABCAAAQiYAMLDJPAhAAEIQAACEFg7AYTH2hFTAAQgAAEIQAACJrBx4XH31+6pDt58i+vTyf/uo0eqa6+7vtre3t5jr/sbbjxQPf300T3h6Y3slF75RKe65PKNNul1U16pHfcQgAAEIAABCFT9/cn0M1tb9aYuP7qc8GiydTpv9lEkOEzCIy3D6ezbdpXC4w1vfFPV9HE58lORJZH09ne865K0CksFlNI3ldEULr44CEAAAhCAwFAI9HrioU3w/VdctUcYpMJDokE2UUA0bc5Nm20MV15/+61vFW/YziOtb9pxTSImtdO92iGxFAWTwj569TV7mIiBwnLCI6YVu/Q+ChtdIzxyPUEYBCAAAQhsikCvwkONTMVHFB4WGOveLJvEgsqNG3mXTmnKqymthVU8BUnFTZvwsCDq6q+bZVM7CYcABCAAAQjkCPQuPFSJ+E08Co8YnlbWoiS34fpbfsxLG3uTiGgSC4uEh9Pl6pALSwVF2iY/OknFQZPwSNP7vo2bbfAhAAEIQAACQyAg4fGv/ocPV7/74V+vLtNN3y6Khbayc48kZK9Nt1R4tJXTFmfh4dOKNttYX6ezOFF6i46mvNQm24uR7R1W4qfCpq3exEEAAhCAAATWSaA+8fj0h6t/84b/Zr3CI26kXTfNuGHGjTwC6So8lFfXcm2XigILiDQ81sfXufqWpHc+XXwxiKy6pMEGAhCAAAQgsAkCftTyu7+5ZuFR2rh0M9VGnvv1h0SCbOW0+fpa4qDpUYts2+KbBEJTeK5tXYTHIjGUe1SjelsYLfLNIlc/wiAAAQhAAAKbIGDh8ZlNPWppanROeKS//lBa2XmD7Ut4LNrwHZ8Kh1S4+D53WhHbFRm1CaZoF1nEcK4hAAEIQAACmyRg4bH2E4+2Ewtv1KkfN+TcCYLAxQ06braLNui2+KaXOy0UlHaRy9U3l155pQIlF+byFJdyarq3IHNafAhAAAIQgMCmCdTC4z/+ZvWv1/2OR2lDtWmmwqOvRy1NwqO0Dal9TnjIRm31YyELtCZxo3DbpvnH+yjCYjjXEIAABCAAgU0SkPD4V795bTWJRy0R5KINui1ecekphPKOpxi6ft/lV+7+ka80TS7/KDwkDCysHO6TC6Vtcoqz3SKfE48mioRDAAIQgMCmCPT2qKW0gbkTj0XveMQytKm3nQxEYeBThriR5zZ/1Slu5vFepyQSK05nMeF71c02LsdxafkWJLE9vlaatnbZTnnEujocHwIQgAAEILBJAhcftazx73ikG6s33kV+3ICVh4WHN3Wn9waebuwxfQq56wbudLJPT0HSsChElC6NP3HyZN0GhcvJvq0NFhhpe52mq+983BZ8CEAAAhCAwKYI1I9a/vWvV//bDYfW+3c8ShuoTblNOJTml9pr8++6IXvjt2BwXhY6Dld9Y55Kl/vfci3EUiHjfOW7TImLdXKIZXINAQhAAAIQWDcBP2o5dGhgwmPdDSd/CEAAAhCAAAT6J4Dw6J85JUIAAhCAAARmSwDhMduup+EQgAAEIACB/gkgPPpnTokQgAAEIACB2RJAeMy262k4BCAAAQhAoH8CCI/+mVMiBCAAAQhAYLYEEB6z7XoaDgEIQAACEOifAMKjf+aUCAEIQAACEJgtAYTHbLuehkMAAhCAAAT6J4Dw6J85JUIAAhCAAARmSwDhMduup+EQgAAEIACB/gkgPPpnTokQgAAEIACB2RJAeMy262k4BCAAAQhAoH8CCI/+mVMiBCAAAQhAYLYEEB6z7XoaDgEIQAACEOifAMKjf+aUCAEIQAACEJgtAYTHbLuehkMAAhCAAAT6J4Dw6J85JUIAAhCAAARmSwDhMduup+EQgAAEIACB/gkgPPpnTokQgAAEIACB2RJAeMy262k4BCAAAQhAoH8CEh6f+cxN1YEDn60u0w0OAhCAAAQgAAEIrIuAtMZnP/u56nOf+zzCY12QyRcCEIAABCAAgQsEehEe/+nvOElhwEFg6AS6ztPjx08MvSnUDwKzJrDOOfrLX/6y2u8H4THr4UnjIXCRAMLjIguuIDBmAgiPqqq6Lmhj7mjqDoGxE+g6T9e5qI2dIfWHwBAIrHOO7ve0Q+k58RjCKKEOEBgAAYTHADqBKkBgBQQQHpx4rGAYkQUE1k8A4bF+xpQAgT4IIDyqqvrU352rXu+DNmVAAAJLEdD81Dzt4ta5qHUpHxsIQKCdwDrn6GgetXz1e+eqb/7kPOKjfawQC4GNEJDo0PzUPO3iTp06U21tne1iig0EINAzAc1NzdF1udEIj7Mv79SLmr5R6TiXDwwYA8MZA5qXEh2ap13czs5OvbDpWxUfGDAGhjUGJDo0R9flFgmP3/iN31j4c9teXi5dFwDyhQAEIAABCECgPwJtwkOiw582O4RHf/1FSRCAAAQgAIFRE2gSFBYc0W+yRXiMeghQeQhAAAIQgEB/BHJiIoqN9Dpnj/Dor78oCQIQgAAEIDBqAjkhURqG8Bj1EKDyEIAABCAAgf4IlIqMnL2Ex2c+c1N14MBn+d9p++s6SoIABCAAAQiMj0BOSJSGSXgcPHiwOnToEMJjfEOAGkMAAhCAAAT6I1AqMnL2CI/++ouSIAABCEAAAqMmkBMSpWEIj1EPASoPAQhAAAIQ6I9AqcjI2SM8+usvSoIABCAAAQiMmkBOSJSGITxGPQSoPAQgAAEIQKA/AqUiI2eP8OivvygJAhCAAAQgMGoCOSFRGobwGPUQoPIQgAAEIACB/giUioycPcKjv/6iJAhAAAIQgMCoCeSERGkYwmPUQ4DKQwACEIAABPojUCoycvYIj/76i5IgAAEIQAACoyaQExKlYQiPUQ8BKg8BCEAAAhDoj0CpyMjZIzz66y9KggAEIAABCIyaQE5IlIYhPEY9BKg8BCAAAQhAoD8CpSIjZ4/w6K+/KAkCEIAABCAwagI5IVEahvAY9RCg8hCAAAQgAIH+CJSKjJw9wqO//qIkCEAAAhCAwKgJ5IREaRjCY9RDgMpDAAIQgAAE+iNQKjJy9giP/vqLkiAAAQhAAAKjJpATEqVhEh6f+cxN1YEDn60u000f7szWVvXRq6+pnn766J7iFP7+K66q3vDGN1Vvf8e79sTLVmlk08UdvPmW6u6v3dPF9BIbpdWni1MZqq/t5X/30SNdkmIDgdET0Fi/9rrrq+3t7aXaovms9IvmtcrxHItpNP9y5Wu9uOHGA3W9on1bJZW/8vOc1ryOn1w5bfkRB4EpEigVGTn7jZx4eBGRHye2REduAVKYBUm0j9daLOxkr0XEi2FajtN5IXM6+cqnqR6206ImYaR8Yh5xsbMtPgSmTODW227f/YLQNE/b5pPSLBIemscSEZpfcjHNiRMn6jmbigILiNS+qS+ivWy8Rtk+vXc4PgTmRiAnJErDNiI8tFlrIkcXF5M0XAvXRz728ew3m5xQuPfw4XqRcp66jwJB+ecWEuVlUdLkx3qneTSlTxfF2D6uITBWAhICmltyml+6TkWE56B82zXNrRge52sq6NM864zDP4pf9EVFZbkMzWPNXddP4encjgIrFMUlBGZHoFRk5Ox7Fx5aRHKPTHKLicLiIxmlfd/lV9aiQtc6dfCC4d5XuBYJOS8g6SKiuBimb1RaMLUYKTznVI4XKsfHPHL1l10undPjQ2CsBDRnNB807j0PcnMgDfOcdLsVrzCfTirc+dlG8ffd/8DuHI0CJV77ZEVzLq4LaR2cr33l73z8JUF18LXWFD+2cRp8CMyVQE5IlIb1Kjy8wXuBiB23aHGQrRYDLxD24wIjG907TgtKUzrZOF6+F5l00XKdYzmxDJclX/VzHWSjNkXhVEfyDwQmQMDCX+Pe81njPXfS4Hg1W3PN80T3uU1d8Z6bnvMxjcpR/B133rVHYCg/x0UhozDNb/lNTvWIX4hUnt8zcx3imtGUD+EQmDqBUpGRs+9VeGgz1gKQWwRyi0Oc8E2TPooALxRadLQoefFRPl7IPChyYY6TreqoPJyn46KvsnUCk34bUrg+OAhMnYAfa6qduTmchmluae7Zef7GMM9NpZUY0ByL8RYrOeHhfKOf1iHG6drlKF871yvOY9Uh3tsWHwJzIpATEqVhvQqPP73zz6qjR4/Vm7r83LcjCQx/tPlbPLhjNfEXTX49atGiZLHihcx5yM+FOV5xSttWjhYrCQ4tpFqwtAC7bvJVvurflofLw4fAGAlonmiuaR7r47mtuWGXbvpRePiUwWuB54rnpudVTKN8He/55rLkK8zrRxdf9p7vtne+apu/JGkdii+4xjK5hsCcCJSKjJx9r8JDnZMuRO6wpvB0UfDikPqyk9NipVMKLVZ2TXlEG9nqPs03vXc5EhoSF85D9fdjFS9cXlgVh4PAlAhoI9amHB+jaJznvkxEG80XzSF94mmi83O855WYOcz8fO955vDUT9eURfZO77qojkrj8mKdbIsPgbkRyAmJ0rDBC4/YqelC4jgtDhYEDou+4tJFw2FeZCQw9MsZ5dXkvABJUOjbkPOQvRcoXzufGN6UL+EQmAKB3PxMwzSHNNdyp5maizpViIJeXDzvdB3FvOaW55nTKt5O1/ExaLS3Tc6Pdfb6EMVTLg1hEJgLgVKRkbMflfDQAuSFJnZyXJgcHhc4vRGv++iiaHD4ooXJ5SitPwqLi6HyivloEfNJiMvBh8BUCGgeSEjo9ELXfjTh9sVNXGGeQ47P+conzlensQjwGhDnmeJkp/LkbKu87KK9wjRv/+iLX6rr7JNNtcOPUG2jMMXHvJwnPgTmRiAnJErDRiE8tEBo8nvBiR2tBSY+e9XikC4S6UKm9Lkw5e8FqMmPi08uD+WdLnCxvlxDYAoEtMHrFCAKhFRkqJ1pmEVEG4N0XjmN5lU8KYnzLJaTq5vKi/a6T8tRWPwSoXivJW1rUFtbiIPA1AiUioycvYTHp286WB06dKifP5keFwgtKE0bvMI/+7nP1wtNXGzUiV4EnDYufrGT/a3Hdjk/5p0uTDEvXXsBdHi6cCm9ypBIUh1xEJgLAY/93ByLcyKdQ+ZjseD0mlt2SqPHL/HnropL1wHVQbZNj0UsJFyG/FiO8nT9lFeaj9cTxeEgMFcCOSFRGibh8X/eeLD69B/0JDzm2lm0GwIQgAAEIDB2AqUiI2dv4XH9ZxAeYx8P1B8CEIAABCCwVgI5IVEahvBYaxeROQQgAAEIQGA6BEpFRs4e4TGd8UBLIAABCEAAAmslkBMSpWEIj7V2EZlDAAIQgAAEpkOgVGTk7BEe0xkPtAQCEIAABCCwVgI5IVEahvBYaxeROQQgAAEIQGA6BEpFRs4e4TGd8UBLIAABCEAAAmslkBMSpWEIj7V2EZlDAAIQgAAEpkOgVGTk7HsRHjs7O9WpU2eq48dP8IEBY2CAY0DzU/O0i2M+s47NdS0vmSdd5tIYbXJCojSsF+GhztraOjtGxtQZArMgoPmpedrFMZ+7UMJmigRK5skU2682lYqMnH0vwkPqGAcBCAybQNd52tVu2K2ldhBYjsDcx39OSJSGITyWG3ukgsDkCHRdULvaTQ4QDYJAVdWPiucMolRk5OwRHnMeQbQdAoFAV0HR1S5kzSUEJkNg7uM/JyRKwxAek5kONAQC+yPQdUHtare/2pAaAsMkMPfxXyoycvYIj2GObWoFgd4JdF1Qu9r13gAKhEAPBOY+/nNCojQM4dHDQKUICIyBQNcFtavdGNpMHSFQSmDu479UZOTsER6low57CEyUQNcFtavdRDHRrJkTmPv4zwmJ0jCEx8wnEc2HgAl0XVC72jlffAhMicDcx3+pyMjZIzymNCNoCwT2QaDrgtrVbh9VISkEBktg7uM/JyRKw0YhPLa2tqqrr/lEdfTYsU6D8dAtX6je/Ja3Vtdd/8lqe3u7U5qc0T1f/0alvHAQmAOBrgtqVzsz0zzSfNTn8is/VGk+4yCwSQJ/9KUvV/os40rH/zJlDDlNqcjI2U9OeBw58tjKFrcoPLRYatFU/jgITJFA1wW1q50YpfNRQn6/XwimyJ429UsA4bE875yQKA2z8Pj0HxyqLtPNOlzJQpUrv+TEQ2JhVQsbwiPXG4QNhcArr7xSnT59uv6/E3J1Onv2bPX8889Xr776ai76krCu87SrnU4bNRc1j+x0avmBKz/Y+fTS6fAhsEoCCI/laZaKjJy9tManbzpYHTo0IOHhBcvHs7d95Y/3PGpJ4/04xI9YnM4LnnyHxaNehUeR4nxjOuWpxfKd735PNo/lu4+UENgfgddee606depUdfTo0erFF1/ck5nujx07Vj333HPV66+/vieu6aaroOhql/vCwMlhE33C+ySA8Fiedk5IlIZJeBw8OCDh4c3fYkJ4dK2NXwIgjfd9FAtRTCjN4W/+TU3Zts67q/BQYhbM5QcqKddHQKceP/3pT2uRcf78+bog+RIdCld8V9dVUHS1y51ueA7yyLJrr2AnAl/88q2dPk20LDTsf/h3PlLp43v7TeljeNfxH9NM6bpUZOTsByc8tFjpRVJt9Hbxm1P6zFg2EhBNYsJ52G+z9aIYRYzzRXiYIP7QCLz88su1yDh+/Hj9aEW+RIfCS1zXBbWrHcKjhD62bQQQHm10+o3LCYnSsMEJDwmLeGIhpKnw8GOT6DtNeoqhxS8+JlGaJluER78DmNJWR8Di44c//OFSokM16SooutrFeeuWIuBNAn+TBEpOONJ6dh3/abqp3JeKjJz9IIVHfA9DnRW/OeVOPGKHRuGRCgnZxfh4rbjUXvGceES6XA+ZgMSHJnnpSYfb1HVB7WqXzieVkzvRdPn4EOiLAMJjedI5IVEaNjjh4W9E2vTlvHj5HY80XjaylSDxtU80nNZ5Oa3jlcb5Kq3udSJie/kIjxor/4yEQNcXSXPN6SooutqpDM2h+EVC88lzKlcHwiDQBwGEx/KUS0VGzn5wwkM40scjejk0/gExCwg/arFQUFpdW1ikeWkB1C9kYrwWQedz44Gb6jjnJz8ukrqXbVxIl+8+UkJgWAS6Coqudm5dnGNxPjkeHwJ9E0B4LE88JyRKwwYpPJZHQkoIQGBZAl0FRVe7ZetBOggMmcDcx3+pyMjZIzyGPMKpGwR6JNB1Qe1q12PVKQoCvRGY+/jPCYnSMIRHb8OVgiAwbAJdF9SudsNuLbWDwHIE5j7+S0VGzh7hsdzYIxUEJkeg64La1W5ygGgQBAp+dj5VWDkhURom4fGZz9xUHTjw2eH+Xy1T7UDaBYEhEegqKLraDalt1AUCqyIw9/FfKjJy9px4rGo0kg8ERk6g64La1W7kOKg+BLIE5j7+c0KiNAzhkR1aBEJgfgS6Lqhd7eZHkBbPgcDcx3+pyMjZIzzmMFNoIwQ6EOi6oHa161AkJhAYHYG5j/+ckCgN60V4nDp1ptraOju6AUaFITAXApqfmqddHPO5CyVspkigZJ5Msf1qU6nIyNn3Ijx2dnbqRU1KkQ8MGAPDGwMSE5qnXRzzeXj9x5zqp09K5kmXuTRGm5yQKA3rRXiMES51hgAEIAABCEBgL4FSkZGzR3jsZcodBCAAAQhAAAINBHJCojQM4dEAl2AIQAACEIAABPYSKBUZOXuEx16m3EEAAhCAAAQg0EAgJyRKwxAeDXAJhgAEIAABCEBgL4FSkZGzR3jsZcodBCAAAQhAAAINBHJCojQM4dEAl2AIQAACEIAABPYSKBUZOXuEx16m3EEAAhCAAAQg0EAgJyRKwxAeDXAJhgAEIAABCEBgL4FSkZGzR3jsZcodBCAAAQhAAAINBHJCojQM4dEAl2AIQAACEIAABPYSKBUZOXuEx16m3EEAAhCAAAQg0EAgJyRKwxAeDXAJhgAEIAABCEBgL4FSkZGzR3jsZcodBCAAAQhAAAINBHJCojQM4dEAl2AIQAACEIAABPYSKBUZOXuEx16m3EEAAhCAAAQg0EAgJyRKwxAeDXAJhgAEIAABCEBgL4FSkZGzR3jsZcodBCAAAQhAAAINBHJCojQM4dEAl2AIQAACEIAABPYSKBUZOXuEx16m3EEAAhCAAAQg0EAgJyRKwxAeDXAJhgAEIAABCEBgL4FSkZGzR3jsZcodBCAAAQhAAAINBHJCojQM4dEAl2AIQAACEIAABPYSKBUZOXuEx16m3EEAAhCAAAQg0EAgJyRKwzYiPL776JHq4M231M3a3t6ur89sbWWbKbs3vPFNu5+3v+Nd1dNPH61kf+1119d+NmFBoOpz99fuaUyhOtxx513VR6++prE8tUP1UV45pzrfetvtdZTyk53CbrjxQGUGTWlz+REGgSEQSOeh5lHTONZ41/yN89nrgNK1zcGubY3zLJdGZWgeai7L1k7hrovqH+sYr99/xVXVyWefree6wzWHNfd9n/qK0xzHQWAKBEpFRs5+I8JDE9+T3ptum/DwQiZbTXKlVZgXitiZsmlbBOKiENPrOt7HPBWu8lSuyj958mRdRqyz49oWGC+uyk9CxqJjEYNYF64hMCQCmhdRMOja8zWtZzpHPIfjvE7TyCbO2aZrfyFRetWhabP3HEwFk9M1rQGKdxoJD69Dzi+tN/cQmCqBnJAoDetdeGjxSb/15BYTLxze9OXfd/8D9YR//PEnsuJC30aiGHDHe8HIxdmmbfN3HWwrXwtiLE8LUK4dCvPilItXO9WelEnbAhjrwTUENkVAc6aLyLcosPDQeNfGrfnsuZWbG5o3Oef5lItzWPxy4zD5ubQWQNEud+11xMJD7VD9Fa6P1oO0HV7HcvkRBoExEigVGTn73oWHFxoDb9vwZWN7+RYeOi3QBNeCIecFzXmlk7/tPl0YtDC12SvOC6LK17UXJPmpc/0d7vxdd4UrzPexLU6DD4EhEtCY1fiOLo7lGK5rj+0oPCRANAfjPPSckX0qyBfNTc8jlafrRfYuy+3IpfEXDM9zC497Dx/efXyqOOWhNcguF+Y4fAiMlUBOSJSG9So8tJD4PQdD92SWn3NxYZDw0AKlxUjiQ4ucXJpvuiDmyvACqTh/U4mLVqyL6xDD4nWM9+KqBSgtV3YqS23Qgqh72WjxbWpLLIdrCAyFgEW+xm90cS7EcF17bkThoXmg8e+5ILt4WqFyFK+0dporni8KUx2Ufmvrhd25FeOdTn6aVmFxvYjXzlvzVWXoo2sLjzhvFed1JIod2UcxEuvCNQTGSKBUZOTsexUeOciezPJzzguZFiMvWFqE9LGI0WIRFxrdx8nfdC07O6WP9w6X3xSnOv/pnX8WTes8vNgoP9VfTn68VpzyVd30zUlxWqAUpg8OAmMkoHHcNI+i8NDcjfPDYiMVNLrXfGqaww73nBMzz60cv1xcrIeunaf9phOPuB7lyiIMAlMkkBMSpWG9Cg8tSp7MXXxtwF7IUuGhTd+btW3cyXEhUVhO3Chv2dn5Pl14dLoSv9nYXr7S6BOd7v1MO4b7WnVN03ixPXHy5CXf7pwOHwJDIpDOk0XzWcLgiSeerMe3NuxUeGhOKE+LE80JOfldTzycRvkoP+WVPqrR/NMnOtk7LF7LJq4dvvaJh/J3vZW+iYHzjmVyDYGxEigVGTn7XoVHDrQm7qKN2u92pN8wvHhpUdOiYKfFo2kRiOGys/MCEu8VJic7Xzvei1As1wJCJxipfdPC5DrIXgusPl5AXRY+BMZAwBt9OvZdd4uK+FKpN2XFaT4rbUyvubDfEw/NsbQc10l+jI/Xiovz3Nc54eG1SOWozrb1aWYsj2sIjJlATkiUhm1UeGix0e/pjx49tnt6kesQTWIdd/rI0zZaJCQk4kLluOh7EZDf5JSH8tOiKLu4AHrB1ILihcn2MT+nkV36Lc0LqNLLpXXSvdrn+Jgv1xAYOoE4vrUJa840Oc2TdN46fTrHc3l4nuXiFKY5JBt9UVE9PGcVF+ed5/WDDz20K0xkG7+c6Np1cloJD4shx7nNLjveW/Q01ZdwCIyJQKnIyNlvTHho0r/v8it3FygvAlqAUueFRhM//uEfL2BxYnsBSxeP3L0WD5envJSPw1ym6uIFR74Wlq/ececlQkn2Tqs0aXv0GEVhXrDSUx6VrTrGPFIO3ENgiAQ85zQH5HSfCm/XO84lzznFKVybeDovckIgN5cVJls5+Srff/BP914jYt00H+NJhdPats4s/OO6xxMPRysflZnWTXk15ee0+BAYE4GckCgN6114eJHyN4UIXAuBFh4vYIrTopHaOg9t0l4M2jZs28hvclocYjmqgxcRXcfPn9zxp7uLnOuSW1zSurt9qqsWKZUnQaJ711/5+LqproRDYCgEPE801qPzvIhj2WFKE53SWjjE62gTrz0XY1i8Vr0GD74AACAASURBVHwUMM5TZWh+6d6+bH0f88hdex1pEh6a33LOU9dd886VRxgEhkigVGTk7HsVHprscUFogqqJq0Xii1+6dfdbi229eWtCR6f7t/27d9b2FgxdfC2M+hmev6G57ChCVI4XzVj/prqk9VJeB276gz3CRjZayBSnMqPTvVjhIDBUAppvml/p2E3r6zmiefbZz33+EnuN8yhOlN5z7T9e+3/siv8uc1k23ujlu45xzrp+Ktf2TuO46LsuLl/pFOb1wrZ+tKJ7MdG7HZrbSreIkfPAh8AYCOSERGlYr8JjDFCpIwQgAAEIQAACeQKlIiNnj/DIsyUUAhCAAAQgAIGEQE5IlIYhPBKo3EIAAhCAAAQgkCdQKjJy9giPPFtCIQABCEAAAhBICOSERGkYwiOByi0EIAABCEAAAnkCpSIjZ4/wyLMlFAIQgAAEIACBhEBOSJSGITwSqNxCAAIQgAAEIJAnUCoycvYIjzxbQiEAAQhAAAIQSAjkhERpGMIjgcotBCAAAQhAAAJ5AqUiI2ffi/DY2dmpTp06Ux0/foIPDBgDKxoDmlOaW3075jPrGGv5asfApubyMmtHTkiUhvUiPAR1a+vsMm0kDQQg0EBAc0pzq2/HfO6bOOVNncCm5vIyXEtFRs6+F+EhdYyDAARWT2ATc2sTZa6eHDlCYFgExjKvckKiNAzhMayxR20gUERgE4vVJsosgoIxBEZIYCzzqlRk5OwRHiMcoFQZAiawicVqE2W6vfgQmCqBscyrnJAoDUN4THUU065ZENjEYrWJMmfRmTRy1gTGMq9KRUbOHuEx66FO48dOYBOL1SbKHHs/UX8ILCIwlnmVExKlYQiPRaOBeAgMmMAmFqtNlDngLqBqEFgJgbHMq1KRkbNHeKxkyJAJBDZDYBOL1SbK3AxdSoVAfwTGMq9yQqI0DOHR37iipA0ROHTLF6p7vv6NDZW+3mI3sVhtosz1UiT3MRDQPD5y5LFqe3u7uvHATdXRY8fGUO3OdRzLvCoVGTn7QQoPDazrrv9k9ea3vLX+aMDhILCIQG5B2traqseS/CG6P/rSlyt9lnWbWKyWKTPXN8u2mXTzIyDBoT1B40guvR8Kkf3M52Xm1SbanRMSpWGDFB4SGhYb2jAuv/JDk/3GuomBM+Uy9S3oA1d+cPfbkBYoC9jU9xjbJI/9LFSq9yYWq9Iy1SfvfPd76s/UvqVucuzMpWztAVdf84ndOa12+8vp0E4y9zOfS+fVpvq/VGTk7AcnPNKNQ3A1uKLa3RRwyh0HAY2h277yx61HshpTQ1i09rNQqTc2sViVlCnhpy8Ox44dv2TzGMdoopabJGCBoXGUOn8pzcWltn3d72c+l8yrvtqTKycnJErDBic8NIhSkeHFa6jH5bnOIWzzBKK40NjRuJI/pGP//SxUIryJxWqZMsU9/da6+RFCDYZMQGNm0Wm3bYZweimW+5nPy8yrTfRfqcjI2Q9OeORON/QNVouWBhkOAosISFjcedef7z4Pln0cQ7rWy2myK3Vf/PKtVZdPU75emOx/+Hc+Uunje/tN6dPwTSxWy5SJ8Eh7jvtFBCQmNE/1mC59TBrv9cVUtukX1kX5K77LXJZNk/N8tb+f+bzMvGqq1zrDc0KiNAzhsc4eIu+NEPBCFAtXmBYr+ftxQ1qo1I5NLFbLlInw2M+oI23ulFJhEhv7mdNDms/LzKtNjIxSkZGzH5zw0CBKlavCdOTGiccmhtm4yswtUGqB3vk4/M2/qf0htcjflJat0yYWq2XKRHgs28OkEwGNHz8qNZFVCA/ntSp/P/N5mXm1qnqX5JMTEqVhgxMeOgaPv0oQED1+GcozvJIOwrZ/AhKp6UujCvP4ka/7obj9LFRqwyYWq2XKRHgMZcSNsx5xDrsFTV8yHL8Jfz/zeZl5tYk2loqMnP3ghIdVrDcKLVg67RjSZrGJzqbMxQQ0djRuNGbsNG7iaVnum5NtN+HvZ6FSfTexWC1TJsJjE6NrGmU27QFDHFP7mc/LzKtN9HBOSJSGDU54CKQHml8gQnRsYniNr0ydlulxip1ESPrYTnG5UzWn6dvfz0Klum5isVqmzCFuEn33NeWVE/BekJ5iKqf0S0V57qtPsZ/5vMy8Wn0LFudYKjJy9oMUHoubjgUEmgm0LVZONSTx4Tot429isdpEmcuwIc24CUhY6Bctmqt2EiD+Qio/J0hsOzZ/LPMqJyRKwxAeYxud1BcCgcAmFqtNlBmazCUEJklgLPOqVGTk7BEekxzCNGouBDaxWG2izLn0J+2cL4GxzKuckCgNQ3jMd5zT8gkQ2MRitYkyJ9BVNAECrQTGMq9KRUbOHuHROhSIhMCwCWxisdpEmcPuBWoHgf0TGMu8ygmJ0jCEx/7HCzlAYGMENrFYbaLMjQGmYAj0RGAs86pUZOTsER49DSqKgcA6CGxisdpEmetgR54QGBKBscyrnJAoDUN4DGnkURcIFBLYxGK1iTILsWAOgdERGMu8KhUZOXuEx+iGJxWGwEUCm1isNlHmxRZzBYFpEhjLvMoJidKwXoTHqVNnqq2ts9McLbQKAhsioDmludW3Yz73TZzypk5gU3N5Ga6lIiNn34vw2NnZqRdIKTo+MGAMrGYMSABobvXtmM+r6T/mARw9BjY1l5dZO3JCojSsF+GxTONIAwEIQAACEIDAsAiUioycPcJjWH1KbSAAAQhAAAKDJZATEqVhCI/Bdi8VgwAEIAABCAyLQKnIyNkjPIbVp9QGAhCAAAQgMFgCOSFRGobwGGz3UjEIQAACEIDAsAiUioycPcJjWH1KbSAAAQhAAAKDJZATEqVhCI/Bdi8VgwAEIAABCAyLQKnIyNkjPIbVp9QGAhCAAAQgMFgCOSFRGobwGGz3UjEIQAACEIDAsAiUioycPcJjWH1KbSAAAQhAAAKDJZATEqVhCI/Bdi8VgwAEIAABCAyLQKnIyNkjPIbVp9QGAhCAAAQgMFgCOSFRGobwGGz3UjEIQAACEIDAsAiUioycPcJjWH1KbSAAAQhAAAKDJZATEqVhCI/Bdi8VgwAEIAABCAyLQKnIyNkjPIbVp9QGAhCAAAQgMFgCOSFRGobwGGz3UjEIQAACEIDAsAiUioycPcJjWH1KbSAAAQhAAAKDJZATEqVhCI/Bdi8VgwAEIAABCAyLQKnIyNkjPIbVp9QGAhCAAAQgMFgCOSFRGobwGGz3UjEIQAACEIDAsAiUioycPcJjWH1KbSAAAQhAAAKDJZATEqVhCI/Bdi8VgwAEIAABCAyLQKnIyNn3KjwO3nxL9YY3vmn3c/fX7rmEqMJk8/Z3vKt6+umjl8TnApQm5nVma6u69rrrK/l2qY3Do7+9vV2pjkqX1tX1Vr6y6+KUx3cfPbJrqmunV9vURucb/ZK272bOBQQgAAEIQGDNBHJCojSsV+FhHtp033f5lbWwSDf4KCC0wWujjptyjHd+qahYVnikQsH5p77yf/8VV+2pVxQYts/lF8WH7aKvNt9w44HOoium5RoCEIAABCCwTgKlIiNnvxHhoQ25SUDEDTzdhFOBYbgxPBUyt952+yUiQULGJw/KwwInVyeXEf1U2OQEhuxjuMSWBIXKanNpm9tsiYMABCAAAQj0SSAnJErDehce6Td+3WuDltPGv0h4NAkJn4oofSoMlHebCIhx8bqpM9P8leaOO+9qfXTyrW/dtys8co9Z/HgF4dFEnXAIQAACENg0gVKRkbPvVXj4EUUUF6nwsIDQRvzEE0/ueewQTzYi/DTcwuDew4d3hUwUFE2nD66L8nM9cv5X77hzzzskMe9Yrxgey4zXso9iI17HvLiGAAQgAAEIbJpATkiUhvUqPLSxx43cJxzaoOV8b7DahHPveKRCI71XfipHvjZ5nZI0iQCXJbuPXn3NnhdSHZeKAQuo2BaLFvl2TWWqrPTFUk48TA0fAhCAAASGSqBUZOTsexUeEaRFhjdsxTnMdumGb4HRFi6hopMO+RII+vgxiDZ8OfnxfQsLIr0wKvvUpeXJxvnL1gKjKTwtMy0/5h+v03pwDwEIQAACENgkgZyQKA3rVXhYOAiaTiG0AS8jPJQ+bt4xX8WlAkD3EhU+VYhpvdGrHlFMxI61jdLl8rfwUFxsTwyPZcZrpYn5x+u6MP6BAAQgAAEIDIRAqcjI2fcqPLTh6me0OpHwiYNPG+JjC1//+V/8l3294yHBISdhIhFgQaIyVf6Jkyd3xYbjnCb2cSoGUtsoMGK6GB7Fhq551BJJcQ0BCEAAAmMgkBMSpWG9Cg9BlQiQsJC/yGnD1ymEhUhTurYTD4kEnXZIbNhZOFiAqByHyU9dTniU/h2PVHhYeC0qK43nHgIQgAAEILApAqUiI2e/MeEhEaETgTaXbvipwHDaNDyKCJWRluN89e6H42Ia52s/jUvvlUcUNk4Xw6PwcHzOd91kj4MABCAAAQgMiUBOSJSG9So8tBF7oxdICYZ4mpFeR9sUvDZ62/vdDdkojUWNbHRios08dSo7pkvFRMxL+TXlk8vX9Yovqy4SHq53SVlp2dxDAAIQgAAE1kmgVGTk7HsVHuuEQd4QgAAEIAABCKyXQE5IlIYhPNbbR+QOAQhAAAIQmAyBUpGRs0d4TGY40BAIQAACEIDAegnkhERpGMJjvX1E7hCAAAQgAIHJECgVGTl7hMdkhgMNgQAEIAABCKyXQE5IlIYhPNbbR+QOAQhAAAIQmAyBUpGRs0d4TGY40BAIQAACEIDAegnkhERpGMJjvX1E7hCAAAQgAIHJECgVGTl7hMdkhgMNgQAEIAABCKyXQE5IlIYhPNbbR+QOAQhAAAIQmAyBUpGRs+9FeOzs7FSnTp2pjh8/wQcGjIEVjQHNKc0tHAQgAIG+COSERGlYL8JDC+TW1tm+uFAOBGZBQHNKcwsHAQhAoC8CpSIjZ9+L8NBJBw4CEFg9AebW6pmSIwQg0EwgJyRKwxAezXyJgcDgCSA8Bt9FVBACkyJQKjJy9giPSQ0JGjM3AgiPufU47YXAZgnkhERpGMJjs31I6RDYFwGEx77wkRgCECgkUCoycvYIj0LomENgSAQQHkPqDeoCgekTyAmJ0jCEx/THCS2cMAGEx4Q7l6ZBYIAESkVGzh7hMcCOpUoQ6EoA4dGVFHYQgMAqCOSERGkYwmMVPUEegyRw9Nix6sYDN1Xb29vVkSOPVYdu+cIg67mfSiE89kOPtBCAQCmBUpGRsx+k8NBGcd31n6ze/Ja31p8pbhilnY19GQGPIQkOufS+LLf1Wf/Rl75c6bOsQ3gsS450EIDAMgRyQqI0bJDCQ0LDYmNra6u6/MoPVfd8/RvLMCLNTAlovHgMGYFEiMaSxtRQHMJjKD1BPSAAgS4ESkVGzn5wwkPH4x+48oOVfDttIjoB0bdWHAQWEZDAaBovQxtLCI9FvUk8BCAwJAI5IVEaNjjhkds0hvhNdUgDgbpcJCBhsehUQzbvfPd79ojbizn0e4Xw6Jc3pUEAAvsjUCoycvaDEx65b6Q6/bj6mk8M6oh8f11H6nUQ8DiJ7wf5PaHoK/7xJ56sxYdEbYn74pdvrbp8mvK00LD/4d/5SKWP7+03pU/DeccjJcI9BCCwTgI5IVEahvBYZw+R90YJSFTk3vNoegzTpbJdRIdsmpyFhX2ERxMpwiEAgSESKBUZOfvBCQ8etQxxqI2zTjo90ye63PiK8X1fW4AsWy4nHsuSIx0EILAMgZyQKA0bnPBoerk0/ea6DDDSzIeAXkTW3/CILymr9blTkE1SQXhskj5lQwACpQQsMr797W9XpR+nHZzw8N9bsNDwz2m1YeAg0JVA7l0hpVW4x1bXvNZph/BYJ13yhgAEVk3A4qFUdMjeaQcnPATJYsMvBCI6Vj10pp2fxEXuly0Wtenjl03SQHhskj5lQwACpQQsHiYnPEpBYA8BEbCwiCcaqYjNCZIx0+MdjzH3HnWHwPgIIDzG12fUGAIrJYDwWClOMoMABBYQQHgsAEQ0BKZOAOEx9R6mfRAYFgGEx7D6g9pAoHcCCI/ekVMgBGZNAOEx6+6n8RCoKoQHowACEOiTAMKjT9qUBYEBEkB4DLBTqBIEJkwA4THhzqVpEOhCAOHRhRI2EIDAqgggPFZFknwgMFICCI+RdhzVhsBICYxGeJw6daba2jo7UsxUGwLDJKA5pbmFgwAEINAXgdEIj52dnXqB1LczPjBgDKxmDEh0aG7hIAABCPRFYDTCoy8glAMBCEAAAhCAwPoIIDzWx5acIQABCEAAAhBICCA8EiDcQgACEIAABCCwPgIIj/WxJWcIQAACEIAABBICCI8ECLcQgAAEIAABCKyPAMJjfWzJGQIQgAAEIACBhADCIwHCLQQgAAEIQAAC6yOA8FgfW3KGAAQgAAEIQCAhgPBIgHALAQhAAAIQgMD6CCA81seWnCEAAQhAAAIQSAggPBIg3EIAAhCAAAQgsD4CCI/1sSVnCEAAAhCAAAQSAgiPBAi3EIAABCAAAQisjwDCY31syRkCEIAABCAAgYQAwiMBwi0EIAABCEAAAusjgPBYH1tyhgAEIAABCEAgIYDwSIBwCwEIQAACEIDA+gggPNbHlpwhAAEIQAACEEgIIDwSINxCAAIQgAAEILA+AgiP9bElZwhAAAIQgAAEEgIIjwQItxCAAAQgAAEIrI8AwmN9bMkZAhCAAAQgAIGEAMIjAcItBCAAAQhAAALrI4DwWCHb7e3t6uDNt1Rntraq7z56pLr7a/fs5q5wheEgAAEIQAACcyYwWuHx9NNHqxtuPFBps9dG//4rrqre8MY37fkoTHFdnERCFApKI6EgwWDXJB5Uh2uvu35P2Wld0nvZKx0OAhCAAAQgMCcCkxAe7rAoFHz6cPLZZy8RBanAUPpUeFhMxFOKJuGh9BY/0d71UjqLoFhHx+NDAAIQgAAE5kJgdMJDG3d6euBTiSgeJAR0qiDhoZMRnZDIRZvYyWm47tNycvc+uVAdcvEWIipfNrEusXyuIQABCEAAAnMgMDrh4U6Jj1oUpvuPXn3N7qMVx29tvbBns5eguPW227OPZiwc/vbvvlXnpTyik3CwkIjhvla+SqPPvYcP1yLH9j4R8cmH0+BDAAIQgAAE5kRgEsIjPhaJJyISGYqLpwzpyYY7uync8fJLhMfb3/GuSp/3XX5lnU7XEiQWIMoLBwEIQAACEJgbgdEJD23YPpmw78cduc6zKLGtfIsM+XYO032ujJg+vZZ9aZq2OrtO+BCAAAQgAIGpERid8HAHpCcZ8aTDwkCPNZre8UjTR+HhMvAhAAEIQAACEFgtgdEJDwuGxx9/Ys8jFAmPeILR5eVSPfrwT3JT4eFHIhYxOT99X6NLGk46VjuAyQ0CEIAABMZFYJTCQ481Tpw8ufszWQkAv8xp/F2Eh23l54SHRILyyTnn3xSfS0MYBCAAAQhAYO4ERic8tNFLaNxx512XnHikpxJ+1CIBEePiyYgHwCqEh+sWy0qvOfEwcXwIQAACEJgjgdEJDwkEbd4SFf6lSFvH+dGMHqvIpQLDadPwLiJCdYgnHrpuOyWJj3ZcLj4EIAABCEBgTgRGJzz8tzLUSRIL6YlCeq/HMk0uvpCaiphFIiIXrzCJkbQO8Z4Tj6beIBwCEIAABOZAYHTCYw6dQhshAAEIQAACUyWA8Jhqz9IuCEAAAhCAwAAJIDwG2ClUCQIQgAAEIDBVAgiPqfYs7YIABCAAAQgMkADCY4CdQpUgAAEIQAACUyWA8Jhqz9IuCEAAAhCAwAAJIDwG2ClUCQIQgAAEIDBVAgiPqfYs7YIABCAAAQgMkADCY4CdQpUgAAEIQAACUyWA8Jhqz9IuCEAAAhCAwAAJIDwG2ClUCQIQgAAEIDBVAgiPqfYs7YIABCAAAQgMkADCY4CdQpUgAAEIQAACUyWA8Jhqz9IuCEAAAhCAwAAJIDwG2ClUCQIQgAAEIDBVAqMWHi+++GL185//vPrRj35U/eAHP6i+//3v159/+Id/qH74wx9Wjz/+ePXkk0/W8T/+8Y8rfX7yk58s/PzTP/1Tdfz48erZZ5+tXnrppan2Pe2CAAQgAAEI9E5glMJje3u7OnbsWCWB8cQTT1TPPPNMLRB2dnYqfSQWFKY42UiAPPXUU7Xw6Co+okCRuHn55Zd77xwKhAAEIAABCEyNwOiEh045JCQee+yx+rTj9ddfr/RJncJee+212ka2//iP/1iffpScfETxoVMQTj9SytxDAAIQgAAEygiMSnjopEOi48iRI9Xp06ezgiNtvgSIbJVG4sMnH1FUdL2W+ODkIyXMPQQgAAEIQKA7gVEJDz1e0enFz372s06iwxgkPpRGaSVc9E7IMo9cJFD02AUHAQhAAAIQgMByBEYjPPSIRe9r6CXS3KOVRc3XYxelVR564XRZ4SHxwSOXRbSJhwAEIAABCOQJjEZ46KRBj0t++tOfLiU8JFaUVnn41KPrI5bUTr92wUEAAhCAAAQgUE5gNMJDj0f+/u//vjp79mx5K/8lhdIqD/3Udj/veuintjgIQAACEIAABMoJjEZ4SCw8/PDD9c9ly5t5IYV+aqs89LhlP8JDL5niIAABCEAAAhAoJzAa4aE/Dvbggw8u9ZjFWPS4RXkor/2+5+E88SEAAQhAAAIQ6E5gNMJDpxQPPPDAvk88lMd+hQcnHt0HGJYQgAAEIACBSGA0wkMnFDqtUIWXdUqrPPb7yxbe8Vi2B0gHAQhAAAJzJzAa4aFfpOj9DG36y/ycVmn0d0CUh35Wu593PPhVy9ynDe2HAAQgAIFlCYxGeKii+kWKPvqbHKVOaZx+v79q4e94lNLHHgIQgAAEIHCBwGiEh6qrP/p1//33V08//XTRqYdOO5RGafXXS/Wfx+nnuenf5+hyz18uZepAAAIQgAAElicwKuFx/vz5+tTib//2b6uTJ092Eh8SHbJVmu985zv7eszC/9Wy/EAjJQQgAAEIQEAERiU8VOEXXniheuSRR6pvfvOblYSAHqHk3vlQmOJkI1u926Ffs/i0o/RPpisfHrEwaSAAAQhAAAL7IzA64aHmnjt3rv6fZnWKoZ/HShRIkOgPhOmja4UpTjYSHd/73vfqP5W+zEulerzC/0q7v4FGaghAAAIQgIAIjFJ4uOvOnDlT/zrloYceqk81/uqv/qr667/+6+ree++tBYeEh14o1UmH/n+WrqJDokW/ntGvVzjlMG18CEAAAhCAwP4JjFp47L/55AABCEAAAhCAQJ8EEB590qYsCEAAAhCAwMwJIDxmPgBoPgQgAAEIQKBPAgiPPmlTFgQgAAEIQGDmBBAeMx8ANB8CEIAABCDQJwGER5+0KQsCEIAABCAwcwIIj5kPAJoPAQhAAAIQ6JMAwqNP2pQFAQhAAAIQmDkBhMfMBwDNhwAEIAABCPRJAOHRJ23KggAEIAABCMycAMJj5gOA5kMAAhCAAAT6JIDw6JM2ZUEAAhCAAARmTgDhMfMBQPMhAAEIQAACfRJAePRJm7IgAAEIQAACMyeA8Jj5AKD5EIAABCAAgT4JIDz6pE1ZEIAABCAAgZkTQHjMfADQfAhAAAIQgECfBBAefdKmLAhAAAIQgMDMCSA8Zj4AaD4EIAABCECgTwIIjz5pUxYEIAABCEBg5gQQHjMfADQfAhCAAAQg0CcBhEeftCkLAhCAAAQgMHMCCI+ZDwCaDwEIQAACEOiTAMKjT9qUBQEIQAACEJg5AYTHzAcAzYcABCAAAQj0SQDh0SdtyoIABCAAAQjMnADCY+YDgOZDAAIQgAAE+iSA8OiTNmVBAAIQgAAEZk4A4THzAUDzIQABCEAAAn0SQHj0SZuyIAABCEAAAjMnMFrhcWZrq3r/FVdVB2++ZbcLv/vokfre/m5EVVUKu/tr98Sg+lphuXBFqoyPXn1N9fTTR/ekc9lveOObqre/41174re3t6trr7u+Lm9PIm4gAAEIQAACEKhGJzwkErTh66Nrb/QOS32JEwmFJuFhEaH41FnAyI/5Os/UXvcSQtE2vZYoUZ1xEIAABCAAgTkSGJ3wUCdp49YGL9FgJ3EgQXDv4cO7pyCK10afCo9F4sAiRHa+djkxT4fZl/37Lr+y/qSnJLrX6Uian9PiQwACEIAABOZAYPTCwyce2vTlvMH7pOH3PvX79Ybv+/hoJD5mSQWF8tFjFoVHl9o5TuX7kY3rFE9kOOkwKXwIQAACEJgzgdEJD23wFhHyJSQ+8rGP73nPItehUWQoPr1Xvj6NsHDIPVJpEh6xTNkobawnwiMS4hoCEIAABOZKYHTCQx0VTyMsEuIm7+sbbjxQP3qJNj6ZsI19hdtJlEgo+DGNw+XnhEcqNHKCJT2JURk4CEAAAhCAwNwIjFJ4aNO2YLjv/gcqCQxt7KlTmOIefOih+r0Pn3LETV+nHD6NsKi49favVEePHqvD5aenFy7bvtPH8l22RA8OAhCAAAQgAIELBEYnPCQOJCb0OXHyZC0otPFbBKT+V++4sxYQeuk0Cg41X/cWDT618OMWixD50bWFLxIoqls8WYn5cg0BCEAAAhCYA4HRCQ9t3DrlkG9RoGsLBneaThokTr71rfvqxy2Kt/BQOokEiwDfxzzaBIbEist2eamfq5NOQW697fbUlHsIQAACEIDAbAiMSnhITNxx5131pp8Kj/SkQ/fxFywWHtr89ZNX+XISI067KuGhfHySEkeSwi12YjjXEIAABCAAgbkQGJXwcKdIgKTCI4oG2fnEwwJD8T7xULzCJUwsEHzqYZtlTjxUpvJznq6vfeXt/B2GDwEIQAACEJgTgckID59aRD934mFxkPvlieMkUqLwkMiJ+abXipegiOVpEDk/2+fKnNNgo60QgAAEIACBUQoPug0CEIAABCAAgXESQHiMs9+oNQQgAAEIQGCUBBAeo+w2Kg0BCEAAAhAY21PEXQAAIABJREFUJwGExzj7jVpDAAIQgAAERkkA4THKbqPSEIAABCAAgXESQHiMs9+oNQQgAAEIQGCUBBAeo+w2Kg0BCEAAAhAYJwGExzj7jVpDAAIQgAAERkkA4THKbqPSEIAABCAAgXESQHiMs9+oNQQgAAEIQGCUBBAeo+w2Kg0BCEAAAhAYJwGExzj7jVpDAAIQgAAERkkA4THKbqPSEIAABCAAgXESGI3w2NnZqU6dOlMdP36CDwwYA4wBxgBjYC1jQPuM9puce+qpneo//Ifz1fnzr+eiq69+9ZXqssvOLPy87W0vVqdPX8xD+b73vS/tCVMBCv+1X/tlnV/XNNmKJYGq56c+tZ2E9nc7GuGhwbC1dbY/MpQEAQhAAAKzI6B9RvtNVxFhofHAA69ewkoCRRt8FBmXGFVVXZbKS8v87d8+lxU5yk9CxGXnfOXV5Jw+V+emNKsMH43w0EkHDgIQgAAEILBuArn9RqcPv/VbL1USA3/4h9tZQZAKh5wgUJhOMZSfnMSJTlF877bpPne6YtHguqSnL6pDPB2xfVNdYnisl+uxDh/hsQ6q5AkBCEAAAqMlkAoPbeYSHN/73gUxIP/f/tsXLxELscHa8JVGfpvTqUPuZCMnPJSXHslYpMh3PXQt4ZCedCiNTl1SgZLWqUkApXaruEd4rIIieUAAAhCAwGQIWHhIFOhEwJt5FAPaqCUYLBq88ccThLZriYRHHnm1Pp1wHhFgLCuGx2vXL5bjuka7oV0jPIbWI9QHAhCAAAQ2SkDCw6Ji0bsU3vTjhq/rpvcnFGdbnUTocUrukUpOeKRCI/eCqPJ2nSRubrppe/fe4W2+67bODkB4rJMueUMAAhCAwOgI+MRj0WMKiQO972En+y5CRZu7Tky++MWX9zy+kVBoEwVNQmMZsaC8msSR27MuH+GxLrLkCwEIQAACoyQQhcciIWExoE3cL3W2beoSCVEo5E42BK0pPD31aBIqqajQfSy3rY7r7jSEx7oJkz8EIAABCIyKQBQe2qCbXsxMTzzcSKVpEgQKjwKgSWA0hbsM+Tph0SMh+dEp/1R4pEIjV8fcuyYx31VdIzxWRZJ8IAABCEBgEgSi8Oh64hEbnm7yMU6iYFXCQ+XEvFxOWr5EjB7jKNwutXF4Hz7Cow/KGy7jyJHHquuu/2S1vX1x0On6xgM3VUePHdtw7fZf/NbWVt0++fF6Uc73fP0bl3BJ0yi/Q7d8YQ872Yjp5Vd+qC7PaRT25re8dfej/O2Uj+xlg4MABIZNwMJj2VpqU1/niYeFRE50pD+L9a9v9D6JX5hVGMKjQ+/udyB0KGIlJtqk9OnqvFm9893vWUoESDhIQERRkZat+qQbnu5L6pnmuer7LhuzNvJcnaPYiNeL6ijbq6/5RCt32ajMHF/VJ4qLWF4ap/sPXPnBujzliYMABIZLQPuNNuk28ZDGRRHQtqnLLtr6kYofm6T5xvvbb7/w90TSRyIWIrZV+Xa6juXp2nY5P6Z1Hqv2OfHoSFSbT27TS5N3tVM6bUAl34K1ecVv1G3XEjL/8IMf1PlHO598qJ4xXNdNm2jaxtL7Lky6sFD9lJdtY/19+tAU9+1v33dJe2P6eB1FoPJTmRIeEnmKi7bxWmLutq/8cW2nulrsyTf3eF3KEXsIQKAfAhIeuU15DmFXXPHS2iEjPDoi7rJ5dsxq10wbmb4F7+dxR9uJhzZNbXjy5byJPv7Ek5eckmij3KTw2IXScmHhkZrEdsbraKcNX324yPkR1JNPPVWzi8KiCx8LD5WlMvWxKHLZuTDH4UMAAuUEXnnller06dOVNrScO3v2bPX8889Xr7566f+nkrMfywl7ru5jCJu08NDi743Dm0YqILRRxVMHbQpOI1ttRNq8HSZfNk0u5i87pX3gwYd20yteLpajPP2N2PVxeXHTSuNsk/NVTroJ616PZVRWKnbEx4zSNru9sW1qg+vj+Ngm2ab5qJ62TfmleaWMxEGbuvnF9LGd8TraxGvXy+2VH085oq04fezj/35XqKVpVR+3SXG6Vx1U18Pf/Jv60Yqu0z6S4Nyv6Iz15BoCcybw2muvVadOnaqOHj1avfjii3tQ6P7YsWPVc889V73++t5ff+wxDDcIjwBjDZeTFB7eHLyZi5s2f20I2hji5qUwCw9tMnEz0MmAN+g0XVNfRDtvxC5PeWmD80aVlue6eENUGbqO4iMtV3k0veOh/MRAvpx81cUbpOvhclSW6+A6K04bqNPEcNsqn7QtpexiXipTeUYxYHauv9oVN3Mzcj4xzuPA4yLmq7LkmuLuvOvPa75qj4VP7B+lVZ0iO5edK+dCafwLAQismoBOPX7605/WIuP8+fN19vIlOhSu+K4O4dGV1HJ2kxQe2qT00qA2odRpk2jbPKMwiGnTdDEuXkc7bZ7eEG2jeG9c6WatcG+StveG+PDDj9Rx3tS6+Hfe9Wd1+dHW+Ttf10W+PqqzbVwH+7FtCvMmb+GxH3YxL+UdObl81U/hqVNa1Vl+vI52StdFCEQuystlKlzXEh8uS/mblwSKru1cD4VJGJ48+exuOuWlMPU/DgIQWB2Bl19+uRYZx48frx+tyJfoUHiJQ3iU0Cq3naTw8GagBT51bZunbJXWG7U2Grs0ncNTP9rl6qF455sTHoqPLm6EMVzXyl/22gy9iUV7b37y5eTL3lzkewNUnZSf/LQOLlfhMU75+bTI9VmWXczLbVB9omuqm9JaDMTrmFbXLsN1zPlRKIqrGZuZ8hED1SVXT/WDBI7qo48EhxkrnfKTjcJinmlduYcABJYjYPHxwx/+cCnRoVIRHsux75pqssIjbiARxqLN07beQLz5pelsl/rRTmm1+cQNRvHatORURny0o/DUPre5KW0sJ26o8Vt9ugnrXulifVx/la365upgm1imwlyuGdluGXYxL7fZnJxvWr7DYzvjteOb/DZb1UGPmGSTMlOYTtR0yhH7K7KLeSu9GOmja9mlbWuqI+EQgEA5AYkPbW6lJx0uCeFhEuvxJyk8vHFpkbfzOx5a8KMo0b2++Xpj8CbqPHyvvGJ+zjf1o53Sxo1Jtor3ppMKD21WqpvjZa/rmIfyVH1jObJzfWMd4+YnG90rXrapU7jyztXB73ioLuti53LNOy0rttvX8cTC9XI+Mc79m7ZZtmIrv8kpLsdMdXCZubQxb9m6X8Re121l5vIjDAIQKCPQ9UXSXK4IjxyV1YVNUngIjzdib0DezNNwHadrA9HmkMZ5s1B+/hbftIm5S5TG6ZRnFA2yUZzrkgoPxWtDUn1cb6d33WLeulYZso3hTtv2jofrK995K69cHRxuO+e/SnZut8tSPdQmlyUOOmFwO+uK/ss/cZOP19Emd93FVjYqU22X8zhQffTCqU6YcnWSXe5xitqXs8/VjzAIQGAzBHLCQ3/g673vfan+z9s2U6vplDpZ4TGdLsq3ROIlCo6cVbqxxk3UG2jc2L255vIaclhsZ7yOddaG77Z28S2AzEzvakgQ5k45nLf6xP2iMvwopqk8i8pYT64hAIHNE7Dw8F8V9X8St+h+8zUfRw0QHuPoJ2oJAQhAAAI9EbDwyJ1yxD95nv5X8z1Vb/TFIDyW6ML4rTZ+m/W35CWynE0S2M2mq2koBEZLwMJDDUj/r5PYKMWl//18jOc6TwDhkedCKAQgAAEIzJRAFB7p4xUjUbje+dCpCK6MAMKjjBfWEIAABCAwcQJReKipuZON+Mhl4jhW3jyEx8qRkiEEIAABCIyZQCo80tON9H7Mbd1E3REem6BOmRCAAAQgMFgCqfBQRXXCoZMPPVp529te5N2OffQewmMf8EgKAQhAAALTI5ATHmqlhMdll52pRcj0Wt1fi0YjPE6dOlNtbZ3tjwwlQQACEIDA7Ahon9F+kzqLjt/6rZfqEw9eKk0Jdb8fjfDY2dmpB4OUKB8YMAYYA4wBxsA6xoBEh/YbOwsOPWqx8+OWX/u1X/KXTA2lwB+N8ChoE6YQgAAEIACBpQnoL5X+9m+fqx+rtP2djmgXhcnSBc8kIcJjJh1NMyEAAQhAoBuBr3zllVp06H2Orp/773+1W+ZY1f9zsMTHt7/97eKPRcvW1rnq4MGD1aFDh6rLdIODAAQgAAEIQAACOQIWDwiPHB3CIAABCEAAAhBYKQGEx0pxkhkEIAABCEAAAm0EEB5tdIiDAAQgAAEIQGClBBAeK8VJZhCAAAQgAAEItBFAeLTRIQ4CEIAABCAAgZUSQHisFCeZQQACEIAABCDQRgDh0UaHOAhAAAIQgAAEVkoA4bFSnGQGAQhAAAIQgEAbAYRHGx3iIAABCEAAAhBYKQGEx0pxkhkEIAABCEAAAm0EEB5tdIiDAAQgAAEIQGClBBAeK8VJZhCAAAQgAAEItBFAeLTRIQ4CEIAABCAAgZUSQHisFCeZQQACEIAABCDQRgDh0UaHOAhAAAIQgAAEVkoA4bFSnGQGAQhAAAIQgEAbAYRHGx3iIAABCEAAAhBYKQGEx0pxkhkEIAABCEAAAm0EEB5tdIiDAAQgAAEIQGClBBAeK8VJZhCAAAQgAAEItBFAeLTRIQ4CEIAABCAAgZUSQHisFCeZQQACEIAABCDQRgDh0UaHOAhAAAIQgAAEVkoA4bFSnGQGAQhAAAIQgEAbAYRHGx3iIAABCEAAAhBYKQGEx0pxkhkEIAABCEAAAm0ERic8zmxtVQdvvqXa3t6u23X31+6p3vDGN2U/77/iqkr2dk8/fbS69bbb6zDF5dIpPzmlu/a66/ekV9x3Hz1Sx+vats4/56uequ+Jkyfr/HSNgwAEIAABCMyVwOiEhzpKm3/pBp4TEm2dHu0lMHIixWFtdbHwsACSrcVLW/nEQQACEIAABKZIYJTCQx1RsoHrpON9l19Zye/qovBwmqYTD+X79ne8q1WcWKTY73Ja4nLxIQABCEAAAlMhMFrhoQ7QyYE38ib/wE1/sPvIJCcmch0pURPz0yOXpkczivNjn1xeirvhxgNFoieXD2EQgAAEIACBKRAYnfCwKEg3fJ0gKK7NKf6++x+ohUgUFvFaJxc6wZCo8TsiTYJF4cqzTXioPnqvpOS0pa0NxEEAAhCAAATGTGB0wkOw0w0/CoN4HTumTZhIFOhUIgoICQqJEAmco0ePLTzxUP5RwPha+ejDex2xN7iGAAQgAIG5EpiE8NCmHzd23etjp41fQkB+zqXCw+JF74Xce/hw9ZGPfbz66NXX7PmFi/JJBZDDJFYUZ5fWx+H4EIAABCAAgbkRGL3wkGjQo4zo4nsVFhV6xNJVeEgoKE8LCImIru94WLRE4SFR1FR2rDfXEIAABCAAgakTGL3w8GmGH21EP272bZu/xYkfteiUw393IwoIDYac0ImDJCc80rC2usS8uIYABCAAAQhMjcAohUcqFHKdIhEh4WHh0LbZ5/KzWLAAiYImvY4Cx+lcrusmGz/+4dGLqeBDAAIQgMDcCIxOeEhA6KVPvQya/rKlrfPahEcuLicgJFD03scdd97V+OhE6eJjGf9KRml17V/VqEwcBCAAAQhAYG4ERic84k9TtXmnpw/pvU8jUnGRCgSfRngAWHjEX7REoRPL/uznPr/7E13/BNf5RN9pYj4xnmsIQAACEIDA1AmMTnhMvUNoHwQgAAEIQGDKBBAeU+5d2gYBCEAAAhAYGAGEx8A6hOpAAAIQgAAEpkwA4THl3qVtEIAABCAAgYERQHgMrEOoDgQgAAEIQGDKBBAeU+5d2gYBCEAAAhAYGAGEx8A6hOpAAAIQgAAEpkwA4THl3qVtEIAABCAAgYERQHgMrEOoDgQgAAEIQGDKBBAeU+5d2gYBCEAAAhAYGAGEx8A6hOpAAAIQgAAEpkwA4THl3qVtEIAABCAAgYERQHgMrEOoDgQgAAEIQGDKBBAeU+5d2gYBCEAAAhAYGAGEx8A6hOpAAAIQgAAEpkwA4THl3qVtEIAABCAAgYERGLXweO2116pXXvlV/dE1bj0ETp+vqu8/e+GjaxwEIAABCEBgWQKjEx6vv/569dJL56tf/GKreuaZU9Vzzz1ff3StMMXJBrc/Aud+VVV/+VRV/fb/V1X//X+uqvfefeGja4UpTjY4CEAAAhCAQAmBUQkPCYozZ35ZPfvs6Wp7++VL2qkwxcmmRHxsbW1V113/yUq+3KFbvlC9+S1vveRz+ZUf2rWJhR89dqy6+ppP1HH3fP0bdfoYr2vZ3Hjgpmp7e3s36rav/HEdrgCVeeTIY7txTRfKx+ne+e73dErTlFdT+Ms7VfWp+6vqPX9RVff99FIrhSlONrIdi0v7WfVWf5m7rvVZ5Prog0V1IB4CEIDAWAmMSnhsbZ2tTp++IA7agMtGtl1dbkNqSqtN5wNXfnBXMMhOosEbloSFBIbsotO9hUeTsLHYcV4xva+96em+pN5Ov8h/7fWquvHBqrr6rxdZXrCRrdIMwYm9BKSFRFqnyEuMzTvnq4+a3Lr7oKlcwiEAAQhMgcBohMf58y9XJ078ojNz2SpNm9NGpFOMuPG0bTjOS+l0wqENSJtcTJ9e61RCdvpYeDgfn1zoXuV6w1y0KTaV4Xz34x8+WlX/41cvzeEnz1fVD56rKvnRyVZphuBKhIfrK9aRu0XfJvvAdcOHAAQgMEUCoxEezz//y/r9ja6doHc9lKaLkyjwo5Iu9rZROgmL+AgmfquWnTfDKBYkQJQuhvl6kfDJCRjXZxX+tX9XVX/x5MWcnn2pqv7n/1JV/9XnL350r3A52SrNEJxZW0jEOomrGcvXyUgqOh2vOOXV5NbdB03lEg4BCEBgCgRGIzz08uhrBWf6slWaLs7fbrURHf7m3+zZoLwZ2fc3Ym9ysm/awJTGQkLpvKE1bVwK1ylIm5OwUZ5tG2Nb+kVx/+ZPqurFVy5aXfX/XhQcUXwoXE62StPFmbO4mKNEgrg88OBDu9yjkFO+UTSYocKVh+Ic//DDj+x51CKeEniKl1NZzjsViLXBvzy+kn0b33X3geuCDwEIQGCKBEYhPPSiaFcRETupSxptMHfe9ef1hqVNzRui8lFc7n2NWEa6gaX3zkd5690Q5ff4E0+2nnioXNlb7ERfQkdxKmfVTi+K/nf/z95c/+tDeeGhcLs0jcOjHzd9hUtoqA0KjwJNcdr41UZxULw+crKXcHAfyVdax5ub7i06HOd8JUSU97FjxxsF4wW+L2ykD+qG8g8EIACBCROYvfDQBmXhoc0oftu18NDm5Xc6NBbiBpcKjfRe9irjYx//93UeEg4WIMonOtmlJx4q29/YXfYiMRTzLLmW8EhPL+IpR3rtvNM0Do++2qFNX22MTuE+hXC4bNIXeB0nFlF4WKAo3v3iUyjbKc79onwV7/5QeHS6j2NAcX32QawL1xCAAASmSGAUwkPg9TPZX/3q1c59IFulWeS00WtjufAt98Im5I3GwkMboTYxb2S69zsh2qi0ccZTiXitfP/w84dqcSPBoDyVvus7Hq5LbIc2RoWvw/0vf1lVPzlzMef/9sv5Ew+Fy8lWabo48TMb119+FA/KR0wt9BTvNPYtxJSfr5XOwkN2aZ6yVV+7n9v6LU2rOsRyVNY6+6ALS2wgAAEIjJXAaITHCy+8WPgT2bOV0rQ5bVT69qtNKG5I3vSi8IhiQ5uYPnIxbe7eZSi9hUeskzY15xXDfZ3b9NKwVW6Cn//7qrrhQZdeVbpPTzp0r3A52fr6Yqr2K9Xfpx+6Tjd6sz5+/J9rUScbO7XVIkDcfK14Cw89xlGeMU79fPLks7v97Pzkq7z0pCnGp7wVl4aprFjPmJ5rCEAAAhC4SGA0wkMnGCdOnKpefjm8+XixHXuuZCPbrickUTzEzSwKDxWgzUUvMMZHHTGtbNJ7V8zCQ5tf2wmJvq1HIZJucC4jJ45c1n78p05X1a9/taoePXExl6/8Q1X9xl9U1f/0pxd83cvJRrZKs8hp4xcDOTFy/dW+2GaLB7GWnVh5Q1d6CRYLithXytdpZe+0tnW5EiQWID5ByfkxXd99UEPiHwhAAAITJTAa4SH++onshb9a2iw+trdfqW1k29VZLGiD0YaoezltZN4Ada/4667/v/Z8Q/cGl9u8HKZ0Fh7K007h2lj1bTuKDce7TOcj36cDsvemHOsc0y57ffdTFwTGAz9rzkFxEiOy7eJSTm7vBaafrB9FuZ3ppu9wtV2iz/FtwkN1cplmpntdy7dTv+i9D73n43wdZ191dB366gOXjQ8BCEBgagRGJTwE/9y57erkydPV6dMv1H8g7NVXdyp99MfCFKY42ZS4dEPyN+u4yTTll6ZtsrPwiL9oiRudNlFvbrfd/pXdd0CiTZq34pTGm3gav5/7b/ykqt75Z1V1zb1V9c1jVfXzsxc+ulaY4mSzX2fhEQXZfvNsSu++ir9osShRmigwfv/TN2y8D5raQTgEIACBMRMYnfAQ7J2dners2XP1n0/XCYg++jPpClMcbjUEnnmxqv7zD6rq4/dW1W/+5YWPrhWmuFW4PoXHKupLHhCAAAQgsD8CoxQe+2syqYdEAOExpN6gLhCAAATWTwDhsX7GlAABCEAAAhCAwL8QQHgwFCAAAQhAAAIQ6I0AwqM31BQEAQhAAAIQgADCgzEAAQhAAAIQgEBvBBAevaGmIAhAAAIQgAAEEB6MAQhAAAIQgAAEeiOA8OgNNQVBAAIQgAAEIIDwYAxAAAIQgAAEINAbAYRHb6gpCAIQgAAEIAABhAdjAAIQgAAEIACB3gggPHpDTUEQgAAEIAABCCA8GAMQgAAEIAABCPRGAOHRG2oKggAEIAABCEAA4cEYgAAEIAABCECgNwIIj95QUxAEIAABCEAAAggPxgAEIAABCEAAAr0RQHj0hpqCIAABCEAAAhBAeDAGIAABCEAAAhDojQDCozfUFAQBCEAAAhCAAMKDMQABCEAAAhCAQG8EEB69oaYgCEAAAhCAAAQQHowBCEAAAhCAAAR6I4Dw6A01BUEAAhCAAAQggPBgDEAAAhCAAAQg0BsBhEdvqCkIAhCAAAQgAAGEB2MAAhCAAAQgAIHeCCA8ekNNQRCAAAQgAAEIIDwYAxCAAAQgAAEI9EYA4dEbagqCAAQgAAEIQADhwRiAAAQgAAEIQKA3AgiP3lBTEAQgAAEIQAACoxUe29vb1bXXXV/d/bV7dnvxzNZW9f4rrqre8MY37X4U/91Hj+zex7jctWxz7umnj1YfvfqaSmWUONXz4M23VCdOnqzrq2scBCAAAQhAYK4ERic8JCRygkFh9x4+XG/uFgfa5CUk9PGGrzhdSxDoc8ONByqJCjnbNw0GlS2xo3RdnYVHWqeu6bGDAAQgAAEITInA6ISH4EsA6GPne23uEgbyo9jQdZNYScNlq/zS8Lb73/vU71dvf8e7itLE+rsd+BCAAAQgAIGpExil8FCn+HTCQkFhFh56rBFPMtJOjGnSuPRepyHKq+SUI+aRnqrEOK4hAAEIQAACcyMwKuGhTVwnGk2nD7fednsdL2GhEwj5chIk6bsfMQ/Z6SMb2UancD+mieEl16qXH+eUpMMWAhCAAAQgMDUCoxIei+D7xEO+PnoZNLfhS0z4UYeuJUL83kcqPNoeu0Sh0mSnfH06s6j+xEMAAhCAAASmTmCywkMdJ1GxzPsXSmcnQWGR4jD5TY9govixfVMejseHAAQgAAEIzIXA6IRH0+MWnSqkm77EgR5z2Cnt448/4ds9fk4cuKwoRJxIYblfuKR1kL1sVT8cBCAAAQhAYO4ERik80hdHvbGnm77CS0480pMNpY+PU+JgcZkxTNdpHXJhTWnTvLiHAAQgAAEITI3AJIWHX0CNokGnF6lgiZ2ZnnhIQCh9KkacRuG5U4yc8FAa2TqvtCzniQ8BCEAAAhCYOoFRCg8Li/jLlNyjlth5fmwS06TXFga2zQkL5xmFhMPkW7A4b/26Ro989NH1ffc/sPvLm5iOawhAAAIQgMAcCIxSeKQnF3500XTaoI4sOfGQqEhFh8qwmJCfnqZYDMXwdAA5j9y7Iakt9xCAAAQgAIEpEhid8JhiJ9AmCEAAAhCAwFwIIDzm0tO0EwIQgAAEIDAAAgiPAXQCVYAABCAAAQjMhQDCYy49TTshAAEIQAACAyCA8BhAJ1AFCEAAAhCAwFwIIDzm0tO0EwIQgAAEIDAAAgiPAXQCVYAABCAAAQjMhQDCYy49TTshAAEIQAACAyCA8BhAJ1AFCEAAAhCAwFwIIDzm0tO0EwIQgAAEIDAAAgiPAXQCVYAABCAAAQjMhQDCYy49TTshAAEIQAACAyCA8BhAJ1AFCEAAAhCAwFwIIDzm0tO0EwIQgAAEIDAAAgiPAXQCVYAABCAAAQjMhQDCYy49TTshAAEIQAACAyCA8BhAJ1AFCEAAAhCAwFwIjFp4vPbaa9Urr/yq/uga153Aq6/uVL/61avwa0HG+GqBQxQEIACBJQmMTni8/vrr1Usvna9+8Yut6plnTlXPPfd8/dG1whQnG1yegPicOnWmOnHiF7vsxBB+F3gxvvLjhlAIQAACqyIwKuGhTeHMmV9Wzz57utrefvkSBgpTnGwQH3vx6Nv7mTNnG9nJ+iK/s7Pkx/jaO2a4gwAEILAOAqMSHltbZ6vTp7cWcpCNbPfjtre3q+uu/2R15Mhj+8lmMGm7slOFV8FP3MRPHI8eO1Z94MoP1v5ggGQq0pVRCZ97vv6N6tAtX8iUtpqgqY3T1VAhFwhAYMgERiM8zp9/uX480BWmHiUozbJuVQu6Nh5vwMvWZb/pdJJx8uTpomz2y29dwmNdPNc1vhAeRcMOYwhAYAYERiM8nn/+l/X7G137RO8yKM2ybkrC4/nnXyhiJ2b75ReFx7J9kEu3LuGxrvGF8Mj1ImEQgMCcCYxGeOjlx9de6/7SqGyVpouzyHjzW95a6aNN02G6ltNxeTx6It40AAAgAElEQVQy39raqi6/8kO7j2Jk5/S2k+8w+dqE5KLtO9/9nt1HEMrz6ms+UR3+5t9UCl/VScnPf/5cETvVsYRfbGdso+ufPmoxW7MxL5XrjVq+451nLCfyrKHu8591jS+3x9WLfa82xLbLJmXj8efxljKxve1cDj4EIACBoRIYhfDQS39dRUQE3SWNF/S4AWjj39p6Yc87HoqPNk6nBT/dWB9/4sldMaGNxxuw6ib7KDZ0LwGj/JxntI/tWeZ6Z+e16mc/e3aZpAuZe9OL9X3gwYfqdqhdDo98nMYsfW9xIT+KipRXynOphiWJ1jm+VF+3NW2L2+5497/vVU2NRdnd9Wd/XnNVWMzHeSgMBwEIQGAMBGYvPLRge4OMHZYu6NoM4obgTULptbFKTOQW/7hROk+F2SkfnXIoj5in4/frS3joxGMZt0i4qc6qu+qdusg1Cg+FW2g5TdycIy/Fm5nZpvHOYz9+H8LD7Yh9rzpHhpFZW3vimHG+5tOWjjgIQAACQyAwCuEhUPqZrP7gVVcnW6VZ5OKmF23TBb1NeCidFv70GFzhcaN0nraLvtLHDSXWZb/XerG0hJ3K68KvbaOMcanwiO32tcVf2h9mpvzkIs/9conp1z2+0na47Mgmbbtt5Gv8mZV9MWnKN6blGgIQgMCQCIxGeLzwwotFP5HVTyOVZpFr2sjSBX2R8HA52kji6UfM33kqLOfWJTxK2aluXfhp40tPL9yuNuHRlEZp083XzNYtPEoZdeET2+N2pH0fTzziWDFH+SlnjRMxVLjzNZ+YjmsIQAACQyQwGuGhb+AnTpyqXn75lYUcZSPbLt/yvYjHDSH3jofi44ape33z1ILvjyqWbgTpZpLmo/IlapRuXcJDfx795MlfdGKnNlzg94uF/NxW1d9u0TseOd5i4o1T1zE/lxHjfTriMlfhr2t8xfaoDfH9HrdNNnI5NhqLDz/8SOPYcx7mswoW5AEBCEBgnQRGIzwEQT/x1JH49naz+FCcbGTb1XnBbzvC9gJvm9u+8seXfOt0XNw4Y97eYOTbNooZ2fp9j65172onHhIfbeyUVym/lIvbqI3QAiE+TlAZkYk4OI3idB35OX9vrDFtTNeVQ5vdOsZX2h61w32ftj3Hxu0WE6fLjT3btbWPOAhAAAJDIDAq4SFg585t138M6/TpF+o/EKZv8/roD0ApTO8zyAZ3KYHz57erZ599vuYkXuKml0/hd5EV4+siC64gAAEIrIPA6ISHIOzs7FRnz56r/7S3Tjf00Z+xVpjicM0EXn311erFF8XugkjTXyi1GFE4/BhfzaOHGAhAAAL7JzBK4bH/ZpMDBCAAAQhAAAKbIIDw2AR1yoQABCAAAQjMlADCY6YdT7MhAAEIQAACmyCA8NgEdcqEAAQgAAEIzJQAwmOmHU+zIQABCEAAApsggPDYBHXKhAAEIAABCMyUAMJjph1PsyEAAQhAAAKbIIDw2AR1yoQABCAAAQjMlADCY6YdT7MhAAEIQAACmyCA8NgEdcqEAAQgAAEIzJQAwmOmHU+zIQABCEAAApsggPDYBHXKhAAEIAABCMyUAMJjph1PsyEAAQhAAAKbIIDw2AR1yoQABCAAAQjMlADCY6YdT7MhAAEIQAACmyCA8NgEdcqEAAQgAAEIzJQAwmOmHU+zIQABCEAAApsggPDYBHXKhAAEIAABCMyUAMJjph1PsyEAAQhAAAKbIIDw2AR1yoQABCAAAQjMlADCY6YdT7MhAAEIQAACmyCA8NgEdcqEAAQgAAEIzJQAwmOmHU+zIQABCEAAApsggPDYBHXKhAAEIAABCMyUAMJjph1PsyEAAQhAAAKbIIDw2AR1yoQABCAAAQjMlADCY6YdT7MhAAEIQAACmyCA8NgEdcqEAAQgAAEIzJQAwmOmHU+zIQABCEAAApsggPDYBHXKhAAEIAABCMyUAMJjph1PsyEAAQhAAAKbIIDw2AR1yoQABCAAAQjMlADCY0Udf/fX7qm+++iRS3I7ePMt2fDUsM1ue3u7UvyZra06L10r7IYbD1RPP310NyzNk3sIQGD/BDS39eniZKf52ea0TsguN4djWFsexEFgzARGJzw0Ma+97vrqDW98055Pl4VBC8KiRWHZzlT5OeEhYfC+y6+sBUJb3hIVFhQ5O+UjoXHf/Q/UvkWHbJvKzuVT/d83VdWDD2WjCIRA3wQ0dtO5rPmted7mus6rtjy6xqmO+uSc5nxa/7b7t7/jXfVaoLnuuXzHnXftrkuL1oE9dbjzrqrSBweBkREYrfCIC4HFyPuvuKo+FWjqgz6Eh+vStPh44cnVsWmB0yKrdGmeCnv88ScuEWKtHLRQITxy+AnbAAGN+VRoKExjPSfkXcV1CY+muZabe7KNTvXt8sVGNml+uld4TsjEtS6WV89jhMceJNyMg8AkhIdRr1NYuIzUTxeKuOl7IVEaLVI6pUi/yUUbxek+PlKJ5XlRlI2dwm697fb6VunjSYhtal8L1FUfqirZ6vNb/2tV/ehHe0y4gUDfBHLCQ3XQvIpzqa965eap6qj62OXmmcIkoHR6kfuSYKER89E8Tr+IaC6rDnKyjXPd5deCQ/M3zmW+TOzi4WL4BCYlPDRh/VhDk9YLgSa9Fg9NYn28SMRvEmmY4rxYxAUw5qN4LyTK19fq9nifW6gcbz8dKhIfH736mj2LkMqTvXzXSQudBY3KUbzSZt3p0xfEhx634CAwAAKaT+mJh6oV56Ov7z18uB73GvuPff/7u3NdY16f6GKY5qXnctzoPceUr8JVjyeeeHJ3Pjk/5RXndm4+e11wmtRXHm6n26P5rY/qpvRav2TjsuQrPOvOnauq//13L3x0jYPAiAhMSnh4IdEE9mITJ25cjBTuhUD9JXtv5orzteKira61UHhxULzKlb0XEJXjhc6+0tnJXmXLTxc128hXGn1i3XStNGqjFktd+1uSwixCYj671zr10Lek3/tPnHbsQuFikwQ0vuM8jHXR2Fa8N+o4JzXW45eMtrgoNuJc8ryN5adzKGeTCg/PRdU1da67y/C92+UTSrVV9ZQI8gmmwuI6sydvnXDoCwTvbO3Bws04CExaeMTFSN2hiayPXFy4YpwXmjjhZatvJorLLZRaLLSAWBTEtLKPZcoufqtqW1xiuaqj8vUCVjfiX/5RGYqTr0/W6bRD35Dke9HKGhIIgf4IaLzmxrRqoLmh+LhZu2Zx/qZz1nlubb1Q5x3nhGx9kpimU97KN4p310F5eD2JwsN1+8jHPp6de0rn+e+6y3e6uFYoXHWS/YmTJ+u66/4SpxMOf3nQ41Jdc+pxCSYChktgUsIjbtS5TVoTOi4CutbCkFuMfFJh39+a0oXEC5UeeaSLSCwvLpTKQx852aTpPFy8OP3JHX96yQmK6uW2KG8t3vroGgeBsRDQPMgJD499zY147XbF+aQwz8to62vP4egr3zjvY74SHopTvTzHFK80Wgf0QrdsVAeFeT7rpELiJJaTXr/t371z9/FKjPP6onK8bsSyXT98CEyBwKSEhyesOkYLQrqgxfhoo5+12VYLjhYPpc85L3COk50XH6fRgqSFRLZycZFMFzvVyemcp3yFOU5+Wq7jnEb3+uAgMCYCGteee7HeGv/xhEE2cZ7EOaV0utdJhmx8Omnh4XkY89d1Ohedj+auREEsz2kVJtFh4eFwlZErR2FpPmm5qrvyU31dBz9Gcv74EJgSgUkIDy8wcQHTZI/36rR0c/YCoEkeFw3ZxbRaGPzcVXa5Dd4LjMr1gukytYjFbzRxACmvdGFSvPJzndQ+fcvSvb8lOU62St9WRiyPawgMiYDGcZxrqpvC4nzx/I7zJBUettEjjzg/lVecj5rzipe957/ysktFgMOjr7T7ER5Hjx6r9FG9NG9j/dwOhcd2xPK5hsDYCYxWeHgDth83YnWKFql0QdNETiez7uPEd4cq3HnHfFROmofSKDwujBYDttWCpsU02iid4tOwXLgXJOWhxzqqm9KpXC/Suve124EPgSET0Pj1PLMf55vq7rEf50kqPGQX50JscywjzvVNCQ/VTW1ReyVg1F599F6H6qc1wW32+hHbwzUExk5gdMJjqMC1uGkx0WKmxSNdPFXv3ELnBciLrv2Y3jbyo9OiFO0UpwXZR83RlmsIQGAxgbYTjyhg0nmnOH3kvAZoLqdfBCwo0vRtX0yc7+LaYwGBcRBAeIyjn6glBCAAAQhAYBIEEB6T6EYaAQEIQAACEBgHAYTHOPqJWkIAAhCAAAQmQQDhMYlupBEQgAAEIACBcRBAeIyjn6glBCAAAQhAYBIEEB6T6EYaAQEIQAACEBgHAYTHOPqJWkIAAhCAAAQmQQDhMYlupBEQgAAEIACBcRBAeIyjn6glBCAAAQhAYBIERiM8dnZ2qlOnzlTHj5/gA4PZjQGNfc2Bqbidndeq555jPrOesZ4PcQxobmqOrsuNRnho4d3aOrsuDuQLgUET0NjXHJiK08L2wgsvTqU5tAMCkyKguak5ui43GuEhVYiDwJwJTGkOTKktcx6TtH26BNY5RxEe0x03tGxiBNa5EPSNakpt6Zsd5UGgDwLrnKMIjz56kDIgsAIC61wIVlC9oiym1JaihmMMgZEQWOccRXiMZBBQTQiscyHom+6U2tI3O8qDQB8E1jlHER599CBlQGAFBNa5EKygekVZTKktRQ3HGAIjIbDOOYrwGMkgoJoQWOdC0DfdKbWlb3aUB4E+CKxzjiI8+uhByoDACgiscyFYQfWKsphSW4oajjEERkJgnXN0ksLjzJkz1WOPPVadO3fuki4+evRoHXdJRFVVjz/+eP1J4xT+wAMPVD//+c/TqPpe4Q8//HClcsfmxEis0rrr/jvf+c4l4Wn7FtnF/M1eYY8++mjN02FpvtxfSmCdC8Glpa03pKQt3//+97Nzr23sNcUp/KGHHmpcA9RqzQfN+Sk4tUVzbJHTnNR8X2TrvtCapzns+a10MWxRecQPn0DJHC1tzSSFhyB4Q5N/3333tX68yHhSRYiauPosEhcqRxNXE7HJedFL66O0bc7pFtm15dEU54VDZaROXBa1SWlULzNM89C9F6Qf//jH9WJl0aE4pVtHu3L1GELYH33py5U+y7h1LgTL1Gc/aUraorGpcfjMM8/UoiGdP/He41VjTvM5OoVJdMhvExddNmHbxLJ13TYPXJeu88r2+/HbhIfi0vq33YvtyZMndwWK5rE+nr+L1oH9tIO0/RMomaOltZus8BCInJDQ5NCEi05h6YR76qmnLvlmpAWj7eRD8W0LT05AOMwLZqyXr23jCe7wVfhReGhBVvtSFr5vqqPyiGIi1qspT5Xzz//8z/Ui5vzla2NQe6fqEB4XerZ0UcttahonGpNxvOQEgWx+8IMf7Jm7nlPpWuBxl8vbcfJdTpzvDls0hpWmaS7FMkqvc+tYnFu+ztWvTaC4HmbmfKKvslMh07ZWOk/84RIonaMlLZm08BAILwZxksRrTw5tkP6GpGtNTi1Wqa3DciJAC0puUrtDPHHTtK5jXMScZp1+ulB4EU4XXdUrrVtqE/nlFjELEJehdsU0YtAkXtbJoO+8ER4XiC+7qGkcxjmZXnucxi8dGnMaW9rso73DciLAc9X5peOkbc6qvDjO07TruvfmH/OPHBSezluFaR7qUbFsI594Hdc1s4ncFKY2i4ucrtN1ro7gn9EQWHaOdmngJIWHF5g4MQwjNzkVpwVGpxxx8jhNF98LkSZw02LlCZubkArz5FZ61UMfTf4nnniijpONFgnZybeLYa6HFw3lYZfmq/zShSi9V95aoL2gOF7H3uKr+9Qp38he96qP2+N2SsQ5b+Wv+Fx+af5jvkd4XOi9rouaxqzGjr8gxL73WEzHjO41ljS+NPaWcUqncdr07pbnWW6ux/mouigPrS1qg+aF6iX/9OnTtR/zSPP13EkZKNx5KU55KCzOd+Wl+RXXipSZy1PanJO9OLiOykvtUL7y3S9qn+oje7lU8OTyJmzYBLrO0WVaMUnhIRDeMDVBNDHbPloYHnnkkfoZsiauJqN8p9GEUphcOrkNXeUpn7YN2ZM4N8mdXjaa5CrbdjGdFwovBCpfdXW9VVddy6W2ab6yURkqSwuIrrXIuN0OV93sZKP8Vae40Dhevsr1guc8Ze+0yk/lKR8vUApTGnOO+W3q+otfvrXq+mmqo4WG/Q//zkcqfXxvvyl9DF/nQhDL6eO6pC0eTz5tjOMzvda40jjSWNdHY87jzbYKk3O+cXy77RqbzkN+6pRW4z8Xp7GutUD5eu7GNURpfB+vVUY6X7yx5+LUnli+55fr6nZ7PVB4Om+VPpbhtPKd3mXoXuuDfH3E+bnnnqvD1B4LvbSMmCfX4yFQMkdLWzV54aEFIp2QhuRwTzAvTJpcmkiK1yTSxNX7CJpoekEyTmTn5YVK95qonqyOl+9FSPmmTnXQYiUbpfXClEsX42Oeyld1V5idbF3fmE7xYqONX+1KBZMXVtdVaeNHZaiOsSyXKT+Wq3vlE9tkW9kpznk7fAh+V9EhuyZnYWEf4XGBVMmiprGoMao50jTuYrjGu+eyfKXVR/l4vMnGLzsr3+jiXIz5RhvPD+WXOqVJhYfnkWyVxnNBZXkzV5zqpU8u/5iv8kvnusKUVs7pHebyYnv+//bO7deyo77z/BnzgBQJMCSB8BCCweDLa6RMMkQaKYrCJRiIIgUhkocEhkG5PIQQy2nbgES4ZV4QKMkoIfMyE14i4/gyMcZypn2N2/aM7aYt0m2BPNZEjdbos3d/T/9O9Vr7nH3W3uvsy6ekTa1V9atfVX1W/aq+Z+3tJn1nrLOGV/6ntq/lXFc+tY6+Kt9a5/X2EVgmRped3d4Ij7oR1esEKuAIygQ9eewI2kXCow3EGtz1gVDOZkGAtomybA4Ebzuu2g4/2SxqO64z5poP+aUf/kqhL3wmtePMRsmr4aMOgPgIE74mqmPJdeaHHePjw/WupwiQk8xznRvBScYzps0yc+EQrOuOWMg6qnl7EOcQZF3xV31siRPW35DwoI62SVzXe8pzMLfl1GXtE0c1Vqu/xCRl6a/axn/GXHPGX+M+fjOvxG8dG9fwqX9g8EdH9rXjvE2i/Xe+850DjhlT5kK/iWXGYtpuAsvE6LIz3RvhkYOuAkqgpiwByyZFkFFPGW0ToO0bj2wQbaAR6G2f8d/axkc2irZtX7tsVsmZA37bzTdzI2/9/vM///PsVSk+6CM29dUrbbKx4D/X2HOddrUf/GGbvO035WnDPZ99SAqP+VNeZlMjPqrw6Ft3feuRdcfhSEwc941HXeNZj/iO0E9ZG7MpJ6/rua9tjSns0yd7S+Jrkf/aBrsk/DDfGr+pI6dfxEblV9lWW8qZRxvfGWv6xSefpHZuKTffPgLLxOiys9t54ZG/6KPO25zgqn8RJfApjy1lQ8KjbjIVPoFJuxqUBHEETWxThp8k2tT72BD0SVzji0/eFMSu9sl12rV+8VU3mDqX+IJBmKRvcuopJ68JfzkkKOcedvQdnnV8jI3yoc2y+t6Fa4XH/Ckus6llTfEDRtYWaz5rqeaUsx5ZxylnfdX4ppwybNo3HtjVeKrrjTbxTzljauM7ZTVeGE8rWlj/fTb4r7HBde0zc6MfxlN9MKbMq467vcYH7chJYZs9JPaUwyh2KacPPuGLTVLljI1puwksE6PLznSnhQeHGYExFJBteQ3stKtlwE2bvk2mhU/bupnkPkGbvA1SNpwa0GlX7VJW7eg/5fHdbmStfd8Ggw3t01+7AaafuoFl7vTflocVzyOvdPGN3wgO7nMdX7uYKzzmT3WZTS3rh1iqXxXU9dG37lhfrCsOxPaNB23xG5GMXV3z1XeuaxxkTImz5NjUxLiOEh7YE3NVZMQH/uK71jPe0xAeGStjIpaJ2XCmLLwp59q0vQSWidFlZ7mzwoNgyCZAANQDNwcrgRIbwLFJUMemQp7AIsD5q51gShvq+RyVskHVfo5qM2V95src4ZT5tWOgrt3omD/27afONT7Ja6Jt648Dgk2asZiuJbDOjeDa3tZbssxcqnBgbbBuskayvliD7XpiHVKf9ogM7CjL2uUwf+qpp2aHPnZHJdpWAXCU/ZT1mVdfn5kv8+c6ifiP+KIMH4nnlid8IjTSnhzOLROeTyu4ahuvN5/AMjG67Gx2VngsC0J7CWw6gXVuBFPPfZfmMjU7+5PAFATWGaMKjymeoH1IYAUE1rkRrGB4S7nYpbksNXGNJbAlBNYZowqPLVkEDlMC69wIpqa7S3OZmp39SWAKAuuMUYXHFE/QPiSwAgLr3AhWMLylXOzSXJaauMYS2BIC64xRhceWLAKHKYF1bgRT092luUzNzv4kMAWBdcaowmOKJ2gfElgBgXVuBCsY3lIudmkuS01cYwlsCYF1xqjCY0sWgcOUwDo3gqnp7tJcpmZnfxKYgsA6Y1ThMcUTtA8JrIDAOjeCFQxvKRe7NJelJq6xBLaEwDpjdGuEx0svXewuXfrhljwyhymB1RJg7RMDu5IuXLjYvfzyj3ZlOs5DAjtFgNgkRteVtkZ4XL58ebbxosL8yGDf1gCigxjYlXT58o9nG9u+PUfn6961DWsA0UGMrittjfBYFwD9SkACEpCABCQwHQGFx3Ss7UkCEpCABCSw9wQUHnu/BAQgAQlIQAISmI6AwmM61vYkAQlIQAIS2HsCCo+9XwICkIAEJCABCUxHQOExHWt7koAEJCABCew9AYXH3i8BAUhAAhKQgASmI6DwmI61PUlAAhKQgAT2noDCY++XgAAkIAEJSEAC0xFQeEzH2p4kIAEJSEACe09A4bH3S0AAEpCABCQggekIKDymY21PEpCABCQggb0noPDY+yUgAAlIQAISkMB0BBQe07G2JwlIQAISkMDeE1B47P0SEIAEJCABCUhgOgIKj+lY25MEJCABCUhg7wkoPPZ+CQhAAhKQgAQkMB0Bhcd0rO1JAhKQgAQksPcEFB57vwQEIAEJSEACEpiOgMJjOtb2JAEJSEACEth7AgqPvV8CApCABCQgAQlMR0DhMR1re5KABCQgAQnsPQGFx94vAQFIQAISkIAEpiOg8JiOdW9P//Tgd7u/+dtvda+++mr3x5/5bPf00+c6yu783OcPlbWNsfmJ1103+Pn5X/jFma+2nfcSkMC0BIhl4vWodPHSpe6jH/v4wrhln8Aftn37RMqO6st6CZwmga0THgTeJz/16WsO3OME9mmCXtQ3G8nd37lnJjy+/o1vzjYW7NlcIkDa9kdtMF/56tcWbmAzf396W9f9472ta+8lMBkBRHcroFnzu5SYT9/+NLSXtTzqPb7444Q/UrJn5A8WmMGzr69ensZ/LxYL109ga4UHAXbaiQ3gvR/44NEH/IKBspHUjSXX2axynzzzZnNJWV9+rDce3/imwmPBs7Fq/QRYz/whwSF82omY4zMmHRWXidX3/fqtsz8s0hfzrwIi5W3OnkNsx09yys6effSaP8rafg75M/4P4fBmOgIKjxGsVyE80j0bXisW6lsLNrS6Kbb38ZO8tk3ZQc6Gc+uHu+6rX5t/fuVXu+6JJw6qvZDAVAR2UXjUOIVjG4u8yURskScRz5QhPiIm2rwKtAiQ2hdl9EVaKGSM/2A3PyUCOyU8CMIanARzDvP2tWYNWNhjm0CPj3ZTjA/Kqz3t0iY28ZX+6SN1f//tb3f8JcLn/Pe/P2vLd7t8aId/NhF80k/G19dv+hnKa/8zR/mfH/xgLj543WqSwCkRaGMsw8jBmvWf2Enc1vhr13hsExPYcsgTb/FHP1zXGIw9eewYXy3nPolrxsMnbWiXMWLHWNo3Ga3w4H7RbztaFvRBf+mXOeCDr2npiz75UE95bzL+e7FYOA2BrRUedTNI4GXDYUMg4LLRpDwbQu6ziZDXzYtA57Ul5REUPI62HXb1q5bUpx/asEnEd+r7xktdNija0waBkr9gKMtmiF/GlvFz39a399gcSvzVw19Hf/CHvu04BMabKQmwhmss5wBnDKz3xEqNxRpTrV3invWfRBydP3/+YD9IefVPGW1qO/pM/9THd+IuY69xyXX1EdFQy/DDvkKefms/s8Ir/4O/ISbpq/aRtyuURYRUfwfXxv8BCi+mJ7C1wiPB3yIjGAliAjDBnrIEOm1oT33EADZtwmYZ4dHXDz7pB1/pqx17ytsxMF7avnj+/KGNKuNvN+z2vvV3MD/+2vndT3QdOT8u9a3HARovpiXQxljtPXFBLOeNQMpqDBEnqWfN15iNP2zYF2pMcF0PfGKND6nPnvLqv2/s1MdHxpqyjAvfER7U8ccL46e8Ju4zr1rejqPWMSZ8kldG1WYW98b/ISTeTEtg54QH+Aj8uqEQiO2hzD3Bz19CQ8HdbizZSBLQ7RsP+snmUh9jNrS0x46U+3ZseUOSuaR99dluLNjEb9rV+9rWawlsCoE2xtpx5a/5xNxQzBBDrHfsiIU29QkJ7Os+UeNs6NCvbfr6oh4/6S/jZjxc09+5c8/M957vf39mm3sEVrsXtPe/98n/1GuTOcOLPYgP1yYJbCKBnRMeBBtCgsBLMNbNon0I2SCwaRMbRRUS2fSymdBX/aplqB/GQZu0r321Gxw+6yvSto+MEX8ZB2X0Uf2292lnLoFNIsAarjHWjo11TDwkzhJDde3XNkP++uK8jVf64kPqs6ecNhkvfcU+Y6AesVD/eEgdOW0QGPigDxJ5vY895fhnzjW1/WLTxn47rtreawmcNoGdEh51s+i7JmCTuE6wcl3/8uGw5zce1NcNJJtK/LSiIJtiDXraxHfq0y9j4a8dPtiwYcWWuthTXn1y3f4lNHSfsWbe5hLYJAKszxzk7bhqXXtd46Qe0In7uu75jcelSy/P+kkcJbaqH+pSz1jwUevjO/FLfbWnDXVtWfZ04vsAACAASURBVDsv/FSh0d7HnnJ8MdYkrvP7s8R8nSv9U173rbQ1l8CmENha4ZGgS/6Xf/XXs2CumxgBmQDMphH7Gqw8DO5TV30Q+CnnLy/qatvUp002tLSpG1fqsnFlEWSziH988bsO2mbjoYzroURd63fI1nIJbAqBGneJGdb6P9577yzusqYTv4mB2q7GGPOKbfzFB38osB9QTs5/BVLb1vq0qf3QLuX0Q13GE57Ut2WpS874mCM5qb2vdviqwoO67COZQ8bFeLLfMY5cx5+5BDaFwNYJj00Bt4pxZANhE6qbSzbAusnRH5vQf/707x8IoWysi3I3n1U8KX1I4HgEFgkP4jexWsVJKzyq2Kl2jAD/ERp1RNj17SN9P1qt7byWwGkQUHicBnX7lIAEJCABCewpAYXHnj54py0BCUhAAhI4DQIKj9Ogbp8SkIAEJCCBPSWg8NjTB++0JSABCUhAAqdBQOFxGtTtUwISkIAEJLCnBBQee/rgnbYEJCABCUjgNAgoPE6Dun1KQAISkIAE9pSAwmNPH7zTloAEJCABCZwGAYXHaVC3TwlIQAISkMCeElB47OmDd9oSkIAEJCCB0yCwNcLj8uXL3UsvXeyeffZFPzLYuzXA2icGdiVdvvzj7sIF49n9zP18E9cAsUmMrittjfBg47106Yfr4qBfCWw0AdY+MbAriY3t5Zd/tCvTcR4S2CkCxCYxuq60NcIDVWiSwD4T2KUY2KW57POadO67S2CdMarw2N1148x2jMA6N4KpUe3SXKZmZ38SmILAOmNU4THFE7QPCayAwDo3ghUMbykXuzSXpSausQS2hMA6Y1ThsSWLwGFKYJ0bwdR0d2kuU7OzPwlMQWCdMarwmOIJ2ocEVkBgnRvBCoa3lItdmstSE9dYAltCYJ0xqvDYkkXgMCWwzo1garq7NJep2dmfBKYgsM4YVXhM8QTtQwIrILDOjWAFw1vKxS7NZamJayyBLSGwzhjdSeFx8eLF7qGHHupeeeWVax7xuXPnZnXXVHRdd/bs2dmnraP8nnvu6Z5//vm2anZP+X333dfR7z6lhx9+eMaE+T/44IMz3nCHcS1rmVB/9913D34WsW597dP9OjeCqTkuM5ess3aMxNsDDzzQG3dDdZTfe++9g3sAfbCGifl9T0MM+7gQ0zyLvj039tTBFr/Zhylj72C/SFnszU+XwDIxuuxId1J4ACGLmHzRIUddNpm+DY5A4XOUuKCfowIvm14dzzYfstmYmDubBx+uwz9c20WJDUyHUt9zGLLdtvIvfunLHZ+TpHVuBCcZz5g2y8wl6+yFF16YiYYaP+11YpB4ZR3VRBmig5z1N7Q+OQzxk7VcfeQ6Nm3/i9qk7bbk4U7eJhiyd7XzX3QPG9qxTzz55JMHewZlJJ7HLvFrmW3b/TIxuuzcdlZ4AKLvAGNht4ceZW3APP7449f8ZURgLBIK1A9tZoyHAGbj24TgItizCS+7aOpcWm7ch3Gtq9z6eA/ZnmRsm9xG4TF/OstuaqyZNrb6DsY+QYCIeOSRRw7FbmKx3Quydvp8p448/bRjqjZTXWcuY/cVWNQ4HLpumUVMwGRRwq5PrFD23HPPzcRe7ZP9ibmZTofAsjG6zCh3WngAIhtEXdD1OgciQZG/kHIos1m1tinrC3I2oUXBsqoNYpkHPGSbOZKPSZlT/tLEF2VsTtmIuK68uG43rzqGPsFY67f5WuExf3on3dSIsRqT7XWEQF1DrDX+ymaNVvuU1bWbtZV1HX8pT559Zag+dlPkGWuNsZP028ZpG8f47Itd2sGbva/yrdeVE3sO+27dAyjL/gtbns3YvekkDGxzlcBJY/Sqh+GrnRQe2WD6NpS+wAEPgcFbDoIhB+YwtmtrshHxW48aZNVyaINIeW3HODL++E4g14DFP/epiw/Kql36YP58Yk+efmKTuiqiqGNuMGLToM0zzzwzu2aToCwiDhvqaUPKIdD2m36G8virDLf9WuExf4LH3dRYz6yPvrXA+qrrLGuDctY+fySw5k6SaMf6H/rtVmIy8Vb7oKzGTg7ajCVzYl7VDh+xrXWUYVcPYnzUGEwMVX+1H+q5T+I6ewR1jI37jDFjIbbrfhi7+OGecVSb1JHTTx0T9vRHX+Sp41mlL3xRn/2j+vN6OgLHjdGTjGgnhQcgCFIWMh8W+KIPm8v999/f8R0yCz4LP21qYLWBF+j0hx989G2G2BFIBFr8ksd33VzoIwHJWLBhXKTcE9C5jg/q+e40G2/a1L7xTar91fp2c8o4Mvb0VdtzDecLFy7Mxo1NNn3acU+eRB+1H8aZcWHT3qfd1Pmff/kr3XE/Q2OL0Ej+G7/5Wx2f3Ccfal/L17kR1H6muF5mLqxz1lfeNtb4aa8RKNhmjbGuWJ+UxzZrLX6pbxNrMD7qWo1dYi8+yRMr2NCeT+zig7zacZ+YYlz4yfiIGeK5xlr6r+0Sm2mHTdtPbChPfe2LsjbusG1t6AM7UnzmflZY/ofyOlfa5j5+8mywzR8olPEMYWc6PQLLxOiyo9x54cHizSJv4aQ8i58g40NwsBlQT3ARFHwHSTCwEfQFGmU1qHNd+0yg4rcv4YM+0jc22CZY0wbf2DLuob/IqOeT1PZNW/ySk/CZDTBtsmmGA/bt2IfGgB0+yes40ldYD+VtPxnTlPlxRQd2QynCIrnCY05qmU2NdUhcsNZYx6xT8ppqOeutriva8sFPXZP5gWNiIP7qmq5+U0+e2MBfX8IH8YJYSlzhq42h2hfj7vMXX+RJ2A357euHdsRU2tT28Un/ibuMKz/ozbhqPGPP/kPeptrXcevog3bk6a9t6/10BJaJ0WVHtTfCo25E9boGDQHLPZsKeewI1kXCI0FKexI5bXKfh8J9u/GkLu2or2MiEDOOmuP/iSeeONhIqh+u8VH9tH23mxmBXu3xUTdX2rPJZPMjr39FZmzZ2LDnmg9zqKndWOi32rT3te22X0eAnGQe69wITjKeMW2WmQvrsAoPYiTrreaUs+6SWGesq3atUsYaGxIe1NWDr12v+K+xkf7anHb1K6LEYB0z19gwpr5YwWcbq5Thu8Za3VfaWM246COMaM88a0rcYVfHnbmmnpwx8YYCW54NY2nn1d5/73vf67XJOPCJHz5cm06XwDIxuuxI90Z4ZHFXQARNLc/GQNAlkCnDZkh4JCjxVVNfYMd/a5t22UzSN+XYZrOIXfJFdYy5b27pu93M0jfzSapz69vM8JXNjzb44JPU57PPjnFmXNS39/G3C7nCY/4Ul9nUWIdVeLDmWI81cd+Ws/44/Iif477xaNc0ffSt/cRGXe/teBDqOZSxx0+N7Wq/yF8bq7SrsdX6be/TT50b7ev+gA338KoxnbZ5BrzBqe3wWe9jT3kfm7Zf2mKbxH2fv9SbT0dgmRhddlQ7LzwSKK36zj2LnMBGbNSgozw2BOKQ8BgKlL6NZGhD4KERfBEY9TptahBzjU36qIHKX3G0wSb+8M8980mQt5vZUD/ZhKivbzwyZvyFUx1HZZo+aVO5pt1QXudM211ICo/5U1xmU8uhx4+WOchZ131rJuu9rjHWXl2LtKMMm/aNRxsTdb3RJv4pT+z1rdFaV69pR7+JKe7pM/81B33UNw3EXOKZvtNXYjV+ck/7JGzreFsb6hlLTdxXH7Uu19TXdu19tct4UwYL9lHK8/yqDb4orwzS1nx6AsvE6LKj22nhwQJOMNVgCaQ2aAhO7AiQtKtltEubbCgJ/viseYI9wZX7BF1yxBFjjV3ru20XO/qKbXylri1nc2MjYvxJzJF2mUPbT8qxp64VHpTHR51DNhDybPq13/SfPKxzv8u5wmP+dJfZ1LKWWb9DP95mfbJeyZOIhazB9o0HNvilnDVa12zatzn+cphnTIm75NiwnmOHj9Z3YqbGXvqKLXV9PlJOPNf4pN/UhUHKKOeD76SMM/fkx4lDfGCX1N7XcvpoU7ix37FnZFzYRnDgM9dte++nI7BMjC47qp0VHizkLPw2OGrgxwZwBCx1BAd5DlMCHKVOMBAotKGez1EpgVb7OarNNtRHULTz4r5umMwFrnntnE3wOLmbz+GVsM6N4HBP679bZi6stQgH1lIVGMR21lI9iJkBa5H6tMcHttkPuGatPvXUU7Mcu6MSbdv1fVSbbalnP2N+bYI5cw7nahOWtMle12dHPbbhX/ug3/bZ8SzYM+jbdDoElonRZUe4s8JjWRDaS2DTCaxzI5h67rs0l6nZ2Z8EpiCwzhhVeEzxBO1DAisgsM6NYAXDW8rFLs1lqYlrLIEtIbDOGFV4bMkicJgSWOdGMDXdXZrL1OzsTwJTEFhnjEZ4jMkvXXqlu/POO7u77rqrew0360jrhLCO8epTAqsmsEsxsEtzWfVz1p8ENoHAOmN0jOBIW4XHJqwSx7DzBNa5EUwNb5fmMjU7+5PAFATWGaMRD2NyhccUq8A+9p7AOjeCqeHu0lymZmd/EpiCwDpjdIzgSFuFxxSrwD72nsA6N4Kp4e7SXKZmZ38SmILAOmM04mFMPonweOmli92lSz+cgrd9SGDjCLD2iYFdSRcuXOxefvlHuzId5yGBnSJAbBKj60pjBEfaTiI8Ll++PNt4UWF+ZLBvawDRQQzsSrp8+cezjW3fnqPzde/ahjWA6CBG15UiHsbkkwiPdQHQrwQkIAEJSEAC0xEYIzjSVuEx3fOyJwlIQAISkMBWE4h4GJMrPLZ6CTh4CUhAAhKQwHQExgiOtFV4TPe87EkCEpCABCSw1QQiHsbkCo+tXgIOXgISkIAEJDAdgTGCI20VHtM9L3uSgAQkIAEJbDWBiIcxucJjq5eAg5eABCQgAQlMR2CM4Ehbhcd0z8ueJCABCUhAAltNIOJhTK7w2Ool4OAlIAEJSEAC0xEYIzjSVuEx3fOyJwlIQAISkMBWE4h4GJMrPLZ6CTh4CUhAAhKQwHQExgiOtFV4TPe87EkCEpCABCSw1QQiHsbkCo+tXgIOXgISkIAEJDAdgTGCI20VHtM9L3uSgAQkIAEJbDWBiIcxucJjq5eAg5eABCQgAQlMR2CM4Ehbhcd0z8ueJCABCUhAAltNIOJhTK7w2Ool4OAlIAEJSEAC0xEYIzjSVuEx3fOyJwlIQAISkMBWE4h4GJMrPLZ6CTh4CUhAAhKQwHQExgiOtFV4TPe87EkCEpCABCSw1QQiHsbkCo+tXgIOXgISkIAEJDAdgTGCI20VHtM9L3uSgAQkIAEJbDWBiIcxucJjq5eAg5eABCQgAQlMR2CM4Ehbhcd0z8ueJCABCUhAAltNIOJhTK7wGLkELl661N35uc93r7766iFPTz99rvvjz3z2mvJDRl3XHWVH/Ve++rVZM/r5pwe/e6hNylq/3ktAAhKQgARWTWCM4EjbSYUHh/MnP/Xp7ided92hD4fptqYh4cF8EAV8jkp/87ffmgmKITvq+eDr69/45oGggSdljOHI9MQTXfcHf9h1r7xypKkGEpCABCQggT4CEQ9j8lMRHhyip514k/DeD3xw9vZgzFiq8EBAtaKq3g+JEHwgyPoEBKyqj1xjf/bso93P/8IvHqof6qP7wQ+67k9vU3iMedi2lYAEJLDnBMYIjrRVeDx97kTLqO/tTQRV+/UJYqB9q9PaUE97/PIVDfU1RYBUP5TlvvV30BbBceuHu+5zX5h/fvcTcwFyYOCFBCQgAQlI4HgEIh7G5BsjPDic+Sueg5fEgcpf8xyo7SHf/lWPbX0TgD2HcvUXHzmsY08eu9ikLv0zntT9/be/3b3v12+dfXhD0R747T1jq+NNPW8rhn4DwhhrG67pk3EyNu7pm/bYkvCb34LMCtr/+cY3u+5XfrXr+MrFJAEJSEACEjgBgTGCI21PRXjkYCfnQOUQzcHOQco95RzaKc9BnPscuORVIHAAc6hTHkEB27YddvWrltSnH9r0iZ+MN8+LfjKP2PfNr9rTJgKEftvE/Bk7OePJmMjpI30igijDB2V8ehNvPXjT8Xd/59uOXkAWSkACEpDAcQhEPIzJT0V4DB2QHKoc7PzlnsM2ZRzCSbTPgcsBjU2bsFlGePT1g0/6wVeESR17FQbtGwzqPvqxj88ERvzQB/7IFwmP2Ne+Mo46T8ZE+Yvnz/d+PXNgy9sOPvywlB+Y+tbjAI0XEpCABCRwfAJjBEfabpTwYOocpPWtAod0fYOQa0TF+fPnDx3uFd1JhEcVKvHFePhEeDCeJMrrW4eUt29T4gMxQh/kRwkP+sH29jN39M4/42CefOUy9LVNxmQuAQlIQAISGEsg4mFMvlHCg8OYtwQcuBzWJA7YKkQqNA5w6nII17qTCI++fhgHvlrhwT3/aStvG7DhnsR19cM9HxJ+cj0kPPCDiMgblEcffWzGI3Os4gWfixjMOvV/JCABCUhAAisiMEZwpO3GCI96gPZdc2gncZ2DmOt60HOgc2hTX3/7wT1vS+IHu+P8xiO+W+GRsTBWxAQ5gqn6p3/6jNhIG/Ih4RE/5CSEDbb4xledE/X4ppz6iJ9ZQ/9HAhKQgAQksGICEQ9j8lMRHhyU9fOXf/XXs4OzHp4c4DlkOYQRAGmTwz08uU9d9ZFDmTreIlBX26Y+bSIu4iuig35SF8GTvhkbfnLoxy5jx4769JF2Q8Kjr5wy/OGDeTAuBAn38dvXR/oyl4AEJCABCayCwBjBkbaTCo9VTHrTfFThEQHUihPGTB3iICkCJSKn5rU9baoAon2EWBVRfX2kL3MJSEACEpDAKghEPIzJFR6reBL6kIAEJCABCewBgTGCI20VHnuwUJyiBCQgAQlIYBUEIh7G5AqPVTwJfUhAAhKQgAT2gMAYwZG2Co89WChOUQISkIAEJLAKAhEPY3KFxyqehD4kIAEJSEACe0BgjOBIW4XHHiwUpygBCUhAAhJYBYGIhzG5wmMVT0IfEpCABCQggT0gMEZwpC3C44/+6I+62267rXsNNyYJSEACEpCABCTQRyDiYUzuG48+spZJQAISkIAEJHANgTGCI20nER6XL1/uXnrpYvfssy/6kcHerQHWPjFgkoAEJLDtBCIexuSTCA823kuXfrjtvB2/BE5EgLVPDJgkIAEJbDuBMYIjbScRHrzpMElgnwkYA/v89J27BHaHQMTDmFzhsTvrwZlsMAGFxwY/HIcmAQkcm8AYwZG2Co9j49ZQAicnoPA4OTtbSkACm0Mg4mFMjvC44447ujvvvHN9/zmtm+7mLBpHcjoEjIHT4W6vEpDAagmMERxpi/A4c+bMTHys7d/xcNNd7YPX2/YRMAa275k5YglI4FoCEQ9jcoTHa3/vt7vXfuJ3fONxLWJLJLAaAgqP1XDUiwQkcLoExgiOtPU3Hqf7DO19TwgoPPbkQTtNCew4gYiHMfnGCY+LFy92Dz30UPfKK9f+8+3nzp2b1fU917Nnz3Z82kTZPffc0z3//PNt1eye8vvuu6+j331L8Bxi1lfe8oHdgw8+2PussI1/niV22OcZ1rLW7y7eKzx28ak6JwnsH4ExgiNtN0548BhzOJHffffdCz85IB9++OFrxAUChs9R4oJ+HnjggcEDlDEhTO69995DY1kkaLZhOTLv8KvjzVypPyrRfpEd/J988smZ8HjkkUcOhOMigXlUn6dV/8Uvfbnjc5Kk8DgJNdtIQAKbRiDiYUy+kcID0H1CggOOg6wmylpx8vjjj89EQrXlgFwkFKjvO4TT1zKHcdqsK0dIIYLIxyTYZc6wajnW+yFxARdEG3mbhnxS3vfcMpbWz6bcKzw25Uk4DglI4LQIjBEcabuxwgOovI7nUKsHYL2OkOAARqiQcijz13Vrm7K+Q5RDj8O87wDF7y4JDxjBLnzCkXnCIQJgSFTQvn7FEgEz9PUJQqP2QT9VWNIem01PCo9Nf0KOTwISWDeBiIcx+cYJjwiNvq8+hg4oDkrecnB4cfgtmyJw+K1HDt3Wx5DwSHltxzgy/vjOId8esNynLj4oq3bpg/nziT15+olN6qqIoo65wQgBkDb0lz6Zb3vPGOgvKYLjueeeOyQ8Uh8fGXvmTt98GBt94IcxxDd5HUf1t0nXCo9NehqORQISOA0CYwRH2m6c8ABkDjj+qs5BOpRzoN1///3dCy+8cCA8OPhin0MWvxxwORTrA6M//OADew7qNrUHO/7jm/b56oM+cujn4E2fueeQzXV80B+/haAf7NOG8vSdg7r2V+vr4c11xpH2ta/0zzzoC/swS17HQD/Y8MnzwUeb6It+zp8/P8uxxy4/LsUn4gcRlLdUlGVurb+T3v/5l7/SHfcz1EeERvLf+M3f6vjkPvlQ+1rubzwqDa8lIIFtJRDxMCbfaOHBgTUkFlLOIchBlsOSw5aDj/oc4vkLnYO9PUx5+JRxQJJyuLaLIof30AGJDw7X9E17bHP4xx/+sWXciB38tol6Pklt363wwGcVFbSLsAgHxlHHzjV9ZL7kSdTFH31zTY49dYuEBz7itx1H/JPH34ULFw781/qx18cVHdgNpQiL5AqPIVKWS0AC+0JgjOBI260QHhEVbd4eztxz4JLHlkNzkfBoBUA9aOtCorw9vPvq65g4pDOOmjOmJ5544uBwr364xkf10/bdJzyqPT4iPBAUtEfk0I6UOfLWoQoO6rivoiNzThvyo4QH8+YtFJ86b67rbz0yz3bss0Fu4P9EgJxkaL7xOAk120hAAptGIOJhTL4VwqPvYOJwq+UciBySHGz1sMRmSHjkcMZXTRy+1Td18d/apl0O7PRNObbc07ZNi+rou/bf9t0nPCIW0k+dG+2r8KA9ooMxRHikj/Sb+8y3MhkSHvTJW5/wfuqpp67pl3rsSO08MvZNzRUem/pkHJcEJDAVgTGCI203Wnjk331o/2rOPYckh1e+asnhS3lsKMtB2H7Vgl0O2vrQcmjnUKauPYirfRUR9Tptqh+usUkftf/8xgObKli4Zz4RAe2BPdRPeFBfhUfGjj98t/7SX+0zbcixrwIidfRDn+QkfjPDh7ngq84p86e8MoivTcwVHpv4VByTBCQwJYGIhzH5xgoPxAQHEodj38HUlnPYYceBlna1jAeTNjn0cjD3PTTaclByCJNyz0FZP4gjxhq71nfbLnb4jG38pa4t50eYjIXxJzFH2mUObT8pz9gXCY/4jIhL2/jMuKpdn/DoEySMmXFij18+/K6D+eR5Ucb1pieFx6Y/IccnAQmsm8AYwZG2Gyk8OOhy2EUsBGYOXA6z2FDHIZmDjDyCgEONNx55K0Ib6vkclSIAaj9Htdmmetgyt8yzvpHIPFJXRU/KIphqHrvYwJ/rpIib2KWc57GrnJmjv/HIkzaXgAS2mUDEw5h8I4XHNj8Uxy6BPgIKjz4qlklAAttGYIzgSFuFx7Y9dce7lQQUHlv52By0BCTQEIh4GJMrPBqo3kpgHQQUHuugqk8JSGBqAmMER9oqPKZ+ava3lwQUHnv52J20BHaOQMTDmFzhsXPLwgltIgGFxyY+FcckAQksS2CM4Ehbhcey1LWXwAkIKDxOAM0mEpDAxhGIeBiTKzw27rE6oF0koPDYxafqnCSwfwTGCI60VXjs37pxxqdAQOFxCtDtUgISWDmBiIcx+STC46WXLnaXLv1w5QB0KIFtIMDaJwZMEpCABLadwBjBkbaTCI/Lly/PNl7+6vMjg31bA4gOYsAkAQlIYNsJRDyMyScRHtsO2vFLQAISkIAEJNB1YwRH2io8XEkSkIAEJCABCRyLQMTDmFzhcSzUGklAAhKQgAQkMEZwpK3Cw3UkAQlIQAISkMCxCEQ8jMkVHsdCrZEEJCABCUhAAmMER9oqPFxHEpCABCQgAQkci0DEw5hc4XEs1BpJQAISkIAEJDBGcKStwsN1JAEJSEACEpDAsQhEPIzJFR7HQq2RBCQgAQlIQAJjBEfaKjxcRxKQgAQkIAEJHItAxMOYXOFxLNQaSUACEpCABCQwRnCkrcLDdSQBCUhAAhKQwLEIRDyMyRUex0KtkQQkIAEJSEACYwRH2io8XEcSkIAEJCABCRyLQMTDmFzhcSzUGklAAhKQgAQkMEZwpK3Cw3UkAQlIQAISkMCxCEQ8jMkVHsdCrZEEJCABCUhAAmMER9oqPFxHEpCABCQgAQkci0DEw5hc4XEs1BpJQAISkIAEJDBGcKStwsN1JAEJSEACEpDAsQhEPIzJFR7HQq2RBCQgAQlIQAJjBEfaKjxcRxKQgAQkIAEJHItAxMOYXOFxLNQaSUACEpCABCQwRnCk7aTC4+KlS90nP/Xpjjzpzs99vvunB7/bPf30ue6PP/PZ7tVXX01Vb/43f/ut7ided13v532/fush3zigL8ppN5Ton3r6ZgyMhTLGVsuG2lsuAQlIQAIS2AcCEQ9j8kmFBw+FAx3xwYFehUif8KDs53/hFw9EBteUkWiPH/wNJYRDFSO0/ejHPn6NOKE9tnd/556Z8Pj6N745u6ecMUaADPVjuQQkIAEJSGAfCIwRHGk7ufDgwXCQ5y3D0NuLKjJ4G9G+saiipX3Yecsx5JvyKlgYT59txtnWtWNp+/deAhKQgAQksIsEIh7G5KciPHgYiAPePuQNBvnQVy1VeCAYWiGQ+z5B0PaThfCVr37toO+UITSq4KG82tE3NiYJSEACEpDAPhIYIzjSdlLhkTcL+aqlPrRlhEff4R9xgp/69UxEyVBOu3xtgxDigy3l+Kpf5+QtTR231xKQgAQkIIF9IRDxMCafVHjwYCIw+B3FkBhIeQRGRAXt61uHKgSqTRYA7auP3NMuKaIjAiQ/LsUWAfP33/727K0H9pTVtvFhLgEJSEACEtgHAmMER9qemvDgwCfV32pUUVEfYBUV1YZr6kjVJm89KMMGIRMBQn+Ii/atSwQI9jVhT9sXz5+fteHeJAEJSEACEthHAhEPY/JTFx55A8LB34qKktIMPAAAET1JREFUiIUqKlqbVnhwz3/Jgh1vLOIjYqR+jUL97WfumAmKvGVJTh1tSPjIZx8XmnOWgAQkIAEJQGCM4EjbUxUevD2o/8ZGFRVVbHAdQVAFANe0IVX7LI+8xUjb2NZ+sGUci37oigB57wc+eCBE4t9cAhKQgAQksE8EIh7G5JMLDw59vuY4e/bR2RuJiAEeXH0rwRuHf/iHu2c29e1DHjDtWkGROnJECfXkSWlTy6g7d+6Z2QcRRJv6b39U8dK2i19zCUhAAhKQwD4QGCM40nZS4cHBz6GO8BhziNM2YiTCoIqF+vDzVqUVIdWG64iS/P6DMfK7DvzSX/oZM+62T+8lIAEJSEAC20Qg4mFMPqnwqP8mRv36JG8u2rw95CMOyNvE2xK+LkFoVLExJEjSPoKi/bFp3r60fTEmxm6SgAQkIAEJ7BuBMYIjbScVHvv2gJyvBCQgAQlIYJcIRDyMyRUeu7QinIsEJCABCUhgjQTGCI60VXis8QHpWgISkIAEJLBLBCIexuQKj11aEc5FAhKQgAQksEYCYwRH2io81viAdC0BCUhAAhLYJQIRD2NyhccurQjnIgEJSEACElgjgTGCI20VHmt8QLqWgAQkIAEJ7BKBiIcxucJjl1aEc5GABCQgAQmskcAYwZG2Co81PiBdS0ACEpCABHaJQMTDmFzhsUsrwrlIQAISkIAE1khgjOBI20mEx+XLP+4uXLjYPfvsi35k4BpwDbgGXAOugTWtAc5aztx1pYiHMfkkwgMQL7/8o3Vx0K8EJCABCUhAAl03O2s5c9eVxgiOtJ1EePCmwyQBCUhAAhKQwPoJrPPMjXgYkys81r8G7EECEpCABCQwGQGFR9fNvsubjLgdSUACEpCABPaYgMJD4bHHy9+pS0ACEpDA1AQUHgqPqdec/UlAAhKQwB4TUHgoPPZ4+Tt1CUhAAhKYmoDCQ+Ex9ZqzPwlIQAIS2GMCCg+Fxx4vf6cuAQlIQAJTE1B4LCk8Ll682D300EPdK6+8cs2zOnfu3Kzumoqu686ePTv7tHWU33PPPd3zzz/fVs3uKb/vvvs6+l2UsHvwwQcPxsX4uKd80biqT+Z19913934eeOCBA99pw5juvffe3nnF5uGHH56NoY6PfhhTLYu9uQQkIAEJ7DYBhceSwoPlkIOcfOigTjnCgpQDuC4nDmA+HMCLxAX99B381RfX9IU/Uj3UM95q344dARFxQ8548DGU6Ke2GZoDvhg7/SGE+HBNIg+foX4sl4AEJCCB3SKg8DiB8GAJ9AkJDtIc/FkmlEWEJH/88cdnh3a1PerNB/VHHdL1LQe+01+bV8GAXYRAxlxFS8qS5y1H67Pex98i27Cq7Ra9+Un/5hKQgAQksN0EphYe73nPe7qhT9+/cLrR/3IpBz1/zdfDs17nIOUgR6iQuObgf+SRRw61wzZlObjr0kJ0VMFQ69rr9u1DDvnWjvsqPOijjr9e941p6M1IK8oiQOpbG8roO19Z1XH0jdMyCUhAAhLYDQJTCw/ERZ/w6BMdlG2U8KhCox6iWQpDBzwHOm856kGbNsfJ0y9ff/S99Ug9QoE+2jQ0LuzqgY/vPv+xQdAgkKogWXSNr7ThKxbaRozBA4YIEFIrVto5eC8BCUhAArtB4DSERys+hkTHxgmPPHIO0/xeYdHBSx1i4f777+9eeOGFA+HBQZ52VcAMCYS8wcBHPawznuRpX/2nnzaPwIiowEcVHlzjj1Rt0hdlfEjY5j5tKGfcvKUhD7MLFy7MypgHb3iwR3wsmlf6NJeABCQgge0ncFrCI+JjkejYeOHBm4Yc9u1SSDkHbn1LwEHMIZsDlwP7ueeemwmZJ5988uAwr/6wiVCo4qDacJ0+U57DnnEOtcM37UjVhuuUV5vMJ/UIGupJCAgEGfOjzyTa9P14Fv/xEx9pYy4BCUhAArtJ4DSFx1GiY2uER/s2Iff1MK2/aaA8NhzSi4RHe2gvejvQCo9634oK7kmMJQKjtUl5bKhHOFGOmMr8IkaYEza5Z25VdNU5I0wylwix3QwxZyUBCUhAApWAwuME/1ULByt/2R/njUdgc8hyaHMQ5/COGBkSHvjvO5Q53HPoxz95FRo5/CMeqqiIkKAN1wgCxsWcsKNfrvERm/iZFXTdzIaxRUykvo4BW+6xwyepjiP3tX5m5P9IQAISkMDOEtgG4XH77bd3Z86c6V7DL03XkZaFEOHBbxRycOcArjl1EQCU54CtbSgbEh7Y8WlTBAmHeE3cY89hj5CIcMCGsowN4fPoo4/O7rlGANWEH2xbH7HJ+OvY4r+Wpd/U4bPWVzbYmCQgAQlIYPcJLHvmLkPkOF+lHGWD1njt7/1299pP/M5mCQ8OZQ5RDsx6mAZQW563G4iGtKtltEubCIsIlfisOW0RDREf5PyOYui/fKlth67Tb8RI+hgaR+pbQdH6Z77YINTgxliZK2XkESBcmyQgAQlIYLcJbIPwuOOOO7o777xzc4QHB2cO/IiFLJMcshyqsaGuigxscgjnjQcHctpQz+eoFKGQNy/0QapjwGffp46NNtwPveFgjhEfVWxEoAyNM4Kir6+2LX4RTfUtzZBfyyUgAQlIYHsJbIPwQHTcddddmyM8tvdxO3IJSEACEpDA6RJQeJwuf3uXgAQkIAEJbAyBx37QdW/9Utf9uzs298P4GOe60iT/cum6Bq9fCUhAAhKQwDYR2HTREUHEONeVFB7rIqtfCUhAAhKQQEMgB/s25M3QV3ar8FgZSh1JQAISkIAEFhPYBsGRMS6eyclrFR4nZ2dLCUhAAhKQwFIEcqhvQ77UxJYwVngsAUtTCUhAAhKQwBgC2yA4MsYx81zUVuGxiI51EpCABCSwkQReffXV7lOf/v3ubdffcM3nW3/333rHfOnSpe4DH/xwl/q7Pv+F7rvfnf+bTtThj5xEeex6nZ2wMIf6SfKv/6+ue+Jfj/dfw/zZA133r/+36z76349n3zeeE07xyGYKjyMRaSABCUhAAptIAPHxmc/e1p175pnZ8BAKfBAUrSBBcERUYBORkfZVeNTrVc+774BvyxAXNXGPkPi3y7W06370/xYLC9odV6i0Y+B+XUnhsS6y+pWABCQggbUSGBIeCBEEBfUkhARiJPd1ULE9f/77B2Lkq3/xXw7ETLVdxXXfAd9X9h//61w08MaCz/kfXRUZ1D378lyMpG0rVhaN9e7/fby3IIt8jKlTeIyhZ1sJSEACEjg1AgiJ9usW3ma0QoOvTfK1Sn3zUQe+zrcctZ8IhaNy3nD8j6e7DpGB6Lg411DV1eyatyDYPnLhsBAZ8o/oUHhcg9ECCUhAAhKQwNEEht54UI7QQEyQ8hUM15QhPvIbjvYrmXpPu1WnIUHQliMOkvhtRxUMVWTU69bH2Pv0v+rcNx6rJqo/CUhAAhKYhMDQGw86zxuOVpzUgVVBUsu5XlTX2i5zfxwxwFcr/H4jgiN5Xz+88bj/hWt//9FnmzLeoPAm5aixxH7VucJj1UT1JwEJSEACkxBoRUUVC/l6Jb/hwJZU22Bf33C019SvOh112FOf32tEcCTPVyT1LUe9bn3Tzh+XrvoJ6k8CEpCABPaWQBURQKjCI7/Z4IeiVUBUIVLtW4iL6lrbZe5bcdDe87YDscCPRyM4ao59FRv1Om3zNkPhscyT0VYCEpCABCRwBIEID95u8LuNvLHID0gp58eneduBu7wJ4RpxkTZ9eRUsRwzl2NWt0Bi6R3xUwZG3IG1H+XEpflqhwX2bqv1Q3ylv267q3q9aVkVSPxKQgAQkMBkBxET+i5YIjfqWgjcb7//gh2afKiCqTb1uB76orrVd5j6H+lF5FRr81y38Y2D81yu0q285cp3/+qX+2x6tEDmqz7Z+mXktY6vwWIaWthKQgAQksLEEIhbI//0v/fLs3+KIQKEs17z1IMW+b0KL6vrsj1vWHu5D93njQT0Cov4gNGKDulzz+w9s/ueL8x+aIlIUHsd9KtpJQAISkIAETkAAscBXJnkDEhcRHF/92l90H/v47/T+Z7bY8pYEwZKvXSJQ4mcV+ZDQGCrnTUb7j4UhNhAYJN5w3Pt/DgsTRAdfqQyl+lZkqF/K15V847EusvqVgAQkIAEJNAQWHfSbVtcMfWW3Co+VodSRBCQgAQlIYDGBTRMXi8azeCYnr1V4nJydLSUgAQlIQAJLEVh00G9a3VITW8JY4bEELE0lIAEJSEACYwhsmrhYNJ4x81zUVuGxiI51EpCABCQggRUSWHTQb1rdCqd9yJXC4xAObyQgAQlIQALrI/DWLx39/5GyCQKEca4rKTzWRVa/EpCABCQggYbAYz/ouk0XH4yPca4rKTzWRVa/EpCABCQgAQlcQ0DhcQ0SCyQgAQlIQAISWBcBhMef/Mlt3Wc/e3v3Gm5MEpCABCQgAQlIYF0E0Bq3336mO3PmDoXHuiDrVwISkIAEJCCBOQGFhytBAhKQgAQkIIHJCCg8JkNtRxKQgAQkIAEJKDxcAxKQgAQkIAEJTEZA4TEZajuSgAQkIAEJSEDh4RqQgAQkIAEJSGAyAgqPyVDbkQQkIAEJSEACCg/XgAQkIAEJSEACkxFQeEyG2o4kIAEJSEACElB4uAYkIAEJSEACEpiMgMJjMtR2JAEJSEACEpCAwsM1IAEJSEACEpDAZAQUHpOhtiMJSEACEpCABBQergEJSEACEpCABCYjcEh4PP74v3Svvvpvk3VuRxKQgAQkIAEJ7A8BNMZjj/1Ld/vtZ7ozZ+7oXvPFL/55h/hAjfiRgWvANeAacA24BlwDq1wDjz32VPeFL3yx+7M/u6M7c+bO7jXXvf2m7rrrb+reeP3Ns5z7N7z9xqv311+tf+M7bumum9nd3GH3xutv6d5A++b69T9346zsDT93Y6m/ueN+5p/8+pu7md0Vf9U3Pmf3s7HM/dNu9rlif+A791ds3/Bz87mQpw22r3/bjQf9X/f2+fhT/6Z33HKlrhnjzO7m7vVve/eVcc/HhS/a4nfGbTZ/+M3bM/5Dc71yPxvzjEH6T383X/GTctpfeSZpS55+wuf6ebuMgXqYMl7mlDEy3/kcYUKf8/FRRlvuc809z5U5xsecE2O7+rk6vqtl8R2uB+NiHVx59hlTe095tZ+PYz6W63iW+TCG2fjnc5nN7XrmMf/MGafuaj6f89U+MtawyHzSPgzaucfP1XJ8zllfndtN3S+/78NXP+//yJXrj3S//P6PdO+Z1ZF/aH59UPbhWVnbdm4/9ze7xt/7P9L9h/fO2x/4eR/tr37wQ93cH2Ogza2HbK5t+6GZ33nbw75on7FdM4f3XZ1P+piP78ocZ33PrynHD3bxx3xyPRvzFSYZX+YVm/jO/dwO//i+Ohbu6Sefef2cS9rMWc7HMh/7vE18/9KvffAKsw9d4T5nOJ/H1eeJfcY1z+dzZOzpnxy7jCP36Stjmvue283b1ueSOV5dY7N27/1Q90u/dmvHeN9InL9tvhewpokn9gWuyV//s+8+iDfuE3vzdX1T97qffdesbB4P8/it17S5ut5v7K4jvonzK31w/Ub27CtlM/vWJvVX9oYD+yttuX8T+/vb2W/nn5kN17G5/qbuJ9/B/jb/vJGz6+03dm+6nrbsa1fy6+dlc9srbWJzpe6n3nlz96brb+x+8h03dT99wy0H15TnQx0f7n/6Svmb33XLQf1Pzepof/PBh3ru38yH63fe1L35XbTH7qbuLe+6pXvzDTfN6il7y7tunn9uuKn7mXff0r2F/F03zz5cv/Xdt3RvxeadN3Y/Q/tZfWzI55+3kt9wY0f+1nffPPu85Z3vPqif2d1w4+x+bju3xyZtaX/gAz9XPil7S6mfj+fG7s3vePesDX5SRrs3c3/DjbP8/wOmhM6r6dYIxQAAAABJRU5ErkJggg==;" vertex="1" parent="1">
          <mxGeometry x="1500" y="112" width="542" height="945" as="geometry" />
        </mxCell>
        <mxCell id="5L7maJ-LGeqKzFt3YW2Y-2" value="" style="shape=image;verticalLabelPosition=bottom;labelBackgroundColor=default;verticalAlign=top;aspect=fixed;imageAspect=0;image=data:image/png,iVBORw0KGgoAAAANSUhEUgAAAhwAAAOwCAYAAAB1V61dAAAgAElEQVR4Aey9a69lV33uycfoFy0hIfG284JuJD5An7jbmA7dL5I+AuwyiEQCjA/SubgtNzmJ2paPTxIMRgrgC1JjbJJItqHVSlyEJnb5QuwyYMcXLrWrcEyVXSnXMuXLtnGVR+uZlWf7v8Yec6251tpzrnn5DWnVmHNc/mOM37g9a8y5dr1nNns94SAAAQhAAAIQgEBbBKQ13oPgaAsvdiEAAQhAAAIQEAEEB+MAAhCAAAQgAIHWCSA4WkdMARCAAAQgAAEIIDgYAxCAAAQgAAEItE4AwdE6YgqAAAQgAAEIQADBwRiAAAQgAAEIQKB1AgiO1hFTAAQgAAEIQAACCA7GAAQgAAEIQAACrRNAcLSOmAIgAAEIQAACEEBwMAYgAAEIQAACEGidAIKjdcQUAAEIQAACEIAAgoMxAAEIQAACEIBA6wQQHK0jpgAIQAACEIAABBAcjAEIQAACEIAABFongOBoHTEFQAACEIAABCCA4GAMQAACEIAABCDQOgEER+uIKQACEIAABCAAAQQHYwACEIAABCAAgdYJIDhaR0wBEIAABCAAAQggOBgDEIAABCAAAQi0TmBrguOee+9LN3/llpUa+NjjR9M1116Xdnd35/Lp/vobbkzHju3Mhec3Sqf8shOd6lKyG9Pk13W28nTcQwACEIAABCCQUuuC4+xsVm3m8qMrCY66tM7nTT6KA4dJcORlOJ99pz1IwfHe970/1X1cjvxcXEkcXXLpZfvyKiwXTspfV0ZduPjiIAABCEAAAn0h0LrgUEO1+X38iivnBEEuOCQWlCYKh7pNuW6TjeGy9YMf/nDljdo28vrmHVYnXvJ0ulc7JJKiUFLYZ6+6eo6JGCisJDhiXrHL76Og0TWCo9QThEEAAhCAwLYIdCI41LhcdETBYWHR9iZZJxJUbtzAm3RGna26vBZU8dQjFzWLBIeFUFO/bZZ17SQcAhCAAAQgUCLQmeBQ4fGbdxQcMTyvpMVIaaP1t/poSxt6nXioEwnLBIfzlepQCsuFRN4mPyLJRUGd4Mjz+34RN6fBhwAEIAABCPSBQKeCIzY4ioQYnl+XHj0ojTbbVQVHbrvpvQWHTycW5Yv1dT6LEuW32KizpTY5vRg5vcNW8XNBs6jexEEAAhCAAATaJNC64IgbaNPNMm6UcQOPIJoKDtlqWq7T5WLAwiEPj/Xxdam+q+S3nSa+GERWTfKQBgIQgAAEILANAq0LjlUblW+i2sBLv+aQOFBaOW26vpYoqHukorSL4uuEQV14qW1NBMcyEVR6JKN6WxAt882iVD/CIAABCEAAAtsgMAjBkf+aQ6C0qXpj7UpwLNvoHZ8Lhlyw+L50OhHbFQfEIqEU00UWMZxrCEAAAhCAwDYJtC44Fp1QeIPO/bgRl04MBCxuzHGTXbYxL4qve2nTAkF5l7lSfUv5ZSsXJqUwl6e4nFPdvYWY8+JDAAIQgAAEtk2gdcGxagO1WeaCo6tHKnWCY9U25OlLgkNp1FY//rEwqxM1Cnfa3H68j+IrhnMNAQhAAAIQ2CaBQQiOZY9UIsBlG/OieMXlpw6yHU8tdP2xyw/t/XGuPE/JfhQcEgQWVA73SYXy1jnFOd0ynxOOOoqEQwACEIDAtgiMTnBoM190EhAFgU8V4gZe2vS1gcdNPN7rVEQixfksInyvjnUal+O4vHwLkdJgUJ5F7XIe2Yh1dTg+BCAAAQhAYJsEWhUc+YbqDXeZHzde2fAJhzdz5/fGnW/oMX8Ot+nG7XxKn5965GFRgChfHn/y1KmqDQqXU/pFbbCwyNvrPE1923Fb8CEAAQhAAALbItCq4FinUdqMFwmGdWzGPNr0m27E3vAtFGzHAsfhqm+0qXyl/73WAiwXMLYr32VKVLTJIZbJNQQgAAEIQKBtAr0THG03GPsQgAAEIAABCHRPAMHRPXNKhAAEIAABCEyOAIJjcl1OgyEAAQhAAALdE0BwdM+cEiEAAQhAAAKTI4DgmFyX02AIQAACEIBA9wQQHN0zp0QIQAACEIDA5AggOCbX5TQYAhCAAAQg0D0BBEf3zCkRAhCAAAQgMDkCCI7JdTkNhgAEIAABCHRPAMHRPXNKhAAEIAABCEyOAIJjcl1OgyEAAQhAAALdE0BwdM+cEiEAAQhAAAKTI4DgmFyX02AIQAACEIBA9wQQHN0zp0QIQAACEIDA5AggOCbX5TQYAhCAAAQg0D0BBEf3zCkRAhCAAAQgMDkCCI7JdTkNhgAEIAABCHRPAMHRPXNKhAAEIAABCEyOAIJjcl1OgyEAAQhAAALdE0BwdM+cEiEAAQhAAAKTI4DgmFyX02AIQAACEIBA9wQQHN0zp0QIQAACEIDA5AggOCbX5TQYAhCAAAQg0D2BVgXHU794caUWvfDCC+nxxx+vPg888EBa9HnkkUfSo48+mn7961+nJ554Ir3++uuV7zw/+tGPqjBVYGdnp4rLK6PyZEc2lP7s2bN5kupe+R9++OGldVMa2dAnt/f0009X+Y8cOVLFqb44CEAAAhCAwEERWHXPXaXc3/zmN2nTTy8FhzbjOpHgcIkFbd4WGNrstckrXhu+RMivfvWrapP/+c9/XhQcSiMhICff17ETZMu2LWpUhpzrousoMuK14mRXZVlQPfnkk5VNpcNBAAIQgAAEDoIAgmMFit6QLTgsJnJfm7edNm3dWww4rcTHIsHh0w1v+rlIkH3bfO655/YEi8pyGblfOuGQ2FBdZCtvnwSTwnAQgAAEIACBTQkgOFYgmG/IUVjYTDxVUJiEgjZ6bd7ym5xwaPP3aYjtyvdJRAzTdSxTddJ9Hh4Fi68lVCw2lD62z/d6pKP0OAhAAAIQgMAmBBAcK9DzhqxHDotOEhSntH6k4k095lFY3QmH0umTOwuR/NHKuoIjFxJun8rBQQACEIAABA6SAIJjBZoWERIDcZOPJvJwbepKr03c+WKY8jqPBYUFSrTra+XVSUkUHc6vNCojf5Tiez9ScZpF5bg8fAhAAAIQgMBBEEBwrEBRm7w3+rjJy4Q3cW3uTqPwKC6URqcjOvnwCYdPQZRH8foscxYmsiU7KlP1kVN+X0c7qofSPvPMM3tlqEyLkTrfIiXa4hoCEIAABCCwKgEEx6rESA8BCEAAAhCAwMoEtik4fu/3fm/pz2Z79bPYlemSAQIQgAAEIACBisC2BIfEhj+L/lYHgoOBCgEIQAACEBgBgW0IDguN6NeJDgTHCAYZTYAABCAAAQh0LTiiyMivS6IDwcEYhQAEIAABCIyAQNeCoyQqFoUhOEYwyGgCBCAAAQhAAMHBGIAABCAAAQhAoHUCCI7WEVMABCAAAQhAAAIIDsYABCAAAQhAAAKtE0BwtI6YAiAAAQhAAAIQQHAwBiAAAQhAAAIQaJ0AgqN1xBQAAQhAAAIQgACCgzEAAQhAAAIQgEDrBBAcrSOmAAhAAAIQgAAEEByMAQhAAAIQgAAEWieA4GgdMQVAAAIQgAAEIIDgYAxAAAIQgAAEINA6AQRH64gpAAIQgAAEIAABBAdjAAIQgAAEIACB1gkgOFpHTAEQgAAEIAABCCA4GAMQgAAEIAABCLROAMHROmIKgAAEIAABCEybwKc//emE4Jj2GKD1EIAABCAAgVYJSGzIIThaxYxxCEAAAhCAwHQJWGyIAIJjuuOAlkMAAhCAAARaIxDFhgpBcLSGGsMQgAAEIACBaRLIxYbuERzTHAu0GgIQgAAEINAKgZLYUEGTFhz/9IsXW4GNUQhAAAIQgMAUCdSJDbFoc8/9zW9+kzb9zGavp/fonzbciV/P0ksvv9qGaWxCAAIQgAAEJkVgkdjQXqs9ty23qdhQ/lYFx9tvX6gASHXpqIcPDBgDjAHGAGOAMXCwY0B7rMSG9ty2XO8FR1sNxy4EIAABCEAAAt0RQHB0x5qSIAABCEAAApMlgOCYbNfTcAhAAAIQgEB3BBAc3bGmJAhAAAIQgMBkCSA4Jtv1NBwCEIAABCDQHQEER3esKQkCEIAABCAwWQIIjsl2PQ2HAAQgAAEIdEcAwdEda0qCAAQgAAEITJYAgmOyXU/DIQABCEAAAt0RQHB0x5qSIAABCEAAApMlgOCYbNfTcAhAAAIQgEB3BBAc3bGmJAhAAAIQgMBkCSA4Jtv1NBwCEIAABCDQHQEER3esKQkCEIAABCAwWQIIjsl2PQ2HAAQgAAEIdEcAwdEda0qCAAQgAAEITJYAgmOyXU/DIQABCEAAAt0RQHB0x5qSIAABCEAAApMlgOCYbNfTcAhAAAIQgEB3BBAc3bGmJAhAAAIQgMBkCSA4Jtv1NBwCEIAABCDQHQEER3esKQkCEIAABCAwWQIIjsl2PQ2HAAQgAAEIdEcAwdEda0qCAAQgAAEITJbA4ATH2dksffaqq9OxYztznabwj19xZXrv+96fLrn0srl4pVUepWnidnd30/U33Lhn455770v6uIzHHj+6z4zCbv7KLVW4ylN+2alzrtPOzvG9eqvu8VMqp84e4RCAAAQgAIE+Exic4PDGLj9uzhIbJUFhkRDT5tcSE9G5DIdFwXHy1KlKIORiQGLDYcsEh+p0zbXX7dU3Fzj5vesx5585k9J/+E8pycdBAAIQgAAEek5gcIIjbuxmm2/gMVxC5DOf+3y1wecnDhISJaGSl2HBYbu5L4GhU5VcyOT3sqM6yL7qrHwfu/xQevrpZ+ZOVBR+622358XM37/+ekr/5SYExzwV7iAAAQhAoKcEBiU4tBGXHo2UBIfC4qMXb+7y9ZFAkADIneL0OOSBB480EhDKnwsU28gFjtK6bIsRnYoonU48fEKS25uro4SGTjb++D+nJFEiX/cKx0EAAhCAAAR6SmAwgsObculEoiQ4ct7azL3J288Fh8vQ5h/FgtLdf/jw3GMQ25eAyE8jFgkO55OocPkuV2G+Vh3zd1Gct/Ifejily/6XlOTjIAABCEAAAj0nMBjBoc1ZQiC++2C2JcGRCwxt5rmTTYsPbe5f+/qt1SOO/IVP5a0THLlN3S8THCo31kf1l5CKYkrCQ2kUt8/pNEMnG9/97kWf0419iAiAAAQgAIF+ERiM4Pj2Xd9J+kWHBMeiX3ZYQOSnFMKujV6fOqcyJFSi4NDGr3uFl8SORIHLbOI/9PAjlR2nlchwu3RS4vqpvChK5uqsUw29vyEnn1OOOTzcQAACEIBA/wgMRnAIXekkY1F4fsrhTT73lc4uP53wvX6dUhIcziffaSVS5CQYou2YNl4rjWyrDL13kr9EGtNyDQEIQAACEBgigVELjtghdWJFJwpRFJREg9Lk+ZUnP4HIw5oKDtmPJxsSRL6PbeAaAhCAAAQgMFQCkxEc2vxLm3guCqLgkIDwexUlwRHtKT7+KkYDIrcte3/+FzfPPYLRyUbMpzwSHAr3SclQBxf1hgAEIAABCJjA6AWHBETdT2D9fobS2Flw5H/gKxccEhsWHHVl5IIj5nF5SqNw1UUiw0JD4RY7TosPAQhAAAIQGCqBwQoOnwTk72P4/s/+4ktzG7g7yOLA6WQnOgsOvShqQeH4WKbEwKkXXyyW4fTK73Lk5z9zdVkWN3l58YTFNvEhAAEIQAACQyQwKMExRMDUGQIQgAAEIACBlBAcjAIIQAACEIAABFongOBoHTEFQAACEIAABCCA4GAMQAACEIAABCDQOgEER+uIKQACEIAABCAAAQQHYwACEIAABCAAgdYJIDhaR0wBEIAABCAAAQggOBgDEIAABCAAAQi0TgDB0TpiCoAABCAAAQhAoPeC4/z58+n06bPpxImTfGDAGGAMMAYYA4yBlsaA9lrtuW253gsOAZjNzrXVfuxCAAIQgAAEIJBStddqz23L9V5w6GQDBwEIQAACEIBA+wTa3HMRHO33HyVAAAIQgAAEBkEAwTGIbqKSEIAABCAAgWETQHAMu/+oPQQgAAEIQGAQBBAcg+gmKgkBCEAAAhAYNgEEx7D7j9pDAAIQgAAEBkEAwTGIbqKSEIAABCAAgWETQHAMu/+oPQQgAAEIQGAQBBAcg+gmKgkBCEAAAhAYNgEER8P+293dTdde98X04Y98NO0cP17Mdd93v5c+8MEPpaNHn6jifa8wf758y1dr42Rf5djNZrN0+aFP7dmTXd0rPDrV56qrv1CFO08pnfOoDova4XT4EIAABCAAgYMigOBoSNKCQ8LBoiFmVfwNN96UPnHok3sCQYIjFxHOU4qzQLFgsXjw/SqCQ/WUvdzJpuqketYJpzwP9xCAAAQgAIFNCSA4GhK04JCo8GlCzCoxoDht5hYIJVHhPHVxUVRsIjgkikpiR+Xedsc3qzYgONwb+BCAAAQgkBN466230pkzZ5L+bHjJnTt3Lr388svp7bffLkXvC0Nw7ENSDrDg0IatzVy+neOOPPTwxoLDtmR/E8GR10V1lT2JJYka+QgO9yA+BCAAAQjkBC5cuJBOnz6ddnZ20quvvjoXrfvjx4+nl156Kb3zzjtzcXU3CI46Mll4FALxFELJ/A7FqVMv7hMcfnfDfpPTDwuaTQSHypFoiaccCtO96ongyDqYWwhAAAIQ2EdApxzPP/98JS7eeOONKl6+xIbCFd/UITgakoqCw9cWDxYIeXi+4ceiFsXZ3qaCwycaEkSxbjE81olrCEAAAhCAQE7gzTffrMTFiRMnqkco8iU2FL6KQ3A0pOUNW0JBzoIhnhY4jYWI0yg8d3Vx0camgkNlSrzo41MY2URw5L3BPQQgAAEILCJg0fHUU0+tJTZkG8GxiHCIsxCw4PCmrRdFtaHLOc0mgkN5/ZPWXHBINJR+XaI8fnRSyqPHJ4rP6y57OAhAAAIQgEATAhIdeoF01ZMN20ZwmMQS32LCm7aSS2jo3QwLDKfxfd0phvKW4hQW/z5GLh5s3+JCdpzG9fK96+A8uV3e4VjS4URDAAIQgMA+Ak1fEN2XkROOkyUmxTBv3N7YlUgnBDrhUJyc03izV1q/LGrfYmFRnCuQi4dYhu3Jj3Uq5VF9fAojG0qD4DBlfAhAAAIQ6IIAJxxdUKYMCEAAAhCAwMQJIDgmPgBoPgQgAAEIQKALAgiOLihTBgQgAAEIQGDiBBAcEx8ANB8CEIAABCDQBQEERxeUKQMCEIAABCAwcQIIjokPAJoPAQhAAAIQ6IIAgqMLypQBAQhAAAIQmDgBBMfEBwDNhwAEIAABCHRBYNKC4/Tps2k2O9cFZ8qAAAQgAAEITJaA9lrtuW05/cn1TT+z2evpPfqnDXf+/PkKgFQXHxgwBhgDjAHGAGOgnTEgsaE9ty23qdhQ/lYFR1sNxy4EIAABCEAAAt0RQHB0x5qSIAABCEAAApMlgOCYbNfTcAhAAAIQgEB3BBAc3bGmJAhAAAIQgMBkCSA4Jtv1NBwCEIAABCDQHQEER3esKQkCEIAABCAwWQIIjsl2PQ2HAAQgAAEIdEcAwdEda0qCAAQgAAEITJYAgmOyXU/DIQABCEAAAt0RQHB0x5qSIAABCEAAApMlgOCYbNfTcAhAAAIQgEB3BBAc3bGmJAhAAAIQgMBkCSA4Jtv1NBwCEIAABCDQHQEER3esKQkCEIAABCAwWQIIjsl2PQ2HAAQgAAEIdEcAwdEda0qCAAQgAAEITJYAgmOyXU/DIQABCEAAAt0RQHB0x5qSIAABCEAAApMlgOCYbNfTcAhAAAIQgEB3BBAc3bGmJAhAAAIQgMBkCSA4Jtv1NBwCEIAABCDQHQEER3esKQkCEIAABCAwWQIIjsl2PQ2HAAQgAAEIdEcAwdEda0qCAAQgAAEITJYAgqODrt/d3U3X33BjOnZsJ52dzdI1115X+aWiH3v8aBWvPDgIjJGAxvh73/f+vc8ll16W7j98OMmP4b6++Su3VBg0fzSP8rnRZM5o3n38iiuT0i5zsq85qvKVftmcXWaPeAhA4CKBwQgOLTpaBOJi40Xknnvvm+tP3WtxUfyqTnm9wK2aty59bjO/j/luve32SpgozO3zwmt/adv+y00pPfRwNMs1BHpHQPOgJAAUrk/uouBQPs+H3M/nhwXEsnmtMm0r1quuPnn9uIcABBYTGIzg0AKQLyRedHIhooVl2eJSh0WLy7p5Sza1SH72qqvnxI+FRFzUlFdp9U1PTnXQdX4aorx52L5y77obwbEPCgF9I6C5ls8Bi4M8XHWPgsP3H7v80J5A15yRzehsz0Ki5Ofriuy4/EX587JiuVxDAAL7CQxGcGix0ZGrFwI1RRNeC0hcMOo28/1NL4fI5kEJDtVFYkN1z53C4mKphU3lKo/a6OtcXCwUHBIaV34qpdtuv/j5/f89pZ/9LC+aewj0goDmWpzPqpTmRS7QFa75YLGg+a554fuSr/ReM+L6EBtuMZHXQXkd5rnYJF9MwzUEILCfwGAEhxcHf6vwvU4BtKB4gcg3coXHBUmLiZ3itHDdedfdVRrZjoLDZXjBspixvbq6KP0TP/nJPoHkcu17QZQdX8t2XXku1/G2M+efOXNRdOixCg4CPSagce9562pqfsY56nD5miOldzhiGl97rqoMzWO/Q+X4fJ3wXPccs++5Fm143VAYDgIQaE5gMIJDTdLiIYGgia4FxacHWqAUJxcXA13rVESLi5wXFS9oitfC4rxKo2vF52njAqZ0vpcNp42Lk+opO164Sr7q9vTTz1Rtcp0koFxflSE78u1KYY6rfJ1y6ITjj/8zpxtzYLjpCwGN7/iCqOdoDP/M5z4/Ny9Vd8VbcHjuluaV14jYXs9XfblQfCmN0nsu5+UrPBct0T7XEIDAcgKDEhxacHzcqgXHi0YUItq4de+FI4oJ4chtWCQYlQWH7Ni+4mIZTrusLKcriQSFWTA5ndqkl0ZVJ312do5XdVBau5ItxyWdbvyH/5QqXy+Ncsqxh4aL/hHQnNKYt9N88kfhnl+OzwWH4nMX0+RxSm9xk8f5Xl8A9KhT5Uv8615Cw77C4qNQ58OHAASWExiU4NBmq404X4wsIk6eOlVt0Iq34NB1dErrBUNxUVQonRZBfWvKFyaH59+otIjVleVyS4tgLjhsIwogtzcvM6ZxGfgQGBqBKDg0Fz2uNac8b3WtdHJxHik+nxe+j3O6bg45rXyXqzmoExAJDJcvX/Zkxyccqo/qhYMABFYjMCjBoaZpovtY1IuCN2uF+wTEYV6sjMXiRAuIFxOltfNiIt8LkeJ0Hxcyp5fvslyfGOe8eT1UvheyPL3vS2lKYU6PD4EhEdCc0JzRmNZc8/yJgiOOd81dP4rRI4/Spm9R8swzz1ZplV5pFV5y0b7r4/LjvNa1BUcML9kkDAIQKBMYnODQohS/lbhZWiTyRUhp40mFFwpv/orPRYTivJDJt+jwYudFUeX6b2bYboxzvZTPJyoOk69wi6MYLhtqn+rt+mlRtIsLpMPwITBEAppfPmmIc0fh8V5ti3NR954nzh/9OKejUCgxivPp23d9pxI/Lj+uBbkdz02F4yAAgWYEBic4tEBIBGhRiM4LkMWE4xzuBSnGlxaNuMjIhsqxaLHosC3ll6sTHE7vdK6TfJUTF8ZSu+Ji6LylMMfhQ2AIBDwnS/NC9feG36Qtnq+y5TVB806nEZqXnpuesyXfXypcXql82fEJh9PhQwACqxEYnOBYrXnbS62FsLSQxQWvbsFVrZU/ps2vLYK210JKhkA7BEobfizJgkVzQvNEzuLe88Thy4RCScDH8qNgiV8QYn24hgAEmhFAcDTjRCoIQAACEIAABDYggODYAB5ZIQABCEAAAhBoRgDB0YwTqSAAAQhAAAIQ2IAAgmMDeGSFAAQgAAEIQKAZAQRHM06kggAEIAABCEBgAwIIjg3gkRUCEIAABCAAgWYEEBzNOJEKAhCAAAQgAIENCCA4NoBHVghAAAIQgAAEmhFAcDTjRCoIQAACEIAABDYg0HvBcf78+XT69Nl04sRJPjBgDPRwDGh+ap42ccxn1jHW8v6OgVXmcpP5nqfpveAQgNnsXF5v7iEAgZ4Q0PzUPG3imM9NKJEGAtshsMpcXqeGvRccUsM4CECg3wSaztOm6frdWmoHgfESaHOOIjjGO25oGQQ6I9B0kWqarrOKUxAEIDBHoM05iuCYQ80NBCCwDoGmi1TTdOvUgTwQgMDmBNqcowiOzfsHCxCYPIGmi1TTdJMHCgAIbIlAm3MUwbGlTqVYCIyJQNNFqmm6MbGhLRAYEoE25yiCY0gjgbpCoKcEmi5STdP1tJlUCwKjJ9DmHLXg+Id/+Ie06sd5Z7PX03v0Txuuzca3UV9sQmCKBJrO06bppsiQNkOgDwTanKMWDauKDaV3XgRHH0YJdYDAFgk0XaSaplNTfvKTn6QXXnhhX6vOnj2bfvSjHyX50ZXCn3jiibSzs1PZefzxx9Prr+//YvT0008nfZT/4YcfTg888EDxozQ4CIydwCpzdFUWFg2jFRyz2SxddfUX0s7x443YfPmWr6YPfPBD6drrvph2d3cb5Skluu+730uyhYPAFAg0XaSaphMzC4hf//rXC4WABIIEiMSExIWvnV++hMsywRHLVB47XT/yyCNF8eM0+BAYC4FV5uiqbUZwBGJHjz6RLj/0qSSRsqmLgkP2ZFf2cRAYI4Gmi1TTdGYkAZGfLEQh4XTR96mG8tWdVhw5cqSyK99pdLphcaJwn4wovHTSEsvkGgJjIbDqHF2l3QiOQEsiYdOTDZtDcJgEfh8JXLhwofr/T+SX3LL4PE/TRapputz+IvEgwVASJfFUoukJh8uV2JBdCQ/Ehqng95HAsrm6LD5v07pzNLdTuh+d4NBjEIkGPRbR57Y7vjn3SCWP92MPP0pxPgkGOfkOi6cfuTix3ZhPNvUo58Mf+WjRRqlDCINAFwR++9vfppMnT6aXXnop5aJD96dPn67ila6Ja7pINU1ngVHa8OtOOHSyIZHgRyqx3k0Eh+z6HQ7ZktNjGtlDfKt2yMEAACAASURBVESaXPeJwLbm8joMRiU4vOlbRAiIrrXha+PP430fRUI84VCew9//+4qr09p2U8GhzDxSWWdokqdNAu+880565ZVX0rFjx+ZEh8XGL3/5y2rcKl0T11RINE2nMrXZ672LJ598cu+xhzb+0sfCxMKiSR6LCoubXKgoPD85acKCNBDoksC25vI6bRyV4JBA0Aui8R0MXful0dI7GhIOdSIiB7oorQVJFC+2i+DISXLfBwISF/pWb9Fx8b+OP50kNhSen3wsqnNTIdE0ncqy4JCIqDvVyMMtOJRXLsbrMYlFhuL82EQCxsLCpyQlUZMLkqoA/oFADwhsYy6v0+xRCQ4JinhCISC54PDjkeg7T35qkT8OUZ66tAiOdYYfebZNIC5Uzz777FpiQ21oKiSappPNXHD4cUcuBvyyp/LkgiPeR8ERr+tOMurCt91nlA+BEoGu53KpDsvCRic44nsWarxEwycOfbLySyccEVAUHLmAULoYH68Vl6dXPCcckS7XfSWghUqPV/TzU/m6X9U1FRJN06n8XHDohEEnFtHFEwyFR4GhOIkRn17UiYw6YVEXHsvnGgJ9ItDlXF6n3aMSHH50oc1eziLA73Dk8UqjtP65ahQRzmtbzusTDuWxXdnRvU5AnF4+gqPqBv4ZAAEtVG+//fZaYkPNayokmqaTTQuO5557rnqXo8kJh0SFhMmvfvWr6hcmureTGNG7Hjoh8TsfirOwUNr89CS/j/ZsFx8CfSLQ1Vxep82jEhwCkD8G0UuffodD8RYOfqRigaA4XVtQ5LZ0cqJfvMR4CQrbueHGm6o424uCw7aVNj+BURwOAkMn0FRINE0nHhIcEg8SGjp9WXbCITGgtEoX39VYxtaCI09XF56n4x4CYyKwyhxdtd2jExyrAiA9BCCwOYGmi1TTdKpR/ngkCo54GqFwiZP4p9AlFvLTifz+scceqwRKPO2IJBAckQbXUyGwyhxdlQmCY1VipIcABPYRaLpINU23rwACIACBTgi0OUcRHJ10IYVAYNwEmi5STdONmxatg0B/CbQ5RxEc/e13agaBwRBoukg1TTeYhlNRCIyMQJtzFMExssFCcyCwDQJNF6mm6bbRBsqEAASa/+JsHVYIjnWokQcCEJgj0FRINE03Z5wbCECgMwJtzlEER2fdSEEQGC+BpotU03TjJUXLINBvAm3OUQRHv/ue2kFgEASaLlJN0w2i0VQSAiMk0OYc7b3gOH36bJrNzo2wW2kSBMZBQPNT87SJYz43oUQaCGyHwCpzeZ0a9l5wXPwfLM9WfzpZyosPDBgD/RoDEhGap00c87lffcdcoj/iGFhlLjeZ73ma3guOvMLcQwACEIAABCAwPAIIjuH1GTWGAAQgAAEIDI4AgmNwXUaFIQABCEAAAsMjgOAYXp9RYwhAAAIQgMDgCCA4BtdlVBgCEIAABCAwPAIIjuH1GTWGAAQgAAEIDI4AgmNwXUaFIQABCEAAAsMjgOAYXp9RYwhAAAIQgMDgCCA4BtdlVBgCEIAABCAwPAIIjuH1GTWGAAQgAAEIDI4AgmNwXUaFIQABCEAAAsMjgOAYXp9RYwhAAAIQgMDgCCA4BtdlVBgCEIAABCAwPAIIjuH1GTWGAAQgAAEIDI4AgmNwXUaFIQABCEAAAsMjgOAYXp9RYwhAAAIQgMDgCCA4BtdlVBgCEIAABCAwPAIIjuH1GTWGAAQgAAEIDI4AgmNwXUaFIQABCEAAAsMjgOAYXp9RYwhAAAIQgMDgCCA4BtdlVBgCEIAABCAwPAIIjuH1GTWGAAQgAAEIDI4AgmNwXUaFIQABCEAAAsMjgOAYXp9RYwhAAAIQgMDgCAxOcJydzdJnr7o6HTu2Mwdb4R+/4sr03ve9P11y6WVz8UqrPErTxN38lVvSPffe1yTpvjTKq08TpzJUX6eX/9jjR5tkJQ0EBk9AY/2aa69Lu7u7a7VF81n5l81rleM5FvNo/pXK13px/Q03VvWK6RdVUvZlz3Na8zp+SuUsskccBMZIYHCCw4uH/DihJTZKC4/CLERi+nitRcJO6bV4eBHMy3E+L2DOJ1926urhdFrMJIhkJ9qIi5zT4kNgzARuve32vS8GdfN00XxSnmWCQ/NY4kHzSy7mOXnyZDVnczFg4ZCnr+uLmF5pvEY5fX7vcHwITI3A4ASHNmlN4OjiIpKHa8H6zOc+X/wmUxII9x8+XC1Otqn7KAxkv7SAyJbFSJ0f653bqMufL4axfVxDYKgEJAA0t+Q0v3SdiwfPQflOVze3Ynicr7mQz21WhsM/il/2BUVluQzNY81d10/h+dyOwioUxSUEJkdgUIJDi0fp0UhpEVFYfPSivB+7/FAlJnStUwYvFO51hWtxkPPCkS8eioth+galhVKLkMJLTuV4gXJ8tFGqv9KV8jk/PgSGSkBzRvNB497zoDQH8jDPSbdb8QrzaaTCbc9pFP/Ag0f25mgUJvHaJymac3FdyOtgu/Zl33b85UB18LXWFD+ecR58CEyVwGAEhzd2Lwyxw5YtCkqrRcALg/24sCiN7h2nhaQun9I4Xr4Xl3yxcp1jObEMlyVf9XMdlEZtioKpiuQfCIyAgAW/xr3ns8Z76WTB8Wq25prnie5Lm7niPTc952MelaP4O++6e05YyJ7jooBRmOa3/DqnesQvQirP75G5DnHNqLNDOATGTmAwgkObsCZ+afKXFoU40esme9z8vUBosdFi5EVHdryAeTCUwhyntKqjbNim46KvsnXikn/7Ubg+OAiMnYAfX6qdpTmch2luae7Zef7GMM9N5ZUI0ByL8RYpJcFhu9HP6xDjdO1yZNfO9YrzWHWI906LD4EpERiM4Pj2Xd9JOzvHq81cfunbkISFP9r0LRrcoZrwyya9HqloMbJI8QJmG/JLYY5XnPIuKkeLlISGFlAtVFp4XTf5Kl/1X2TD5eFDYIgENE801zSP9fHc1tywyzf7KDh8quC1wHPFc9PzKuaRXcd7vrks+Qrz+tHEV3rPd6e3XbXNX460DsUXV2OZXENgSgQGIzjUKfkC5I6qC88XAy8Kua90clqkdCqhRcquzkZMo7S6z+3m9y5HAkOiwjZUfz8+8YLlBVVxOAiMiYA2YG3G8XGJxnnpS0RMo/miOaRPPD20Pcd7XomZw8zP955nDs/9fE1Zlt75XRfVUXlcXqyT0+JDYGoERi04YmfmC4jjtChYCDgs+orLFwuHeXGRsNAvYWSrznnhkZDQtx/bUHovTL62nRheZ5dwCIyBQGl+5mGaQ5prpdNLzUWdIkQhLy6ed7qOIl5zy/PMeRVvp+v4uDOmd5qSH+vs9SGKplIewiAwFQKTERxaeLzAxM6NC5LD48KmN9x1H10UCw5ftiC5HOX1R2FxEZStaEeLl08+XA4+BMZCQPNAAkKnFbr2Iwi3L27eCvMccnzJl504X53Hm7/XgDjPFKd0Kk/OaWXLLqZXmObtX37t61WdfZKpdvhRqdMoTPHRlm3iQ2BqBEYvOLQwaNJ7oYkdrIUlPlvVopAvDvkCpvylMNn3wlPnx0WnZEO284Ut1pdrCIyBgDZ2feuPwiAXF2pnHmbxsIhBPq+cR/MqnozEeRbLKdVN5cX0us/LUVj88qB4ryWL1qBFbSEOAmMjMFjBoYWkbmNX+J/9xZeqBSYuMuo8T37njYte7Fx/y3G6kh9t5wtStKVrL3wOzxcs5VcZEkeqIw4CUyHgsV+aY3FO5HPIfCwSnF9zy0559Jgl/mxVcfk6oDoobd3jDwsIlyE/liObrp9s5Xa8nigOB4GpEhiU4JhqJ9FuCEAAAhCAwNAJIDiG3oPUHwIQgAAEIDAAAgiOAXQSVYQABCAAAQgMnQCCY+g9SP0hAAEIQAACAyCA4BhAJ1FFCEAAAhCAwNAJIDiG3oPUHwIQgAAEIDAAAgiOAXQSVYQABCAAAQgMnQCCY+g9SP0hAAEIQAACAyCA4BhAJ1FFCEAAAhCAwNAJ9F5wnD9/Pp0+fTadOHGSDwwYAz0cA5qfmqdNHPOZdWyqa/kq86TJXBpimt4LDnXSbHZuiGypMwQmQUDzU/O0iWM+N6FEmjESWGWejLH9alPvBYfUMA4CEOg3gabztGm6freW2kFgPQJTH/8IjvXGDbkgAIFAoOlC2jRdMM0lBEZDYOrjH8ExmqFMQyCwPQJNF9Km6bbXEkqGQHsEpj7+ERztjS0sQ2AyBJoupE3TTQYcDZ0UgamPfwTHpIY7jYVAOwSaLqRN07VTS6xCYLsEpj7+ERzbHX+UDoFREGi6kDZNNwooNAICGYGpj38ERzYguIUABFYn0HQhbZpu9RqQAwL9JzD18Y/g6P8YpYYQ6D2Bpgtp03S9bzAVhMAaBKY+/hEcawwaskAAAvMEmi6kTdPNW+cOAuMgMPXxP3rBMZvN0lVXfyHtHD/eaMR++Zavpg988EPp2uu+mHZ3dxvlKSW677vfS7KFg8AUCDRdSJumMzPNI81HfS4/9Kmk+YyDwDYJ/OXXv5H0WcetOv7XKaPPeRAcoXeOHn3iwBa1KDi0SGqxlH0cBMZIoOlC2jSdGOXzUQJ+0y8CY2RPm7olgOBYnzeCI7CTSDioBQ3BEcBy2TsCb731Vjpz5kz1fxuUKnfu3Ln08ssvp7fffrsUvS+sqZBomk6ni5qLmkd2OqX8xKFPNj6tdD58CBwkAQTH+jRHJzi8UPkY9rY7vjn3SCWP92MPP0pxPi908h0Wj3QVHsWJ7cZ8sqlF8sMf+WjRxvrdRk4IbEbgwoUL6fTp02lnZye9+uqrc8Z0f/z48fTSSy+ld955Zy6u7qapkGiarvQolJPCOvqEd0kAwbE+7VEJDm/6FhHComtt+Nr483jfR5EQRYTyHP7+31d0nda2mwoOZWahXH+AkrM9AjrleP755ytx8cYbb1QFyZfYULjim7qmQqJputJphucgjyab9grpROBr37i10aeOlgWG/U//0WeSPr63X5c/hjcd/zHPmK5HJTi0SOkFUW3wdvGbUv5MWGkkHOpEhG3YX5TWi2EUL7aL4DBB/L4RePPNNytxceLEieoRinyJDYWv4poupE3TIThWoU/aRQQQHIvodBs3KsEhQRFPKIQyFxx+PBJ958lPLbToxcchylOXFsHR7cCltIMjYNHx1FNPrSU2VJOmQqJpujhv3VKEu0ngb5PAKicaeT2bjv8831juRyc44nsW6qT4Tal0whE7MgqOXEAoXYyP14rL0yueE45Il+s+E5Do0GKw6smG29R0IW2aLp9PKqd0guny8SHQFQEEx/qkRyU4/A1Im72cFy2/w5HHK43SSoj42icYzmtbzut45bFd5dW9TkCcXj6Co8LKPwMh0PQF0VJzmgqJpulUhuZQ/AKh+eQ5VaoDYRDoggCCY33KoxIcwpA/BtFLn/EPf1k4+JGKBYLy6tqCIrelhU+/eInxWvxs54Ybb6ribE9+XBx1r7RxAV2/28gJgX4RaCokmqZz6+Ici/PJ8fgQ6JoAgmN94qMTHOujICcEILAugaZComm6detBPgj0mcDUxz+Co8+jk7pBYCAEmi6kTdMNpNlUEwIrEZj6+EdwrDRcSAwBCJQINF1Im6YrlUEYBIZOYOrjH8Ex9BFM/SHQAwJNF9Km6XrQJKoAgQMnMPXxj+A48CGFQQhMj0DThbRpuukRpMVTIDD18Y/gmMIop40QaJlA04W0abqWq4t5CGyFwNTHP4JjK8OOQiEwLgJNF9Km6cZFh9ZA4CKBqY9/BAczAQIQ2JhA04W0abqNK4QBCPSQwNTHf+8Fx+nTZ9Nsdq6HQ4cqQQACIqD5qXnaxDGfm1AizRgJrDJPxth+tan3guP8+fPVYiZlyAcGjIH+jQGJCM3TJo753L/+Y0510yerzJMmc2mIaXovOIYIlTpDAAIQgAAEIDBPAMExz4M7CEAAAhCAAARaIIDgaAEqJiEAAQhAAAIQmCeA4JjnwR0EIAABCEAAAi0QQHC0ABWTEIAABCAAAQjME0BwzPPgDgIQgAAEIACBFgggOFqAikkIQAACEIAABOYJIDjmeXAHAQhAAAIQgEALBBAcLUDFJAQgAAEIQAAC8wQQHPM8uIMABCAAAQhAoAUCCI4WoGISAhCAAAQgAIF5AgiOeR7cQQACEIAABCDQAgEERwtQMQkBCEAAAhCAwDwBBMc8D+4gAAEIQAACEGiBAIKjBaiYhAAEIAABCEBgngCCY54HdxCAAAQgAAEItEAAwdECVExCAAIQgAAEIDBPAMExz4M7CEAAAhCAAARaIIDgaAEqJiEAAQhAAAIQmCeA4JjnwR0EIAABCEAAAi0QQHC0ABWTEIAABCAAAQjME0BwzPPgDgIQgAAEIACBFgggOFqAikkIQAACEIAABOYJIDjmeXAHAQhAAAIQgEALBAYnOB57/Gi6+Su3VCh2d3er67OzWRGN0r33fe/f+1xy6WXp2LGdpPTXXHtd5RczrhCo+txz7321OVSHO++6O332qqtry1M7VB/ZKjnV+dbbbq+iZE/pFHb9DTcmM6jLW7JHGAT6QCCfh5pHdeNY413zN85nrwPKt2gONm1rnGelPCpD81BzWWntFO66qP6xjvH641dcmU69+GI11x2uOay57/vcV5zmOA4CYyAwOMGhCe/J7s12keDwAqa0mtzKqzAvELETlWbR5I+LQcyv63gfbSpc5alclX/q1KmqjFhnxy1aWLyoyp4EjMXGMgaxLlxDoE8ENC+iUNC152tez3yOeA7HeZ3nUZo4Z+uu/UVE+VWHuk3eczAXSs5XtwYo3nkkOLwO2V5eb+4hMFYCgxIcWnTybzmlRcQLhjd7+Q88eKSa6E8//UxRVOjbRxQB7nAvFKU4p1m06bsOTitfC2EsTwtPqR0K86JUilc71Z6cyaKFL9aDawhsi4DmTBNxbzFgwaHxrg1b89lzqzQ3NG9KzvOpFOew+KXGYfJLeS18YrrStdcRCw61Q/VXuD5aD/J2eB0r2SMMAkMkMCjB4QXGoBdt9Erj9PItOHQ6oImthULOC5lt5ZN+0X2+IGhBWpRecV4IVb6uvRDJz53r73Dbd90VrjDfx7Y4Dz4E+khAY1bjO7o4lmO4rj22o+CQ8NAcjPPQc0bpcyG+bG56Hqk8XS9L77LcjlIef7HwPLfguP/w4b3HpIqTDa1BdqUwx+FDYKgEBiM4tID4PQbD9iSWX3JxQZDg0MKkRUiiQ4ubXG43XwhLZXhhVJy/mcTFKtbFdYhh8TrGe1HVwpOXq3QqS23QQqh7pdGiW9eWWA7XEOgLAYt7jd/o4lyI4br23IiCQ/NA499zQeni6YTKUbzy2mmueL4oTHVQ/tnslb25FeOdT36eV2FxvYjXtq35qjL00bUFR5y3ivM6EkWO0kcREuvCNQSGSGAwgqME15NYfsl5AdMi5IVKi48+Fi9aJOICo/s46euulc5O+eO9w+XXxanO377rOzFpZcOLjOyp/nLy47XiZFd10zclxWlhUpg+OAgMkYDGcd08ioJDczfOD4uMXMjoXvOpbg473HNOzDy3SvxKcbEeurZN+3UnHHE9KpVFGATGSGAwgkOLkSdxE18brxewXHBos/cm7TTu3LiAKKwkamRb6ex8ny84Ok2J32ScXr7y6BOd7v3MOob7WnXN83iRPXnq1L5vc86HD4E+EcjnybL5LEHwzDPPVuNbG3UuODQnZNOiRHNCTn7TEw7nkR3Zk638kYzmnz7RKb3D4rXSxLXD1z7hkH3XW/nrGNh2LJNrCAyVwGAERwmwJuyyDdrvbuTfKLxoaTHTYmCnRaNu8sdwpbPzwhHvFSandL52vBefWK6Fg04s8vR1C5LroPRaWPXxwumy8CEwBALe4POx77pbTMSXRb0ZK07zWXljfs2FTU84NMfyclwn+TE+XisuznNflwSH1yKVozo7rU8vY3lcQ2DIBAYrOLTI6PfwOzvH904rSh2hyatjTR9tOo0WBwmIuEA5Lvqe/PLrnGzInhZDpYsLnxdKLSRekJw+2nMepcu/lXnhVH65vE66V/scH+1yDYG+E4jjW5uv5kyd0zzJ563z53O8ZMPzrBSnMM0hpdEXFNXDc1Zxcd55Xj/08MN7gkRp45cSXbtOzivBYRHkOLfZZcd7i526+hIOgSERGKTg0GT/2OWH9hYmT34tPLnzAqMJH/9gjxeuOKG9cOWLRulei4bLky3ZcZjLVF280MjXgvKtO+/aJ5CU3nmVJ2+PHpcozAtVfqqjslXHaCPnwD0E+kjAc05zQE73ueB2veNc8pxTnMK1eefzoiQASnNZYUorJ1/l+w/16d5rRKyb5mM8mXBep62MhX9c93jC4WjZUZl53WSrzp7z4kNgSAQGJTi8OPmbQQStBUALjhcuxWmxyNPahjZnLwKLNmqnkV/ntCjEclQHLx66jp//+85v7y1urktpUcnr7vaprlqcVJ6EiO5df9nxdV1dCYdAXwh4nmisR+d5Eceyw5QnOuW1YIjXMU289lyMYfFa8VG42KbK0PzSvX2l9X20Ubr2OlInODS/5WxT101tl8ojDAJ9JDAYwaFJHheCOpiasFocvvb1W/e+pTitN21N5Oh0/7v/84er9BYKTXwtiPo5nb+RuewoPlSOF8tY/7q65PWSrRtv+q9zgkZptIApTmVGp3uxwkGgrwQ03zS/8rGb19dzRPPsz/7iS/vSa5xHUaL8nmv/8Zr/Y0/0N5nLSuMNXr7rGOes66dynd55HBd918XlK5/CvF44rR+h6F5M9O6G5rbyLWNkG/gQGAKBwQiOIcCkjhCAAAQgAAEIlAkgOMpcCIUABCAAAQhA4AAJIDgOECamIAABCEAAAhAoE0BwlLkQCgEIQAACEIDAARJAcBwgTExBAAIQgAAEIFAmgOAocyEUAhCAAAQgAIEDJIDgOECYmIIABCAAAQhAoEwAwVHmQigEIAABCEAAAgdIAMFxgDAxBQEIQAACEIBAmUDvBcf58+fT6dNn04kTJ/nAgDFwQGNAc0pzq2vHfGYdYy0/2DGwrbm8ztrRe8EhmLPZuXXaRh4IQKCGgOaU5lbXjvncNXHKGzuBbc3ldbj2XnBIDeMgAIGDJ7CNubWNMg+eHBYh0C8CQ5lXCI5+jRtqA4HOCGxjkdpGmZ0BpSAIbInAUOYVgmNLA4RiIbBtAttYpLZR5rY5Uz4E2iYwlHmF4Gh7JGAfAj0lsI1Fahtl9hQ/1YLAgREYyrxCcBxYl2MIAsMisI1FahtlDqtXqC0EVicwlHmF4Fi9b8kBgVEQ2MYitY0yR9FZNAICCwgMZV4hOBZ0IlEQGDOBbSxS2yhzzH1I2yAgAkOZVwgOxisEFhD48i1fTfd993sLUgw3ahuL1DbKHG4PUfODIqB5fPToE2l3dzfdcONNaef48YMy3Qs7Q5lXoxMcGlDXXvfF9IEPfqj6aKDhILCMQGkhms1m1ViS30f3l1//RtJnXbeNRWqdMkt9s26byTc9AhIa2hM0juTy+74Q2WQ+rzOvttHu0QkOCQyLDG0Ulx/61Gi/oW5jwIy5TH3r+cShT+59+9HCZOGa+x5j2+SxyQKlem9jkVq1TPXJhz/y0eoztm+l2xw7Uylbe8BVV39hb06r3f5S2reTy03m86rzalv9PyrBkW8YgqpBFdXttkBT7jAIaAzddsc3Fx69akz1YbHaZIFSb2xjkVqlTAk+fWE4fvzEvk1jGKOJWm6TgIWFxlHu/GW0FJen7ep+k/m8yrzqqj2lckYlODR4cnHhRauvx+KlTiFs+wSiqNDY0biS36fj/U0WKBHexiK1Tpninn9L3f4IoQZ9JqAxs+x022n6cFoplpvM53Xm1Tb6b1SCo3SaoW+sWqw0uHAQWEZAguKuu/9q73mv0scxpGu9dKZ0q7qvfePW1ORTZ9cLkv1P/9Fnkj6+t1+XPw/fxiK1TpkIjrznuF9GQCJC81SP4/LHofFeX0iVNv+iusy+4pvMZaWpc56v9jeZz+vMq7p6tRmO4GiTLrYHR8ALUKy4wrRIyd/E9WmBUju2sUitUyaCY5NRR97SqaTCJDI2mdN9ms/rzKttjIxRCQ4NnlypKkxHa5xwbGN4DavM0sKkFuidjsPf//vK71OL/M1o3TptY5Fap0wEx7o9TD4R0PjxI1ETOQjBYVsH5W8yn9eZVwdV71XsjEpw6Lg7/spAIPSYpS/P6FbpGNJ2T0DiNH8ZVGEeP/J13xe3yQKlNmxjkVqnTARHX0bcMOsR57BbUPflwvHb8DeZz+vMq220cVSCw6rVG4QWKp1u9GmT2EYnU+ZyAho7GjcaM3YaN/F0rPRNyWm34W+yQKm+21ik1ikTwbGN0TWOMuv2gD6OqU3m8zrzahs9PCrBIYAeYH4xCLGxjWE1vDJ1OqbHJnYSH/njOcWVTtGcp2t/kwVKdd3GIrVOmX3cHLrua8pbnYD3gvzUUpbyLxOrWz/4HJvM53Xm1cG3YLnF0QmO5U0mBQTqCSxapJyrT6LDdVrH38YitY0y12FDnmETkKDQL1Q0V+0kPPxFVH5JiDjt0PyhzCsEx9BGFvWFwAER2MYitY0yDwgXZiDQWwJDmVcIjt4OISoGgXYJbGOR2kaZ7VLEOgS2T2Ao8wrBsf2xQg0gsBUC21iktlHmVuBSKAQ6JDCUeYXg6HBQUBQE+kRgG4vUNsrsE3PqAoE2CAxlXiE42uh9bEJgAAS2sUhto8wBdAVVhMBGBIYyrxAcG3UzmSEwXALbWKS2UeZwe4iaQ6AZgaHMKwRHs/4kFQRGR2Abi9Q2yhxdx9EgCGQEhjKvEBxZx3ELgakQ2MYitY0yp9KftHO6BIYyr3ovOE6fPptms3PTHUm0HAItENCc0tzq2jGfuyZOeWMnsK25vA7X3guO8+fPVwujFBwfGDAGDmYMaOPX3OraMZ8Ppv+YB3D0GNjWRCs+PAAAIABJREFUXF5n7ei94FinUeSBAAQgAAEIQKBfBBAc/eoPagMBCEAAAhAYJQEExyi7lUZBAAIQgAAE+kUAwdGv/qA2EIAABCAAgVESQHCMsltpFAQgAAEIQKBfBBAc/eoPagMBCEAAAhAYJQEExyi7lUZBAAIQgAAE+kUAwdGv/qA2EIAABCAAgVESQHCMsltpFAQgAAEIQKBfBBAc/eoPagMBCEAAAhAYJQEExyi7lUZBAAIQgAAE+kUAwdGv/qA2EIAABCAAgVESQHCMsltpFAQgAAEIQKBfBBAc/eoPagMBCEAAAhAYJQEExyi7lUZBAAIQgAAE+kUAwdGv/qA2EIAABCAAgVESQHCMsltpFAQgAAEIQKBfBBAc/eoPagMBCEAAAhAYJQEExyi7lUZBAAIQgAAE+kUAwdGv/qA2EIAABCAAgVESQHCMsltpFAQgAAEIQKBfBBAc/eoPagMBCEAAAhAYJQEExyi7lUZBAAIQgAAE+kVgMILj5q/ckt77vvfvfe659759JBWmNJdcelk6dmxnX3wpQHmirbOzWbrm2uuSfLs8jcOjv7u7m1RH5cvr6nrLrtI1cbLx2ONH95Lq2vnVNrXRdqO/Stv3jHMBAQhAAAIQaJnAYASHOWiz/djlhypBkW/sUThoY9cGHTfjGG97uZhYV3DkAsH2c1/2P37FlXP1isLC6Uv2ouhwuuirzdffcGNjsRXzcg0BCEAAAhBok8DgBIc24jrhEDfufPPNhYWhxvBcwNx62+37xIEEjE8aZMPCplQnlxH9XNCUhIXSx3CJLAkJlbXI5W1elJY4CEAAAhCAQJcEBiU48m/4utfGLKcNf5ngqBMQPgVR/lwQyPaizT/Gxeu6TsztK8+dd9298BHJD3/4wJ7gKD1O8WMUBEcddcIhAAEIQGDbBAYjOPwoIoqKXHBYOGgDfuaZZ+ceL8STjAg9D7cguP/w4T0BE4VE3WmD6yJ7rkfJ/9add829IxJtx3rF8FhmvFb6KDLidbTFNQQgAAEIQGDbBAYjOLShxw3cJxramOV8b6DafEvvcOQCI7+XPZUjX5u7TkXqNn+XpXSfverquRdNHZeLAAun2BaLFfl2dWWqrPyFUU44TA0fAhCAAAT6SmAwgiMCtLjwRq04hzldvtFbWCwKl0DRyYZ8CQN9/LhDG72c/Pg+hYWQXgRV+tzl5SmN7SuthUVdeF5mXn60H6/zenAPAQhAAAIQ2CaBwQgOCwbB0qmDNt51BIfyx0072lVcvvHrXmLCpwgxrzd41SOKiNihTqN8JfsWHIqL7Ynhscx4rTzRfryuCuMfCEAAAhCAQE8IDEZwaKPVz2F1AuETBp8uxMcTvv6rv/6bjd7hkNCQkyDR5m8hojJV/slTp/ZEhuOcJ/ZtLgLytFFYxHwxPIoMXfNIJZLiGgIQgAAEhkBgMIJDMLX5S1DIX+a00evUwQKkLt+iEw6JA51uSGTYWTBYeKgch8nPXUlwrPp3OHLBYcG1rKw8nnsIQAACEIDAtggMUnBIPOgEYJHLN/pcWDhvHh7Fg8rIy7FdvdvhuJjHdu3ncfm9bERB43wxPAoOx5d8103pcRCAAAQgAIE+ERiM4NAG7A1eACUU4ulFfh3T5sC1wTu9381QGuWxmFEanZBoE8+dyo75chERbclenZ2SXdcrvoS6THC43quUlZfNPQQgAAEIQKBNAoMRHG1CwDYEIAABCEAAAu0SQHC0yxfrEIAABCAAAQiklBAcDAMIQAACEIAABFongOBoHTEFQAACEIAABCCA4GAMQAACEIAABCDQOgEER+uIKQACEIAABCAAAQQHYwACEIAABCAAgdYJIDhaR0wBEIAABCAAAQggOBgDEIAABCAAAQi0TgDB0TpiCoAABCAAAQhAoPeC4/z58+n06bPpxImTfGDAGDigMaA5pbmFgwAEINAVgd4LDi2Ms9m5rnhQDgQmQUBzSnMLBwEIQKArAr0XHDrZwEEAAgdPgLl18EyxCAEI1BNAcNSzIQYCoyaA4Bh199I4CPSOAIKjd11ChSDQDQEERzecKQUCELhIAMHBSIDARAkgOCba8TQbAlsigODYEniKhcC2CSA4tt0DlA+BaRFAcEyrv2ktBPYIIDj2UHABAQh0QADB0QFkioBAHwkgOPrYK9QJAuMlgOAYb9/Ssg0I7Bw/nm648aa0u7ubjh59In35lq9uYK2fWREc/ewXagWBsRIYneDQBnHtdV9MH/jgh6rPGDeKsQ7GvrTLY0hCQy6/70s9//Lr30j6rOsQHOuSIx8EILAOgdEJDgkMi4zZbJYuP/SpdN93v7cOG/JMlIDGi8eQEUh8aCxpTPXFITj60hPUAwIQaEJgVIJDx+CfOPTJJN9Om4dOPPQtFQeBZQQkLOrGS9/GEoJjWW8SDwEI9InAqARHabPo4zfTPg0A6vIuAQmKZacYSvPhj3x0TtS+a6HbKwRHt7wpDQIQ2IzAqARH6RuoTjuuuvoLvToK36zLyN0GAY+T+P6P3wOKvuKffubZSnRIzK7ivvaNW1OTT51NCwz7n/6jzyR9fG+/Ln8ezjscORHuIQCBNgkgONqki+3BEpCYKL3HUfe4pUlDm4gNpalzFhT2ERx1pAiHAAT6SGBUgoNHKn0cYsOsk07L9ImuNL5ifNfXFh7rlssJx7rkyAcBCKxDYFSCo+6l0fyb6jqgyDMdAnrBWH+DI758rNaXTj22SQXBsU36lA0BCKxKYFSCw38vwQLDP4vVRoGDQFMCpXeBlFfhHltNbbWZDsHRJl1sQwACB01gVIJDcCwy/KIfYuOgh8y47UlUlH6pYjGbP2bZJg0ExzbpUzYEILAqgdEJjlUBkB4CImBBEU8wcvFaEiJDpsc7HEPuPeoOgeERQHAMr8+oMQQOhACC40AwYgQCEGhIAMHREBTJIDA2AgiOsfUo7YFAvwkgOPrdP9QOAq0RQHC0hhbDEIBAgQCCowCFIAhMgQCCYwq9TBsh0B8CCI7+9AU1gUCnBBAcneKmMAhMngCCY/JDAABTJYDgmGrP024IbIcAgmM73CkVAlsngODYehdQAQhMikDvBcfp02fTbHZuUp1CYyHQNgHNKc0tHAQgAIGuCPRecJw/f75aGPVtjA8MGAMHMwYkNjS3cBCAAAS6ItB7wdEVCMqBAAQgAAEIQKA9AgiO9thiGQIQgAAEIACBfyWA4GAoQAACEIAABCDQOgEER+uIKQACEIAABCAAAQQHYwACEIAABCAAgdYJIDhaR0wBEIAABCAAAQggOBgDEIAABCAAAQi0TgDB0TpiCoAABCAAAQhAAMHBGIAABCAAAQhAoHUCCI7WEVMABCAAAQhAAAIIDsYABCAAAQhAAAKtE0BwtI6YAiAAAQhAAAIQQHAwBiAAAQhAAAIQaJ0AgqN1xBQAAQhAAAIQgACCgzEAAQhAAAIQgEDrBBAcrSOmAAhAAAIQgAAEEByMAQhAAAIQgAAEWieA4GgdMQVAAAIQgAAEIIDgYAxAAAIQgAAEINA6AQRH64gpAAIQgAAEIAABBAdjAAIQgAAEIACB1gkgOFpHTAEQgAAEIAABCCA4GAMQgAAEIAABCLROAMFxAIh3d3fTzV+5JZ2dzdJjjx9N99x7355VhSsMBwEIQAACEJgygcEJjmPHdtL1N9yYtMlrg//4FVem977v/XMfhSmuiZM4iAJBeSQQJBTs6kSD6nDNtdfNlZ3XJb9XeuXDQQACEIAABKZEYNCCwx0VBYJPG069+OI+MZALC+XPBYdFRDyVqBMcym/RE9O7Xspn8RPr6Hh8CEAAAhCAwFQIDEZwaMPOTwt8ChFFgwSAThEkOHQSohMRuZgmdm4ervu8nNK9TypUh1K8BYjKV5pYl1g+1xCAAAQgAIEpEBiM4HBnxEcqCtP9Z6+6eu8RiuNns1fmNnkJiVtvu734CMaC4Qf/3w8rW7IRnQSDBUQM97XsKo8+9x8+XIkbp/cJiE86nAcfAhCAAAQgMCUCgxYc8fFHPAGRuFBcPFXITzLcyXXhjpe/iuC45NLLkj4fu/xQlU/XEiIWHrKFgwAEIAABCEyNwGAEhzZqn0TY92ONUqdZjDitfIsL+XYO032pjJg/v1b6VfMsqrPrhA8BCEAAAhAYG4HBCA6Dz08u4smGBYEeX9S9w5Hnj4LDZeBDAAIQgAAEIHCwBAYjOCwUnn76mblHJRIc8cSiyUujesThn9bmgsOPPixeSn7+PkaTPJxsHOzAxRoEIAABCAyLwKAEhx5fnDx1au/nrtr4/ZKmsTcRHE4rvyQ4JA5kp+Rsvy6+lIcwCEAAAhCAwNQJDEZwaIOXwLjzrrv3nXDkpxB+pCLhEOPiSYg7/iAEh+sWy8qvOeEwcXwIQAACEJgigcEIDgkDbdoSE/7lx6IO8yMYPT6Ry4WF8+bhTcSD6hBPOHS96FQkPsJxufgQgAAEIACBKREYjODw37pQ50gk5CcI+b0ev9S5+KJpLl6WiYdSvMIkQvI6xHtOOOp6g3AIQAACEJgCgcEIjil0Bm2EAAQgAAEIjJUAgmOsPUu7IAABCEAAAj0igODoUWdQFQhAAAIQgMBYCSA4xtqztAsCEIAABCDQIwIIjh51BlWBAAQgAAEIjJUAgmOsPUu7IAABCEAAAj0igODoUWdQFQhAAAIQgMBYCSA4xtqztAsCEIAABCDQIwIIjh51BlWBAAQgAAEIjJUAgmOsPUu7IAABCEAAAj0igODoUWdQFQhAAAIQgMBYCSA4xtqztAsCEIAABCDQIwIIjh51BlWBAAQgAAEIjJUAgmOsPUu7IAABCEAAAj0igODoUWdQFQhAAAIQgMBYCQxScLz66qvphRdeSD/72c/Sk08+mX7yk59Un5/+9KfpqaeeSk8//XR69tlnq/if//znSZ9f/OIXSz+//OUv04kTJ9KLL76YXnvttbH2Oe2CAAQgAAEIdE5gUIJjd3c3HT9+PElYPPPMM+nXv/51JQzOnz+f9JFIUJjilEbC47nnnqsER1PREYWJRM2bb77ZeadQIAQgAAEIQGBsBAYjOHSqIQHxxBNPVKcb77zzTtIndwq7cOFClUZp/+mf/qk67VjlpCOKDp16cNqRU+YeAhCAAAQgsBqBQQgOnWxIbBw9ejSdOXOmKDTyZkt4KK3ySHT4pCOKiabXEh2cdOSEuYcABCAAAQg0JzAIwaHHKDqt+Od//udGYsPNl+hQHuWVYNE7H+s8WpEw0eMVHAQgAAEIQAAC6xHoveDQoxS9j6GXQ0uPUJY1W49XlFc29CLpuoJDooNHK8toEw8BCEAAAhAoE+i94NDJgh6LPP/882sJDokU5ZUNn3I0fZSSp9OvV3AQgAAEIAABCKxOoPeCQ49B/vEf/zGdO3du9db9aw7llQ39ZHaTdzn0k1kcBCAAAQhAAAKrE+i94JBIeOSRR6qfva7evIs59JNZ2dBjlU0Eh14exUEAAhCAAAQgsDqB3gsO/VGvhx56aK3HKcahxyqyIVubvsdhm/gQgAAEIAABCDQn0HvBoVOJI0eObHzCIRubCg5OOJoPLFJCAAIQgAAEIoHeCw6dSOh0QhVd1ymvbGz6SxXe4Vi3B8gHAQhAAAJTJ9B7waFfmOj9C2326/wsVnn0dzxkQz+P3eQdDn6lMvXpQvshAAEIQGBdAr0XHKqgfmGij/6mxqpOeZx/01+p8Hc4VqVPeghAAAIQgMBFAr0XHKqm/ljXgw8+mI4dO7bSKYdON5RHefXXRvWfuulntvnf12hyz18aZcpAAAIQgAAE1icwCMHxxhtvVKcUP/jBD9KpU6caiQ6JDaVVnh/96EcbPU7h/1JZf4CREwIQgAAEICACgxAcqugrr7ySHn300fT9738/SQDoUUnpnQ6FKU5plFbvbujXKT7dWPVPm8sOj1KYLBCAAAQgAIHNCAxGcKiZr7/+evU/v+rUQj9zlRiQENEf9tJH1wpTnNJIbPz4xz+u/qT5Oi+L6jEK/0vsZgOM3BCAAAQgAAERGJTgcJedPXu2+rXJww8/XJ1i/O3f/m36u7/7u3T//fdXQkOCQy+K6mRD/39KU7EhsaJfw+jXKJxqmDY+BCAAAQhAYHMCgxQcmzcbCxCAAAQgAAEIdEkAwdElbcqCAAQgAAEITJQAgmOiHU+zIQABCEAAAl0SQHB0SZuyIAABCEAAAhMlgOCYaMfTbAhAAAIQgECXBBAcXdKmLAhAAAIQgMBECSA4JtrxNBsCEIAABCDQJQEER5e0KQsCEIAABCAwUQIIjol2PM2GAAQgAAEIdEkAwdElbcqCAAQgAAEITJQAgmOiHU+zIQABCEAAAl0SQHB0SZuyIAABCEAAAhMlgOCYaMfTbAhAAAIQgECXBBAcXdKmLAhAAAIQgMBECSA4JtrxNBsCEIAABCDQJQEER5e0KQsCEIAABCAwUQIIjol2PM2GAAQgAAEIdEkAwdElbcqCAAQgAAEITJQAgmOiHU+zIQABCEAAAl0SQHB0SZuyIAABCEAAAhMlgOCYaMfTbAhAAAIQgECXBBAcXdKmLAhAAAIQgMBECSA4JtrxNBsCEIAABCDQJQEER5e0KQsCEIAABCAwUQIIjol2PM2GAAQgAAEIdEkAwdElbcqCAAQgAAEITJQAgmOiHU+zIQABCEAAAl0SQHB0SZuyIAABCEAAAhMlgOCYaMfTbAhAAAIQgECXBBAcXdKmLAhAAAIQgMBECQxOcJydzdLHr7gy3fyVW/a67LHHj1b39vciUkoKu+fe+2JQda2wUrgiVcZnr7o6HTu2M5fPZb/3fe9Pl1x62Vz87u5uuuba66ry5jJxAwEIQAACEIBAGozgkDjQRq+Prr3BOyz3JUokEOoEh8WD4nNn4SI/2rXNPL3uJYBi2vxaYkR1xkEAAhCAAASmSGAwgkOdow1bG7vEgp1EgYTA/YcP7516KF4bfC44lokCiw+l87XLiTYdZl/pP3b5oeqTn4roXqchuT3nxYcABCAAAQhMgcBgBYdPOLTZy3lj98nCH//Jn1Ybve/jI5D4OCUXErKjxykKjy5P5ziV70czrlM8geFkw6TwIQABCEBgygQGIzi0sVs8yJeA+MznPj/3HkWpI6O4UHx+L7s+fbBgKD06qRMcsUylUd5YTwRHJMQ1BCAAAQhMlcBgBIc6KJ4+WBzEzd3X199wY/WIJabxSYTT2Fe4ncSIBIIfxzhcfklw5AKjJFTykxeVgYMABCAAAQhMjcCgBIc2awuFBx48kiQstKHnTmGKe+jhh6v3OnyqETd7nWr49MFi4tbb70g7O8ercPn5aYXLtu/8sXyXLbGDgwAEIAABCEDgIoHBCA6JAokIfU6eOlUJCW343vxz/1t33lUJB71MGoWGmq17iwWfUvixisWH/OgWhS8TJqpbPEmJdrmGAAQgAAEITIHAYASHNmydasi3GNC1hYI7SycLEiU//OED1WMVxVtwKJ/EgTd/30cbi4SFRIrLdnm5X6qTTj1uve32PCn3EIAABCAAgckQGITgkIi48667q80+Fxz5yYbu4y9SLDi06eunq/LlJEKc96AEh+z45CSOIIVb5MRwriEAAQhAAAJTITAIweHOkPDIBUcUC0rnEw4LC8X7hEPxCpcgsTDwKYfTrHPCoTJlzzZdX/uybfsOw4cABCAAAQhMicDgBYdPKaJfOuGwKCj9ksRxEidRcEjcRLv5teIlJGJ5Gjy25/SlMqc0yGgrBCAAAQhAYFCCg+6CAAQgAAEIQGCYBBAcw+w3ag0BCEAAAhAYFAEEx6C6i8pCAAIQgAAEhkkAwTHMfqPWEIAABCAAgUERQHAMqruoLAQgAAEIQGCYBBAcw+w3ag0BCEAAAhAYFAEEx6C6i8pCAAIQgAAEhkkAwTHMfqPWEIAABCAAgUERQHAMqruoLAQgAAEIQGCYBBAcw+w3ag0BCEAAAhAYFAEEx6C6i8pCAAIQgAAEhkkAwTHMfqPWEIAABCAAgUERQHAMqruoLAQgAAEIQGCYBHovOM6fP59Onz6bTpw4yQcGjAHGAGOAMdDKGNA+o/2m5J577nz69//+jfTGG++UotO3vvVWes97zi79/O7vvprOnHnXhuz+wR+8NhemAhT+O7/zm8pe0zzFimWBquef/MluFtrdbe8FhwbBbHauOyKUBAEIQAACkyOgfUb7TVPxYIFx5Mjb+1hJmGhjj+JiX6KUqrJUXl7mH/7h60VxI3sSIC675MtWnXP+Up3r8hxkeO8Fh042cBCAAAQgAIG2CZT2G502/P7vv5YkAv78z3eLQiAXDCUhoDCdWsienESJTk1877bpvnSaYrHguuSnLapDPA1x+rq6xPBYL9ejDR/B0QZVbEIAAhCAwOAI5IJDm7iExo9/fFEEyP83/+bVfSIhNlQbvfLIX+R0ylA6ySgJDtnSoxeLE/muh64lGPKTDeXRKUsuTPI61QmfPN1B3CM4DoIiNiAAAQhAYPAELDgkBnQC4E08igBt0BIKFgve8OOJwaJriYNHH327Oo2wjQgulhXD47XrF8txXWO6vl0jOPrWI9QHAhCAAAS2QkCCw2Ji2bsS3uzjRq/ruvcjFOe0OnnQY5PSo5OS4MgFRunFT9l2nSRqbrppd+/e4Yt8161N8AiONuliGwIQgAAEBkPAJxzLHkdIFOh9DjulbyJQtKnrhORrX3tz7jGNBMIiMVAnMNYRCbJVJ4rcnrZ8BEdbZLELAQhAAAKDIhAFxzIBYRGgzdsvay7azCUOokAonWQIVl14fspRJ1ByMaH7WO6iOrbdWQiOtgljHwIQgAAEBkEgCg5tzHUvXOYnHG6c8tQJAYXHjb9OWNSFuwz5OlHRox/50cl+LjhygVGqY+ldkmj3oK4RHAdFEjsQgAAEIDBoAlFwND3hiA3ON/cYJzFwUIJD5URbLicvX+JFj2sUbpencXgXPoKjC8pbKuPo0SfStdd9Me3uvjvYdH3DjTelnePHt1Srgyt2NptV7ZMfr5eVcN93v7ePS55H9r58y1fn2CmNmF5+6FNVec6jsA988EN7H9m3kx2lVxocBCDQbwIWHOvWUpt5myccFhAlsZH/vNW/ptH7In4RVmEIjgW9u+kAWGD6QKO0OenT1HmT+vBHPrrW5i/BIOEQxURetuqTb3S6X6Weuc2Dvm+yIWsDL9U5iox4vayOSnvV1V9YyF1pVGaJr+oTRUUsL4/T/ScOfbIqTzZxEIBAfwlov9HmvEg05HFx81+0mStdTOtHJ348ktuN97fffvHvgeSPPixAnFbl2+k6lqdrpyv5Ma9tHLTPCccSotp0Sptdnq1pOuXTxrPKt15tWvEb9KJrCZifPvlkZT+m80mH6hnDdV23eeZtXPW+CZMmLFQ/2XLaWH+fNtTF/cM/PLCvvTF/vI7iT/ZUpgSHxJ3iYtp4LRF32x3frNKprhZ58s09Xq/KkfQQgEA3BCQ4SpvxFMKuuOK11iEjOJYgbrJpLjGxL1obmL71bvJYY9EJhzZLbXTy5bx5Pv3Ms/tORbRBblNw7INTCLDgyKNiO+N1TKeNXn24zPlR07PPPVexi4KiCR8LDpWlMvWxGHLZpTDH4UMAAqsTeOutt9KZM2eSNrKSO3fuXHr55ZfT22/v//9OSumHcqJeqvsQwkYpOLToe8PwZpELB21Q8ZRBm4HzKK02IG3aDpOvNHUu2lc65T3y0MN7+RUvF8uRTX8Ddn1cXtys8jinKfkqJ998da/HLyorFzniY0Z5m93e2Da1wfVxfGyT0uZ2VE+nzfnltnJG4qDN3Pxi/tjOeB3TxGvXy+2VH081Ylpx+tzn/92eQMvzqj5uk+J0rzqoroe///fVIxRd530kobmp2Iz15BoCUyZw4cKFdPr06bSzs5NeffXVORS6P378eHrppZfSO+/M/5pjLmG4QXAEGC1cjkpweFPwJi5e2vS1EWhDiJuWwiw4tLnETUAnAd6Y83x1fRDTeQN2ebKljc0bVF6e6+KNUGXoOoqOvFzZqHuHQ/bEQL6cfNXFG6Pr4XJUluvgOitOG6fzxHCnlZ28Lauyi7ZUpmxGEWB2rr/aFTdxM7KdGOdx4HER7aosubq4u+7+q4qv2mPBE/tHeVWnyM5ll8q5WBr/QgACB01ApxzPP/98JS7eeOONyrx8iQ2FK76pQ3A0JbVeulEJDm1OehlQm0/utDks2jSjIIh583wxLl7HdNo0vRE6jeK9YeWbtMK9OTq9N8JHHnm0ivNm1sS/6+7vVOXHtLZvu66LfH1UZ6dxHezHtinMm7sFxybsoi3Zjpxcvuqn8Nwpr+osP17HdMrXRABELrLlMhWua4kOlyX75iVhoms710NhEoSnTr24l0+2FKb+x0EAAgdH4M0336zExYkTJ6pHKPIlNhS+ikNwrEJr9bSjEhzeBLSw527Rpqm0yusNWhuMXZ7P4bkf05XqoXjbLQkOxUcXN8AYrmvZV3ptgt68YnpvevLl5Cu9ucj3xqc6yZ78vA4uV+ExTvZ8OuT6rMsu2nIbVJ/o6uqmvBYB8Trm1bXLcB1LfhSI4mrGZiY7YqC6lOqpfpCwUX30kdAwY+WTPaVRWLSZ15V7CEBgPQIWHU899dRaYkOlIjjWY9801+gER9w4IoRlm6bTeuPwppfnc7rcj+mUV5tO3FgUr81KTmXERzgKz9OXNjXljeXEjTR+i883X90rX6yP66+yVd9SHZwmlqkwl2tGTrcOu2jLbTYn283Ld3hsZ7x2fJ2/KK3qoEdJSpMzU5hO0HSqEfsrsou2lV+M9NG10uVtq6sj4RCAwOoEJDq0qa16suGSEBwm0Y4/KsHhDUuLu53f4dBCH8WI7vVN1xuCN0/b8L1sRXu2m/sxnfLGDUlpFe/NJhcc2qRUN8crva6jDdlUfWM5Suf6xjrGTU9pdK94pc2dwmW7VAe/w6G6tMXO5ZqIbNRpAAAgAElEQVR3XlZst6/jCYXrZTsxzv2bt1lpxVZ+nVNciZnq4DJLeaNtpXW/iL2uF5VZskcYBCCwGoGmL4iWrCI4SlQOLmxUgkNYvAF74/Emnofr2FwbhzaFPM6bhOz5W3vd5uWuUB7nk80oFpRGca5LLjgUr41I9XG9nd91i7Z1rTKUNoY776J3OFxf+bYtW6U6ONzpbP8g2bndLkv1UJtcljjoRMHtrCr6r//EzT1exzSl6yZplUZlqu1yHgeqj14k1YlSqU5KV3psovaV0pfqRxgEILAdAiXBoT/M9Qd/8Fr1n6ptp1bjKXV0gmM8XVNuiURLFBqlVPmGGjdPb5xxQ/emWrLV57DYzngd66yN3m1t4lv4mJnexZAQLJ1q2Lb6xP2iMvzIpa48i8lYT64hAIHtE7Dg8F8B9X/etux++zUfRg0QHMPoJ2oJAQhAAAItE7DgKJ1qxD9Nnv+X7y1XazTmERwrdGX8Fhu/vfpb8QqmJpcUdpPrchoMgcERsOBQxfP/iyQ2RnH5fwMf47kuE0BwlLkQCgEIQAACEyMQBUf+GMUoFK53OnQKgluNAIJjNV6khgAEIACBkRKIgkNNLJ1kxEcrI8XQWrMQHK2hxTAEIAABCAyJQC448tOM/H5IbetDXREcfegF6gABCEAAAlsnkAsOVUgnGjrp0COU3/3dV3l3Y4NeQnBsAI+sEIAABCAwHgIlwaHWSXC85z1nK/ExntZ235LeC47Tp8+m2exc92QoEQIQgAAEJkNA+4z2m9xZbPz+779WnXDwsmhOqPl97wXH+fPnq0Eg5ckHBowBxgBjgDHQxhiQ2NB+Y2ehoUcqdn6s8ju/8xv+8qihrOD3XnCs0BaSQgACEIAABNYmoL8s+od/+Hr1+GTR39mI6aIgWbvgiWREcEyko2kmBCAAAQgsJnDHHW9VYkPvazT9PPjg24uNErtHAMGxh4ILCEAAAhCAAATaIoDgaIssdiEAAQhAAAIQ2COA4NhDwQUEIAABCEAAAm0RQHC0RRa7EIAABCAAAQjsEUBw7KHgAgIQgAAEIACBtgggONoii10IQAACEIAABPYIIDj2UHABAQhAAAIQgEBbBBAcbZHFLgQgAAEIQAACewQQHHsouIAABCAAAQhAoC0CCI62yGIXAhCAAAQgAIE9AgiOPRRcQAACEIAABCDQFgEER1tksQsBCEAAAhCAwB4BBMceCi4gAAEIQAACEGiLAIKjLbLYhQAEIAABCEBgjwCCYw8FFxCAAAQgAAEItEUAwdEWWexCAAIQgAAEILBHAMGxh4ILCEAAAhCAAATaIoDgaIssdiEAAQhAAAIQ2COA4NhDwQUEIAABCEAAAm0RQHC0RRa7EIAABCAAAQjsEUBw7KHgAgIQgAAEIACBtgggONoii10IQAACEIAABPYIIDj2UHABAQhAAAIQgEBbBBAcbZHFLgQgAAEIQAACewQQHHsouIAABCAAAQhAoC0CCI62yGIXAhCAAAQgAIE9AgiOPRRcQAACEIAABCDQFoHBCI6zs1m6+Su3pN3d3YrFPffel977vvcXPx+/4sqk9HbHju2kW2+7vQpTXCmf7Mkp3zXXXjeXX3GPPX60ite109p+yVc9Vd+Tp05V9nSNgwAEIAABCEyVwGAEhzpIm/6qG3dJQCzq7JhewqIkThy2qC4WHBY+SmvRsqh84iAAAQhAAAJjJDAowaEOWGXj1snGxy4/lOQ3dVFwOE/dCYfsXnLpZQtFicWJ/SanIy4XHwIQgAAEIDAWAoMTHAKvkwJv4HX+jTf9171HIyURUepAiZloT49W6h7BKM6Pd0q2FHf9DTeuJHZKdgiDAAQgAAEIjIHAYASHxUC+0evEQHGLnOIfePBIJUCioIjXOqnQiYXEjN8BqRMqCpfNRYJD9dF7I6ucrixqA3EQgAAEIACBIRMYjOAQ5Hyjj4IgXscOWSRIJAZ0ChGFg4SExIeEzc7O8aUnHLIfhYuvZUcf3tuIvcE1BCAAAQhMlcCgBYc2+7ih614fO234EgDySy4XHBYteu/j/sOH02c+9/n02auunvvFiuzkwsdhEimKs8vr43B8CEAAAhCAwNQIDFZwSCzokUV08b0Jiwk9SmkqOCQQZNPCQeKh6TscFitRcEgM1ZUd6801BCAAAQhAYOwEBis4fHrhRxjRj5v8ok3fosSPVHSq4b+bEYWDBkFJ4MTBURIcediiukRbXEMAAhCAAATGRmBQgiMXCKXOkHiQ4LBgWLTJl+xZJFh4RCGTX0dh43wu13VTGj/m4RGLqeBDAAIQgMDUCAxGcEg46GVOveSZ/1JlUactEhyluJJwkDDRex133nV37SMS5YuPX/yrF+XVtX8lozJxEIAABCAAgakRGIzgiD8x1aadnzbk9z59yEVFLgx8+uCOt+CIv1CJAieW/Wd/8aW9n9r6p7S2E33niXZiPNcQgAAEIACBsRMYjOAYe0fQPghAAAIQgMCYCSA4xty7tA0CEIAABCDQEwIIjp50BNWAAAQgAAEIjJkAgmPMvUvbIAABCEAAAj0hgODoSUdQDQhAAAIQgMCYCSA4xty7tA0CEIAABCDQEwIIjp50BNWAAAQgAAEIjJkAgmPMvUvbIAABCEAAAj0hgODoSUdQDQhAAAIQgMCYCSA4xty7tA0CEIAABCDQEwIIjp50BNWAAAQgAAEIjJkAgmPMvUvbIAABCEAAAj0hgODoSUdQDQhAAAIQgMCYCSA4xty7tA0CEIAABCDQEwIIjp50BNWAAAQgAAEIjJkAgmPMvUvbIAABCEAAAj0hMEjB8fbb59Obb75VfXSNO3gC5y+k9KvfpPToCxc/ulYYDgIQgAAEILAOgUEJjtdf302nT59NL7zwUnrppZerj64VpjjcwRC472cpXfn/pPTf35bSH9xz8aNrhSkOBwEIQAACEFiVwCAEx4ULF9LZs+fSiy+eSbu7b+5ro8IUpzRK29TNZrN07XVfTPLlvnzLV9MHPvihfZ/LD31qL020vXP8eLrq6i9Ucfd993tV/hiva6W54cab0u7uu4Lotju+WYW7zKNHn8iz7buXHef78Ec+mprk2WdkScDZ3ZT+9MGUPvrXKT3w/P7EClOc0ijtUFzez6q3+ssMda3PMtdFHyyrA/EQgAAEhkpgEIJjNjuXzpy5KAoWgVYapW3qShtRXV5tNp849Mk9oaB0EijeqCQoJCyULjrdW3DUCRqLHNuK+X3tzU73q9Tb+Zv41z+U0lV/tzyl0ihtX5zYSzhaQOT1irzE2LxLvvqoznXRB3VlEw4BCEBg6AR6Lzj0qOTUqTONOSvtsscr2oB0ahE3nEUbjQtXPp1oaOPR5hbz59c6hVA6fSw4bMcnFbpXud4ol22GdWXY7ib+//vLlC79zn4Lv3g5pSdfSkl+dEqrPH1wqwgO11esI3eLvW32geuGDwEIQGCMBHovOF5++ZX02mtvNGavtMrTxEkM+JFIk/ROo3wSFPFRS/wWrXTeBKNIkPBQvhjm62WCpyRcXJ+D8P/jD1L662fftfTiayn9r3+T0n/zpXc/ule4nNIqTx+cWVtAxDqJqxnL10lILjYdrzjZqnNt90FduYRDAAIQGAOB3guOkyf/JV248E5j1kqrPE2cv81qAzr8/b+f25i8Cdn3N2Bvbkpft3EpjwWE8nkjq9uwFK5Tj0VOgkY2F22Ii/Ivi7vkrpRefevdVHpBNIoNXytcTmmVp4kzZ3ExR4kDcTny0MN73KOAk90oFsxQ4bKhOMc/8sijc49UxFPCTvFyKsu2c2FYJfjXx1RKv4hv233guuBDAAIQGCOB3gsO/QplVdckjzaWu+7+q2qj0mbmjVBlKa70PkasR75x5fe2I9t690P2nn7m2YUnHCpX6S1yoi+BoziV04b7H26ft/rffrksOBRul+dxePTjZq9wCQy1QeFRmClOG77aKA6K10dO6SUY3Efyldfx5qZ7iw3H2a4EiGwfP36iVihe5PvK1vqgaiz/QAACEBgpgckKDm1MFhzahOK3WwsObVp+Z0P9Hze2XGDk90qvMj73+X9X2ZBgsPCQneiULj/hUNn+hu6yl4mgaHPVa/3sNTqfaJR8p8vzODz6aoc2e7UxOoX71MHhSpO/mOs4sYiCw8JE8e4Xnzo5neLcL7KrePeHwqPTfRwDiuu6D2J9uIYABCAwNgK9Fxz6exu//e3bjbkrrfIsc9rgtaFc/FZ7cfPxBmPBoQ1Qm5c3MN37nQ9tUNow4ylEvJbdP//SlytRI6Egm8rf9B0O1yW2Qxuiwttw//aelH5x9l3L/903yiccCpdTWuVp4sTPbFx/+VE0yI6YWuAp3nnsW4DJnq+Vz4JD6XKbSqu+dj8v6rc8r+oQy1FZbfZBE5akgQAEIDBUAr0XHK+88uqKP3U9l5RnkdMGpW+72nziRuTNLgqOKDK0eekjF/OW7l2G8ltwxDppM7OtGO7r0maXhx3k5velf5z/qavuS6cbCpfTz2J97Tov81V/n3boOt/gzfrEiV9VYk5p7NRWb/7i5mvFW3DocY1sxjj186lTL+71s+3JV3n5yVKMz3krLg9TWbGeMT/XEIAABCDwLoHeC4633vptOnXqX6o/Y/5utctX+nPnSqs8TVwUDXETi4JDdrSp6MXE+Egj5lWa/N7lW3Bo01t0IqJv51GA5BubyyiJIpe1if/Tl1L6n+5O6fGT71q546cp/d5fp/Q/fvuir3s5pVFa5VnmtOGLgZwYuf5qX2yzRYNYK51YeSNXfgkVC4nYV7LrvErvvE7rciVELDx8YlLyY76u+6CCxD8QgAAERkqg94JD3C/+LY5/Sbu74WcUWYcoTmJj2d/giNksErSxaCPUvZw2MG98ulf8tdf9n3PfyL2xlTYthymfBYds2ilcG6q+XUeR4XiXaTvyfRqg9N6MY51j3nWvv/fzi788OfLP9RYUp1+nKG0Tl3Nyey8y/WL1yMntzDd7h6vtEnuOXyQ4VCeXaWa617V8O/WL3uvQezy26zj7qqPr0FUfuGx8CEAAAmMjMAjBIej6+xr68+VnzryS3njjzaT/tE0fXStMcav8vQ7ZzDcif5OOm0tdh+d569JZcMRfqMQNTpunN7Xbbr9j7x2PmCa3rTjl8eadx29yf+/PUvrf/ialq+9P6fvHU3rh3MWPrhWmOKXZ1FlwRCG2qc26/O6r+AsVixHlicLiT/+v67feB3XtIBwCEIDAkAkMRnAIsv6flFdffT39y7/Mqr8+qr8qqmuFrfJ/qAy5w7qo+2w3pW89ldJn/jalD3/n4kfXClPcQbguBcdB1BcbEIAABCCwGYFBCY7NmkruPhFAcPSpN6gLBCAAgfYJIDjaZ0wJEIAABCAAgckTQHBMfggAAAIQgAAEINA+AQRH+4wpAQIQgAAEIDB5AgiOyQ8BAEAAAhCAAATaJ4DgaJ8xJUAAAhCAAAQmTwDBMfkhAAAIQAACEIBA+wQQHO0zpgQIQAACEIDA5AkgOCY/BAAAAQhAAAIQaJ8AgqN9xpQAAQhAAAIQmDwBBMfkhwAAIAABCEAAAu0TQHC0z5gSIAABCEAAApMngOCY/BAAAAQgAAEIQKB9AgiO9hlTAgQgAAEIQGDyBBAckx8CAIAABCAAAQi0TwDB0T5jSoAABCAAAQhMngCCY/JDAAAQgAAEIACB9gkgONpnTAkQgAAEIACByRNAcEx+CAAAAhCAAAQg0D4BBEf7jCkBAhCAAAQgMHkCCI7JDwEAQAACEIAABNongOBonzElQAACEIAABCZPAMEx+SEAAAhAAAIQgED7BBAc7TOmBAhAAAIQgMDkCSA4Jj8EAAABCEAAAhBonwCCo33GlAABCEAAAhCYPAEEx+SHAAAgAAEIQAAC7RNAcLTPmBIgAAEIQAACkyeA4Jj8EAAABCAAAQhAoH0CCI72GVMCBCAAAQhAYPIEEByTHwIAgAAEIAABCLRPAMHRPmNKgAAEIAABCEyewGAFx+7ubrr+hhvTsWM7jTvx7GyWPnvV1Y3zqIxrrr0uPfb40cZlqD6XXHpZbR7ZvPkrtyTVRXZ1HdvisMYFkhACEIAABCAwAAKDFRza2CU4tFmv4u65975KRNTlkxCQyJAvt+zeZcue8ulj2xIP8d5pXfcHHjxStSEKJ9VvFYFjm/gQgAAEIACBPhMYlODQZvze971/6ccbdtP0sqmTBjkLB9tQmK4dL7Fw6223z/Xp/9/e3b7act11AO+fUXwjCoK+6RtR8D8QWguC4Btrm+o7Y1sEX0gpKoKlCLXVCKX2QaltWsGHKkhsUWgowWgaS2i8EW5ugubBXNp7kpZ4MU0z8j33/PZZd93Z++w558zOnrM/A7uzZmatNTOf2WG+XTP73BrVWHdsGfFInUzr6qbOk0/+x3FAaft513veuwo/d+3UAgECBAgQWJDA4gJHQsSmqR0haMub2rSBIvXSrgJG3y7b8lk3JVDksU2NkKReQkz6a9dV8Gj3k3UVZtKmHflYtz/rCRAgQIDAEgSudOA47wXoH6NUP1nfvwOSsNKOSJxVTv1qk7CR+jWK8fkHv7h6TDQWUuo4zAkQIECAwNIEFhc4zrqhZ3tu6AkHuZFvU7+96dcFHBvJSL/tiETVzbwexdToR+pVgMjIRU3powJG9deOdmSEI8v5nOcdldqPOQECBAgQ2CeBxQWOuqGvQ8z23MjXTdveyPvRjH657T/7q6CT/adcx5n95cXRPqikzdgLpXX8mVcf7b6UCRAgQIDAEgUWFzi2GbFoA0f/aGLbwJGLWaEgYSPhYCwAJEhkW35x0gaNCiEVRGr5o3/48dFRlwokFVDSZ8omAgQIECBwFQQWFzjGbvrthcj2NnD0ASPL+UVIH1zaNn1/qVuBoN3Wl9vHOO0vU3JM7XGn3PaXcrv/LLfb+/1YJkCAAAECSxO48oEjN+725t8HkE0XLMEgYePXfv39d/XRt6n3N1K3Dxb9utTNz1+r7357jYS0x9zvzzIBAgQIEFiawOICR27QZ31qtCDzvKD5la9+9bhNlrcJHBUG2lGGNlRU/2MXux1BacNHW7f6SqjIi6U5n/SZ+hU0slzltq0yAQIECBBYosDiAse6m3jhZ3sFi/bvYbSPO8YCS27uv/O7v3d88z9rHwki6aMCSRsyxl4ErWPLPMdWAaNdn776tum3PYe2vjIBAgQIEFiSwKICx5JgHSsBAgQIECBwKiBwnFooESBAgAABAjMJCBwzweqWAAECBAgQOBUQOE4tlAgQIECAAIGZBASOmWB1S4AAAQIECJwKCBynFkoECBAgQIDATAICx0ywuiVAgAABAgROBQSOUwslAgQIECBAYCYBgWMmWN0SIECAAAECpwICx6mFEgECBAgQIDCTgMAxE6xuCRAgQIAAgVMBgePUQokAAQIECBCYSWDRgeOfnx2GX/zrYfiJTwzDD318GN76sdNPlrM+21PPRIAAAQIECLx5AosMHAkQP/WZ03DRBo115dQXPN68L5o9EyBAgMBhCywucNz/0LSg0QeQtDcRIECAAAECuxVYVODI45E+QJxnOf2YCBAgQIAAgd0JLCZwXHRkow8mRjp29yWzJwIECBAgsIjAkXcv+sCwbvnHPzEM+azb3q73Tof/AAgQIECAwG4EFhE4tn1BNEHjU/9+57NN6Ei/JgIECBAgQGB+gb0PHFNGNzJ68edP3Pm0IxmbykY55v+S2QMBAgQIENj7wDH1RdGpgcMLpP4jIECAAAEC8wvsfeDIH+/aNELRb5saONK/iQABAgQIEJhXYO8DR/8XRPuA0S9PDRzp30SAAAECBAjMK7D3gaMPFO3yO/9yGN7xpbs//3B9GPLp16du27Ytz0usdwIECBAgQGDRgeP9X9n+AqZuGzLa8va9qEmAAAECBAicR2DRgePtXxyGH3ng7s/nvzUM+fTrU7cNGW35PHDaECBAgAABAtsL7H3g8A7H9hdTTQIECBAgsK8Cex84/EplX786josAAQIECGwvsPeBw9/h2P5iqkmAAAECBPZVYO8Dh780uq9fHcdFgAABAgS2F9j7wJFT2fbfUnnbnw7Db/7TnU/K7YuhY2X/lsr2XxQ1CRAgQIDARQQWETimjnKMhYuxdf4dlYt8dbQlQIAAAQLbCywicOR07n/o7BGLsVCxbl36MxEgQIAAAQK7EVhM4AjH1BdI14UN/2Dbbr5c9kKAAAECBEpgUYEjB33RkQ4jG3XpzQkQIECAwO4EFhc4QpN3L7Z9kbRGOVLfOxu7+2LZEwECBAgQaAUWGTjqBBIg8ngkfxys/4ukWc76bBc0SsycAAECBAi8OQKLDhxvDpm9EiBAgAABAlMFBI6pYuoTIECAAAECkwUEjslkGhAgQIAAAQJTBQSOqWLqEyBAgAABApMFBI7JZBoQIECAAAECUwUEjqli6hMgQIAAAQKTBQSOyWQaECBAgAABAlMFBI6pYuoTIECAAAECkwUEjslkGhAgQIAAAQJTBQSOqWLqEyBAgAABApMFBI7JZBoQIECAAAECUwUEjqli6hMgQIAAAQKTBQSOyWQaECBAgAABAlMFBI6pYuoTIECAAAECkwUEjslkGhAgQIAAAQJTBQSOqWLqEyBAgAABApMFBI7JZBoQIECAAAECUwUEjqli6hMgQIAAAQKTBQSOyWQaECBAgAABAlMFBI6pYuoTIECAAAECkwUEjslkGhAgQIAAAQJTBQSOqWLqEyBAgAABApMFBI7JZBoQIECAAAECUwUEjqli6hMgQIAAAQKTBQSOyWQaECBAgAABAlMFBI6pYuoTIECAAAECkwUEjslkGhAgQIAAAQJTBRYZOD7+xw8M//bYN+4616efvjF86tOfuWfdz77954Yf/tEfO/PT9nfr6Gi4/30fGNJnO2X9u97z3uO+0m+7/fbt28NvffBD9xxX216ZAAECBAgcqsAiA0du9L/07vtWN/x1ASH1fv/DHxkSBlIngSDzLGd9BYY+wCR81Lo2rCRspP3YlPpt3b6cfWe/JgIECBAgcIgCiwkcZ93Q+xt86idQnGeEo8JG+4VoA0u7PuXUTwBqQ1DVqWNoR1BqmzkBAgQIEDgUgcUEjvNckHaEo9r/zd9+ecinndqAkTZ5nNKPZKwLHGlb/dVjlSxX2chGK61MgAABAocqsJjAUTfwsZGMbKtHJGMho724Y4Gjttc+xh6drAsc1Tbz1Kl3POo4BY5WSJkAAQIEDlVgUYEjowntyEO9azEWOF588cV7bv4VAsbmCQp/8YUHj9/zqHc92i/FWODoA8ZYUKlHKrXPGg1p+1YmQIAAAQJXXWBRgSNBoG7cNU8IGQscWZcpoWTTTb7d/oUHvzTcuPHMcejIvB+tqH3WfGz04qwRlqv+hXJ+BAgQIEBgTGBRgWPKCEcbOCogrJu3gWRsJCNwm9afFUyy3xy7iQABAgQIHKrAogLH3CMc+RJsChZjj1r6L06CRf+LlIx69H8jpG9nmQABAgQIXGWBRQWOfRzhaL8cCRpjj1my3ghHK6VMgAABAocmcCUCR3vR+nco2nc02npV7refZ4Qjj28SNMbCRvaz6ZcxdRzmBAgQIEDgKgssMnC0v/yo9y8yr3c0Uk6QqOVt52nTBo6MSmxqm+3Z17o/c15tx369cpW/VM6NAAECBAj0AosJHP2BWyZAgAABAgSWIyBwLOdaOVICBAgQILBYAYFjsZfOgRMgQIAAgeUICBzLuVaOlAABAgQILFZA4FjspXPgBAgQIEBgOQICx3KulSMlQIAAAQKLFRA4FnvpHDgBAgQIEFiOgMCxnGvlSAkQIECAwGIFBI7FXjoHToAAAQIEliOw94Hj9ddfH27evDU8++wLPgx8B3wHfAd8B3wHZvoO5F6be+5c094HjgAcHX13rvPXLwECBAgQIDAMx/fa3HPnmvY+cGRkw0SAAAECBAjMLzDnPVfgmP/62QMBAgQIEFiEgMCxiMvkIAkQIECAwLIFBI5lXz9HT4AAAQIEFiEgcCziMjlIAgQIECCwbAGBY9nXz9ETIECAAIFFCAgci7hMDpIAAQIECCxbQODY8vrdunVrePzxx4dXX331nhY3btw43tZvePLJJ4d8anruueeGxx577LiP9JV2/ZT9PProo0Pmafvwww+Pfh555JHjOn17ywQIECBAYB8FBI4JV6WCRebrgkCtT1hIOEl4qGDRBpBtAkcOrW1Th5p1aW8iQIAAAQJLERA4Jl6pb37zm0NGKtqpgki7rso1qvHSSy8NGZWoQNLPEyDyadcnWGTK+gSXBJiqV/2bEyBAgACBJQgIHOe4SjVy0YaDtvz1r3/9nlDSj0okONTIR3sI7SOVWt/uL+1MBAgQIEBgboEf/OAHx//+SeZj01nb+zYCRy8ystze8Gukoa02NsKRkY0EjwSRsWCxTeBISEn7NsCkrwo3wkd7FZQJECBA4DIFXnvtteGFF14YMkLfh44s37x583h76m0zCRzbKJ3UqccjefGzbvrr5hVMEgqeeuqpjY9T2lCREY569NIGlbGRjwmHrioBAgQIEJgk8MYbbwwvv/zy8PTTT98VOipsXL9+fTg6OhpSb5tJ4NhG6aROBY6MeIyNaqRav74fycioRT7pI8ElfWZqR1HqFyjtKMlYsGkDyckhmhEgQIAAgUsTSLjI/+Gt0JF/Yj4jGwkbWd+PfGzascCxSafb1geOsRCQde2jjj5w1HIbONryupGMdeu7Q7RIgAABAgQuVaANHdeuXTtX2MgBCRwTLksfONpgUd1sGuHIyEaNXqwLGeuCxbr1tV9zAgQIECAwl0BCRx6vPP/888fzKSMbdUwCR0lsMa/A8cQTT9zzE9Z2tKOCSD0mqRBS73XUrlKv2lWbChZ5SSf1a/vYvO+v+jUnQIAAAQKXLZCQ8f3vf3/SY5T2GASOVuOMcr0YJdkAAAmqSURBVL1TkXBQIaJvUusrbOQ9jYxqpO02UwWOzNtp3fq2jjIBAgQIENhXAYFjwpWpFz7TpIJFNW9HK1IvASN/JCxTwkL98mRspCLr8tPX+vVLjXZU39VHRjT6INLWUSZAgAABAvsqIHDs65VxXAQIECBA4AoJCBxX6GI6FQIECBAgsK8CAse+XhnHRYAAAQIErpCAwHGFLqZTIUCAAAEC+yogcOzrlXFcBAgQIEDgCgkIHFfoYjoVAgQIECCwrwICx75eGcdFgAABAgSukIDAcYUuplMhQIAAAQL7KnDQgePmzVvD0dF39/XaOC4CBAgQIHAlBHKvzT13rumVV14Z8vna1742+VNtj45eHd6S/5ljuvPP7N46/hfskrx8GPgO+A74DvgO+A5c/ncgYSP33LmmCg17GzjmOnH9EiBAgAABArsTEDh2Z21PBAgQIEDgYAUEjoO99E6cAAECBAjsTkDg2J21PREgQIAAgYMVEDgO9tI7cQIECBAgsDsBgWN31vZEgAABAgQOVkDgONhL78QJECBAgMDuBASO3VnbEwECBAgQOFgBgeNgL70TJ0CAAAECuxMQOHZnbU8ECBAgQOBgBQSOg730TpwAAQIECOxOQODYnbU9ESBAgACBgxUQOA720jtxAgQIECCwOwGBY3fW9kSAAAECBA5WQOA42EvvxAkQIECAwO4EBI7dWdsTAQIECBA4WAGB42AvvRMnQIAAAQK7ExA4dmdtTwQIECBA4GAFBI6DvfROnAABAgQI7E5A4NidtT0RIECAAIGDFRA4DvbSO3ECBAgQILA7AYFjd9b2RIAAAQIEDlZA4DjYS+/ECRAgQIDA7gQqcFxkfnT06vCW/I+JAAECBAgQIDAmcJGgUW0FjjFZ6wgQIECAAIGVQIWGi8wFjhWnAgECBAgQIDAmcJGgUW0FjjFZ6wgQIECAAIGVQIWGi8wFjhWnAgECBAgQIDAmcJGgUW0FjjFZ6wgQIECAAIGVQIWGdv65z31uWPdp61VZ4FhxKhAgQIAAAQJjAhUa+vlY4Ojr1LLAMSZrHQECBAgQILASqNAwNm9Dx9j2WidwrDgVCBAgQIAAgTGBCg3r5gkd67bVeoFjTNY6AgQIECBAYCVQoeEic4FjxalAgAABAgQIjAlcJGhUW4FjTNY6AgQIECBAYCVQoeEic4FjxalAgAABAgQIjAlcJGhUW4FjTNY6AgQIECBAYCVQoeEic4FjxalAgAABAgQIjAlcJGhUW4FjTNY6AgQIECBAYCVQoeEic4FjxalAgAABAgTmEbj27WF42yeH4a0f299Pji/HOdckcMwlq18CBAgQIHAisO9ho4JQjnOuSeCYS1a/BAgQIEDgRKBu6EuYz3XRBI65ZPVLgAABAgROBJYQNOoY57poAsdcsvolQIAAAQInAnUzX8J8rosmcMwlq18CBAgQIHAisISgUcc410UTOOaS1S8BAgQIXLrA7du3hw9+6LeHn/zpn7nn8+W/+/vR/R0dHQ3vvu9Xh9r+Rw/8yfCNbzx+XDfb0l/mmbK+6o12ds6VdTM/z/zz3xqG//zOdr9u+eijw/Cd/x2G+x/arv7Y8ZzzFM9sJnCcSaQCAQIECOyTQELHhz/yB8ONZ545PqwEhHwSJPogkqBRYSJ1KlxU+zZwtOXLPt+xG3u/LqGinbKcAPHa6+3aYfje/20OFGm3bUDpjyHLc00Cx1yy+iVAgACBWQTWBY4EkASJbM+UAJEQUsvtwVTdF1/8n1UI+fRn/2wVYtq6l1Eeu7GPrfuFv7oTFjJCkc+L3zsNF9n27Mt3Qki17UPKpmN9+L+2G/XY1MdFtgkcF9HTlgABAgR2LpAA0T9WyehFHzDyeKQen7QjHe0Bzzmq0e6nAsJZ84xo/OPTw5BwkbBx6052ars6LmfUI3WfeOnuALKu/4QNgeMeRisIECBAgMB6gXUjHFmfgJEQkaketaScdQkd9Y5G/+ilXU67y57WBYF+fUJBTXl3ow0Kbbhoy30fF12u/V/23AjHZYvqjwABAgRmFVg3wpGd1ohGH0raA2qDSLs+5U3b+rpTlrcJAXmEkvczKmjUfGw/GeH4l+fvfb9jrG6ty4hJRk7OOpaqf9lzgeOyRfVHgAABArMK9GGiDQn1GKXe0UjdTG2b1G9HNPpytl/2dNZNPtvrfYwKGjWvRyHtqEZb7vtOOy+NXvYV1B8BAgQIHJxAGx5y8m3gqHcy8gJoGxzaANLW7/E2bevrTlnuQ0G/nNGNhIS8FFpBo52nfhsy2nK1rdELgWPKlVGXAAECBAisEajAkdGMvJdRIxT1YmjW56XSGt1INzXykXJCRbUZm7dBZc0hTF7dB4x1ywkdbdCoUY9+h/XSaPrpA0aW+6mtv27ftb5ve1nLHqlclqR+CBAgQGB2gYSI+oVKBYx2VCIjGb98368cf9rg0NZpy/0Bb9rW152yXDfzs+ZtwMivVfJHvPJrlLRrRzWqXL9maf82Rx9Aztpnv33KeU2pK3BM0VKXAAECBPZOoEJC5u94588f/y2NCiZZV+WMcmSq+mMnsmnbWP1t1/U39XXLNcKR7QkO7YueFTKyrcp5vyN1/vWFOy+QJpwIHNteFfUIECBAgMAEgYSEPBqpEY9qWkHj05/57PC+D/zG6M9lUzejIgkq9Xilgkn1cxnzdQFj3fqMXPR/5CshI8EiU0Y0HvnvuwNJwkYenayb2lGQdfvN+rkmIxxzyeqXAAECBAicCGy6we/btrkumsAxl6x+CRAgQIDAicC+hYpNxzPXRRM45pLVLwECBAgQOBHYdIPft21zXTSBYy5Z/RIgQIAAgROBfQsVm45nrosmcMwlq18CBAgQIHAisOkGv2/b5rpoAsdcsvolQIAAAQInAm/75Nn/hsk+BI8c51yTwDGXrH4JECBAgMCJwLVvD8O+h44cX45zrkngmEtWvwQIECBAgMBKQOBYUSgQIECAAAECcwkIHHPJ6pcAAQIECBBYCQgcKwoFAgQIECBAYC4BgWMuWf0SIECAAAECKwGBY0WhQIAAAQIECMwlIHDMJatfAgQIECBAYCUgcKwoFAgQIECAAIG5BASOuWT1S4AAAQIECKwEBI4VhQIBAgQIECAwl4DAMZesfgkQIECAAIGVgMCxolAgQIAAAQIE5hIQOOaS1S8BAgQIECCwEhA4VhQKBAgQIECAwFwCAsdcsvolQIAAAQIEVgICx4pCgQABAgQIEJhLQOCYS1a/BAgQIECAwErgOHA89dT14fbt11YrFQgQIECAAAEClyWQjHHt2vXh/wEXPRP6cMGSMAAAAABJRU5ErkJggg==;" vertex="1" parent="1">
          <mxGeometry x="870" y="120" width="540" height="944" as="geometry" />
        </mxCell>
        <mxCell id="5L7maJ-LGeqKzFt3YW2Y-4" value="标注模式" style="rounded=0;whiteSpace=wrap;html=1;fontSize=27;" vertex="1" parent="1">
          <mxGeometry x="1060" y="30" width="120" height="60" as="geometry" />
        </mxCell>
        <mxCell id="5L7maJ-LGeqKzFt3YW2Y-6" value="spark模式" style="rounded=0;whiteSpace=wrap;html=1;fontSize=27;" vertex="1" parent="1">
          <mxGeometry x="1680" y="30" width="160" height="60" as="geometry" />
        </mxCell>
      </root>
    </mxGraphModel>
  </diagram>
</mxfile>
